# Wavefront OBJ exported by MilkShape 3D

mtllib czulki.mtl

v 0.232794 2.492026 1.199880
v 0.232794 2.472957 1.136169
v 0.232794 2.542957 1.077317
v 0.232794 2.491499 1.016034
v 0.232794 2.593887 0.954753
v 0.232794 2.566721 0.898329
v 0.232794 2.644818 0.832189
v 0.232794 2.593361 0.775766
v 0.232794 2.695750 0.709625
v 0.232794 2.660486 0.648344
v 0.232794 2.746680 0.587062
v 0.232794 2.719513 0.528209
v 0.232794 2.797611 0.464498
v 0.162955 2.531149 1.205733
v 0.162955 2.512079 1.142022
v 0.162955 2.582079 1.083169
v 0.162955 2.530622 1.021888
v 0.162955 2.633011 0.960606
v 0.162955 2.605844 0.904182
v 0.162955 2.683942 0.838042
v 0.162955 2.632484 0.781618
v 0.162955 2.734872 0.715478
v 0.162955 2.699609 0.654196
v 0.162955 2.785803 0.592914
v 0.162955 2.758637 0.534061
v 0.162955 2.836735 0.470351
v 0.162955 2.452902 1.194027
v 0.162955 2.433834 1.130316
v 0.162955 2.503833 1.071463
v 0.162955 2.452375 1.010182
v 0.162955 2.554764 0.948900
v 0.162955 2.527598 0.892476
v 0.162955 2.605695 0.826337
v 0.162955 2.554237 0.769913
v 0.162955 2.656626 0.703773
v 0.162955 2.621362 0.642491
v 0.162955 2.707557 0.581209
v 0.162955 2.680390 0.522356
v 0.162955 2.758488 0.458645
v 0.186235 2.797611 0.464498
v 0.186235 2.492026 1.199880
v -0.204453 2.483928 1.199880
v -0.134615 2.523052 1.205733
v -0.157895 2.483928 1.199880
v -0.204453 2.789514 0.464498
v -0.157895 2.789514 0.464498
v -0.134615 2.828638 0.470351
v -0.204453 2.464860 1.136169
v -0.134615 2.503982 1.142022
v -0.204453 2.534859 1.077317
v -0.134615 2.573982 1.083169
v -0.204453 2.483402 1.016034
v -0.134615 2.522525 1.021888
v -0.204453 2.585790 0.954753
v -0.134615 2.624913 0.960606
v -0.204453 2.558624 0.898329
v -0.134615 2.597747 0.904182
v -0.204453 2.636721 0.832189
v -0.134615 2.675845 0.838042
v -0.204453 2.585264 0.775766
v -0.134615 2.624387 0.781618
v -0.204453 2.687652 0.709625
v -0.134615 2.726775 0.715478
v -0.204453 2.652389 0.648344
v -0.134615 2.691512 0.654196
v -0.204453 2.738583 0.587062
v -0.134615 2.777706 0.592914
v -0.204453 2.711416 0.528209
v -0.134615 2.750540 0.534061
v -0.134615 2.444804 1.194027
v -0.134615 2.750391 0.458645
v -0.134615 2.425736 1.130316
v -0.134615 2.495736 1.071463
v -0.134615 2.444278 1.010182
v -0.134615 2.546667 0.948900
v -0.134615 2.519501 0.892476
v -0.134615 2.597598 0.826337
v -0.134615 2.546140 0.769913
v -0.134615 2.648528 0.703773
v -0.134615 2.613265 0.642491
v -0.134615 2.699460 0.581209
v -0.134615 2.672293 0.522356
# 82 vertices

vt 0.000000 1.000000
vt 0.000000 0.000000
vt 0.000000 0.083333
vt 0.333333 0.083333
vt 0.333333 0.000000
vt 0.000000 0.166667
vt 0.333333 0.166667
vt 0.000000 0.250000
vt 0.333333 0.250000
vt 0.000000 0.333333
vt 0.333333 0.333333
vt 0.000000 0.416667
vt 0.333333 0.416667
vt 0.000000 0.500000
vt 0.333333 0.500000
vt 0.000000 0.583333
vt 0.333333 0.583333
vt 0.000000 0.666667
vt 0.333333 0.666667
vt 0.000000 0.750000
vt 0.333333 0.750000
vt 0.000000 0.833333
vt 0.333333 0.833333
vt 0.000000 0.916667
vt 0.333333 0.916667
vt 0.333333 1.000000
vt 0.666667 0.000000
vt 0.666667 0.083333
vt 0.666667 0.166667
vt 0.666667 0.250000
vt 0.666667 0.333333
vt 0.666667 0.416667
vt 0.666667 0.500000
vt 0.666667 0.583333
vt 0.666667 0.666667
vt 0.666667 0.750000
vt 0.666667 0.833333
vt 0.666667 0.916667
vt 0.666667 1.000000
vt 1.000000 0.083333
vt 1.000000 0.000000
vt 1.000000 0.166667
vt 1.000000 0.250000
vt 1.000000 0.333333
vt 1.000000 0.416667
vt 1.000000 0.500000
vt 1.000000 0.583333
vt 1.000000 0.666667
vt 1.000000 0.750000
vt 1.000000 0.833333
vt 1.000000 0.916667
vt 1.000000 1.000000
# 52 texture coordinates

vn 0.000000 -0.147948 0.988995
vn 0.000000 0.147952 -0.988995
vn 0.838357 0.522230 -0.156312
vn 0.859220 -0.488524 -0.151940
vn -0.606074 0.759523 0.236220
vn -0.521443 0.817454 -0.244677
vn 0.861290 0.506566 0.039634
vn -0.691695 0.719989 0.056331
vn 0.861794 -0.499993 -0.085542
vn -0.732529 0.670987 0.114792
vn 0.858957 0.487813 0.155664
vn -0.671981 0.705519 0.225134
vn 0.861337 -0.496250 -0.108787
vn -0.634027 0.755373 0.165592
vn 0.860814 0.508224 0.026598
vn -0.701402 0.711792 0.037252
vn 0.861786 -0.503269 -0.063599
vn -0.734336 0.673430 0.085103
vn 0.860713 0.493378 0.125500
vn -0.679810 0.710754 0.180795
vn 0.861219 -0.495591 -0.112654
vn -0.668883 0.724877 0.164770
vn 0.860131 0.491275 0.137196
vn -0.649585 0.732271 0.204496
vn 0.861012 -0.494622 -0.118356
vn -0.634754 0.751499 0.179826
vn 0.782607 0.393506 0.482368
vn -0.553852 0.526315 0.645167
vn -0.521440 -0.817461 0.244660
vn -0.606067 -0.759526 -0.236226
vn -0.691691 -0.719993 -0.056330
vn -0.732529 -0.670987 -0.114794
vn -0.671983 -0.705517 -0.225134
vn -0.634030 -0.755371 -0.165592
vn -0.701401 -0.711792 -0.037256
vn -0.734334 -0.673432 -0.085103
vn -0.679806 -0.710757 -0.180796
vn -0.668880 -0.724879 -0.164773
vn -0.649586 -0.732271 -0.204493
vn -0.634757 -0.751497 -0.179823
vn -0.553856 -0.526317 -0.645162
vn 0.606074 0.759523 0.236220
vn -0.859220 -0.488524 -0.151940
vn -0.838357 0.522230 -0.156312
vn 0.521443 0.817454 -0.244677
vn -0.861290 0.506566 0.039634
vn 0.691695 0.719989 0.056331
vn 0.732529 0.670987 0.114792
vn -0.861794 -0.499994 -0.085542
vn -0.858957 0.487813 0.155664
vn 0.671981 0.705519 0.225134
vn 0.634027 0.755373 0.165592
vn -0.861337 -0.496250 -0.108787
vn -0.860814 0.508224 0.026598
vn 0.701402 0.711792 0.037252
vn 0.734336 0.673430 0.085103
vn -0.861786 -0.503269 -0.063599
vn -0.860713 0.493378 0.125500
vn 0.679810 0.710754 0.180795
vn 0.668883 0.724877 0.164770
vn -0.861219 -0.495591 -0.112654
vn -0.860131 0.491275 0.137196
vn 0.649585 0.732271 0.204496
vn 0.634754 0.751499 0.179826
vn -0.861012 -0.494622 -0.118356
vn -0.782607 0.393506 0.482368
vn 0.553852 0.526315 0.645167
vn 0.521440 -0.817461 0.244660
vn 0.606067 -0.759526 -0.236226
vn 0.691691 -0.719993 -0.056330
vn 0.732529 -0.670987 -0.114794
vn 0.671983 -0.705517 -0.225134
vn 0.634030 -0.755371 -0.165592
vn 0.701401 -0.711792 -0.037256
vn 0.734334 -0.673432 -0.085103
vn 0.679806 -0.710757 -0.180796
vn 0.668880 -0.724879 -0.164773
vn 0.649586 -0.732271 -0.204493
vn 0.634757 -0.751497 -0.179823
vn 0.553856 -0.526317 -0.645162
# 80 normals

g Cylinder05
s 2
f 1/1/1 14/1/1 41/1/1
f 13/1/2 40/1/2 26/1/2
s 1
f 1/2/3 2/3/4 15/4/5
f 1/2/3 15/4/5 14/5/6
f 2/3/4 3/6/7 15/4/5
f 3/6/7 16/7/8 15/4/5
f 3/6/7 4/8/9 17/9/10
f 3/6/7 17/9/10 16/7/8
f 4/8/9 5/10/11 17/9/10
f 5/10/11 18/11/12 17/9/10
f 5/10/11 6/12/13 19/13/14
f 5/10/11 19/13/14 18/11/12
f 6/12/13 7/14/15 19/13/14
f 7/14/15 20/15/16 19/13/14
f 7/14/15 8/16/17 21/17/18
f 7/14/15 21/17/18 20/15/16
f 8/16/17 9/18/19 21/17/18
f 9/18/19 22/19/20 21/17/18
f 9/18/19 10/20/21 23/21/22
f 9/18/19 23/21/22 22/19/20
f 10/20/21 11/22/23 23/21/22
f 11/22/23 24/23/24 23/21/22
f 11/22/23 12/24/25 25/25/26
f 11/22/23 25/25/26 24/23/24
f 12/24/25 13/1/27 25/25/26
f 13/1/27 26/26/28 25/25/26
s 2
f 14/1/1 27/1/1 41/1/1
f 26/1/2 40/1/2 39/1/2
s 1
f 14/5/6 15/4/5 27/27/29
f 15/4/5 28/28/30 27/27/29
f 15/4/5 16/7/8 29/29/31
f 15/4/5 29/29/31 28/28/30
f 16/7/8 17/9/10 29/29/31
f 17/9/10 30/30/32 29/29/31
f 17/9/10 18/11/12 31/31/33
f 17/9/10 31/31/33 30/30/32
f 18/11/12 19/13/14 31/31/33
f 19/13/14 32/32/34 31/31/33
f 19/13/14 20/15/16 33/33/35
f 19/13/14 33/33/35 32/32/34
f 20/15/16 21/17/18 33/33/35
f 21/17/18 34/34/36 33/33/35
f 21/17/18 22/19/20 35/35/37
f 21/17/18 35/35/37 34/34/36
f 22/19/20 23/21/22 35/35/37
f 23/21/22 36/36/38 35/35/37
f 23/21/22 24/23/24 37/37/39
f 23/21/22 37/37/39 36/36/38
f 24/23/24 25/25/26 37/37/39
f 25/25/26 38/38/40 37/37/39
f 25/25/26 26/26/28 39/39/41
f 25/25/26 39/39/41 38/38/40
s 2
f 27/1/1 1/1/1 41/1/1
f 39/1/2 40/1/2 13/1/2
s 1
f 27/27/29 28/28/30 2/40/4
f 27/27/29 2/40/4 1/41/3
f 28/28/30 29/29/31 2/40/4
f 29/29/31 3/42/7 2/40/4
f 29/29/31 30/30/32 4/43/9
f 29/29/31 4/43/9 3/42/7
f 30/30/32 31/31/33 4/43/9
f 31/31/33 5/44/11 4/43/9
f 31/31/33 32/32/34 6/45/13
f 31/31/33 6/45/13 5/44/11
f 32/32/34 33/33/35 6/45/13
f 33/33/35 7/46/15 6/45/13
f 33/33/35 34/34/36 8/47/17
f 33/33/35 8/47/17 7/46/15
f 34/34/36 35/35/37 8/47/17
f 35/35/37 9/48/19 8/47/17
f 35/35/37 36/36/38 10/49/21
f 35/35/37 10/49/21 9/48/19
f 36/36/38 37/37/39 10/49/21
f 37/37/39 11/50/23 10/49/21
f 37/37/39 38/38/40 12/51/25
f 37/37/39 12/51/25 11/50/23
f 38/38/40 39/39/41 12/51/25
f 39/39/41 13/52/27 12/51/25
# 78 triangles in group

g Duplicate01
s 2
f 44/1/1 43/1/1 42/1/1
f 47/1/2 46/1/2 45/1/2
s 1
f 49/4/42 48/3/43 42/2/44
f 43/5/45 49/4/42 42/2/44
f 49/4/42 50/6/46 48/3/43
f 49/4/42 51/7/47 50/6/46
f 53/9/48 52/8/49 50/6/46
f 51/7/47 53/9/48 50/6/46
f 53/9/48 54/10/50 52/8/49
f 53/9/48 55/11/51 54/10/50
f 57/13/52 56/12/53 54/10/50
f 55/11/51 57/13/52 54/10/50
f 57/13/52 58/14/54 56/12/53
f 57/13/52 59/15/55 58/14/54
f 61/17/56 60/16/57 58/14/54
f 59/15/55 61/17/56 58/14/54
f 61/17/56 62/18/58 60/16/57
f 61/17/56 63/19/59 62/18/58
f 65/21/60 64/20/61 62/18/58
f 63/19/59 65/21/60 62/18/58
f 65/21/60 66/22/62 64/20/61
f 65/21/60 67/23/63 66/22/62
f 69/25/64 68/24/65 66/22/62
f 67/23/63 69/25/64 66/22/62
f 69/25/64 45/1/66 68/24/65
f 69/25/64 47/26/67 45/1/66
s 2
f 44/1/1 70/1/1 43/1/1
f 71/1/2 46/1/2 47/1/2
s 1
f 70/27/68 49/4/42 43/5/45
f 70/27/68 72/28/69 49/4/42
f 73/29/70 51/7/47 49/4/42
f 72/28/69 73/29/70 49/4/42
f 73/29/70 53/9/48 51/7/47
f 73/29/70 74/30/71 53/9/48
f 75/31/72 55/11/51 53/9/48
f 74/30/71 75/31/72 53/9/48
f 75/31/72 57/13/52 55/11/51
f 75/31/72 76/32/73 57/13/52
f 77/33/74 59/15/55 57/13/52
f 76/32/73 77/33/74 57/13/52
f 77/33/74 61/17/56 59/15/55
f 77/33/74 78/34/75 61/17/56
f 79/35/76 63/19/59 61/17/56
f 78/34/75 79/35/76 61/17/56
f 79/35/76 65/21/60 63/19/59
f 79/35/76 80/36/77 65/21/60
f 81/37/78 67/23/63 65/21/60
f 80/36/77 81/37/78 65/21/60
f 81/37/78 69/25/64 67/23/63
f 81/37/78 82/38/79 69/25/64
f 71/39/80 47/26/67 69/25/64
f 82/38/79 71/39/80 69/25/64
s 2
f 44/1/1 42/1/1 70/1/1
f 45/1/2 46/1/2 71/1/2
s 1
f 48/40/43 72/28/69 70/27/68
f 42/41/44 48/40/43 70/27/68
f 48/40/43 73/29/70 72/28/69
f 48/40/43 50/42/46 73/29/70
f 52/43/49 74/30/71 73/29/70
f 50/42/46 52/43/49 73/29/70
f 52/43/49 75/31/72 74/30/71
f 52/43/49 54/44/50 75/31/72
f 56/45/53 76/32/73 75/31/72
f 54/44/50 56/45/53 75/31/72
f 56/45/53 77/33/74 76/32/73
f 56/45/53 58/46/54 77/33/74
f 60/47/57 78/34/75 77/33/74
f 58/46/54 60/47/57 77/33/74
f 60/47/57 79/35/76 78/34/75
f 60/47/57 62/48/58 79/35/76
f 64/49/61 80/36/77 79/35/76
f 62/48/58 64/49/61 79/35/76
f 64/49/61 81/37/78 80/36/77
f 64/49/61 66/50/62 81/37/78
f 68/51/65 82/38/79 81/37/78
f 66/50/62 68/51/65 81/37/78
f 68/51/65 71/39/80 82/38/79
f 68/51/65 45/52/66 71/39/80
# 78 triangles in group

# 156 triangles total

