# Wavefront OBJ exported by MilkShape 3D

mtllib fance2.mtl

v -0.502171 0.449523 -0.498495
v -0.502171 -0.000477 -0.498495
v -0.502171 0.449523 -0.448495
v -0.502171 -0.000477 -0.448495
v -0.352171 0.449523 -0.448495
v -0.352171 -0.000477 -0.448495
v -0.352171 0.449523 -0.498495
v -0.352171 -0.000477 -0.498495
v -0.427171 0.499523 -0.498495
v -0.427171 0.499523 -0.448495
v -0.224157 0.449523 -0.498782
v -0.224157 -0.000477 -0.498782
v -0.224157 0.449523 -0.448782
v -0.224157 -0.000477 -0.448782
v -0.074157 0.449523 -0.448782
v -0.074157 -0.000477 -0.448782
v -0.074157 0.449523 -0.498782
v -0.074157 -0.000477 -0.498782
v -0.149157 0.499523 -0.498782
v -0.149157 0.499523 -0.448782
v 0.068046 0.449523 -0.498420
v 0.068046 -0.000477 -0.498420
v 0.068046 0.449523 -0.448420
v 0.068046 -0.000477 -0.448420
v 0.218046 0.449523 -0.448420
v 0.218046 -0.000477 -0.448420
v 0.218046 0.449523 -0.498420
v 0.218046 -0.000477 -0.498420
v 0.143046 0.499523 -0.498420
v 0.143046 0.499523 -0.448420
v 0.347973 0.449523 -0.497954
v 0.347973 -0.000477 -0.497954
v 0.347973 0.449523 -0.447954
v 0.347973 -0.000477 -0.447954
v 0.497973 0.449523 -0.447954
v 0.497973 -0.000477 -0.447954
v 0.497973 0.449523 -0.497954
v 0.497973 -0.000477 -0.497954
v 0.422973 0.499523 -0.497954
v 0.422973 0.499523 -0.447954
v -0.452297 0.299523 0.451758
v -0.452297 0.199523 0.451758
v 0.397703 0.299523 0.451758
v 0.397703 0.199523 0.451758
v 0.397703 0.299523 0.401758
v 0.397703 0.199523 0.401758
v -0.452297 0.299523 0.401758
v -0.452297 0.199523 0.401758
v -0.402297 0.299523 -0.398242
v -0.402297 0.199523 -0.398242
v 0.447703 0.299523 -0.398242
v 0.447703 0.199523 -0.398242
v 0.447703 0.299523 -0.448241
v 0.447703 0.199523 -0.448241
v -0.402297 0.299523 -0.448241
v -0.402297 0.199523 -0.448241
v 0.397703 0.299523 -0.398242
v 0.397703 0.199523 -0.398242
v 0.397703 0.299523 0.451758
v 0.397703 0.199523 0.451758
v 0.447703 0.299523 0.451758
v 0.447703 0.199523 0.451758
v 0.447703 0.299523 -0.398242
v 0.447703 0.199523 -0.398242
v -0.452297 0.299523 -0.448241
v -0.452297 0.199523 -0.448241
v -0.452297 0.299523 0.401758
v -0.452297 0.199523 0.401758
v -0.402297 0.299523 0.401758
v -0.402297 0.199523 0.401758
v -0.402297 0.299523 -0.448241
v -0.402297 0.199523 -0.448241
v -0.502111 0.449523 0.451863
v -0.502111 -0.000477 0.451863
v -0.502111 0.449523 0.501863
v -0.502111 -0.000477 0.501863
v -0.352111 0.449523 0.501863
v -0.352111 -0.000477 0.501863
v -0.352111 0.449523 0.451863
v -0.352111 -0.000477 0.451863
v -0.427111 0.499523 0.451863
v -0.427111 0.499523 0.501863
v -0.224097 0.449523 0.451575
v -0.224097 -0.000477 0.451575
v -0.224097 0.449523 0.501576
v -0.224097 -0.000477 0.501576
v -0.074097 0.449523 0.501576
v -0.074097 -0.000477 0.501576
v -0.074097 0.449523 0.451575
v -0.074097 -0.000477 0.451575
v -0.149097 0.499523 0.451575
v -0.149097 0.499523 0.501576
v 0.068105 0.449523 0.451937
v 0.068105 -0.000477 0.451937
v 0.068105 0.449523 0.501937
v 0.068105 -0.000477 0.501937
v 0.218106 0.449523 0.501937
v 0.218106 -0.000477 0.501937
v 0.218106 0.449523 0.451937
v 0.218106 -0.000477 0.451937
v 0.143105 0.499523 0.451937
v 0.143105 0.499523 0.501937
v 0.348032 0.449523 0.452403
v 0.348032 -0.000477 0.452403
v 0.348032 0.449523 0.502403
v 0.348032 -0.000477 0.502403
v 0.498032 0.449523 0.502403
v 0.498032 -0.000477 0.502403
v 0.498032 0.449523 0.452403
v 0.498032 -0.000477 0.452403
v 0.423032 0.499523 0.452403
v 0.423032 0.499523 0.502403
v -0.451787 0.449523 -0.349453
v -0.451787 -0.000477 -0.349453
v -0.501787 0.449523 -0.349453
v -0.501787 -0.000477 -0.349453
v -0.501787 0.449523 -0.199453
v -0.501787 -0.000477 -0.199453
v -0.451787 0.449523 -0.199453
v -0.451787 -0.000477 -0.199453
v -0.451787 0.499523 -0.274453
v -0.501787 0.499523 -0.274453
v -0.452309 0.449523 -0.073559
v -0.452309 -0.000477 -0.073559
v -0.502309 0.449523 -0.073558
v -0.502309 -0.000477 -0.073558
v -0.502309 0.449523 0.076441
v -0.502309 -0.000477 0.076441
v -0.452309 0.449523 0.076441
v -0.452309 -0.000477 0.076441
v -0.452309 0.499523 0.001441
v -0.502310 0.499523 0.001441
v -0.451938 0.449523 0.200849
v -0.451938 -0.000477 0.200849
v -0.501938 0.449523 0.200849
v -0.501938 -0.000477 0.200849
v -0.501938 0.449523 0.350849
v -0.501938 -0.000477 0.350849
v -0.451938 0.449523 0.350849
v -0.451938 -0.000477 0.350849
v -0.451938 0.499523 0.275849
v -0.501938 0.499523 0.275849
v 0.498482 0.449523 -0.349421
v 0.498482 -0.000477 -0.349421
v 0.448481 0.449523 -0.349421
v 0.448481 -0.000477 -0.349421
v 0.448481 0.449523 -0.199421
v 0.448481 -0.000477 -0.199421
v 0.498481 0.449523 -0.199421
v 0.498481 -0.000477 -0.199421
v 0.498482 0.499523 -0.274421
v 0.448481 0.499523 -0.274421
v 0.497959 0.449523 -0.073527
v 0.497959 -0.000477 -0.073527
v 0.447959 0.449523 -0.073526
v 0.447959 -0.000477 -0.073526
v 0.447959 0.449523 0.076473
v 0.447959 -0.000477 0.076473
v 0.497959 0.449523 0.076473
v 0.497959 -0.000477 0.076473
v 0.497959 0.499523 0.001473
v 0.447959 0.499523 0.001473
v 0.498331 0.449523 0.200881
v 0.498331 -0.000477 0.200881
v 0.448330 0.449523 0.200881
v 0.448330 -0.000477 0.200881
v 0.448330 0.449523 0.350881
v 0.448330 -0.000477 0.350881
v 0.498330 0.449523 0.350881
v 0.498330 -0.000477 0.350881
v 0.498331 0.499523 0.275881
v 0.448330 0.499523 0.275881
# 172 vertices

vt 0.000000 1.000000
vt 0.000000 0.000000
vt 1.000000 1.000000
vt 1.000000 0.000000
# 4 texture coordinates

vn -0.766933 0.410450 -0.493300
vn -1.000000 0.000000 0.000000
vn -0.848234 0.453961 0.272797
vn 0.000000 0.000000 1.000000
vn 0.735792 0.580464 0.348816
vn 1.000000 0.000000 0.000000
vn 0.891119 0.290232 -0.348815
vn 0.000000 0.000000 -1.000000
vn 0.000000 1.000000 0.000000
vn 0.000000 -1.000000 0.000000
vn -0.000000 0.957704 -0.287754
vn -0.000000 0.857143 0.515079
vn 0.493299 0.410449 -0.766934
vn -0.272798 0.453960 -0.848234
vn -0.348816 0.580463 0.735792
vn 0.348814 0.290232 0.891120
vn 0.287754 0.957704 -0.000000
vn -0.515080 0.857142 -0.000000
# 18 normals

g Duplicate20
usemtl decha
s 1
f 1/1/1 2/2/2 3/3/3
f 2/2/2 4/4/2 3/3/3
s 2
f 3/1/4 4/2/4 5/3/4
f 4/2/4 6/4/4 5/3/4
s 1
f 5/1/5 6/2/6 7/3/7
f 6/2/6 8/4/6 7/3/7
s 2
f 7/1/8 8/2/8 1/3/8
f 8/2/8 2/4/8 1/3/8
s 3
f 7/1/9 1/2/9 5/3/9
f 1/2/9 3/4/9 5/3/9
f 2/1/10 8/2/10 4/3/10
f 8/2/10 6/4/10 4/3/10
s 1
f 7/1/7 1/1/1 9/1/11
f 3/1/3 5/1/5 10/1/12
f 9/1/11 10/1/12 5/1/5
f 5/1/5 7/1/7 9/1/11
f 1/1/1 3/1/3 9/1/11
f 9/1/11 3/1/3 10/1/12
# 18 triangles in group

g Duplicate22
usemtl decha
f 11/1/1 12/2/2 13/3/3
f 12/2/2 14/4/2 13/3/3
s 2
f 13/1/4 14/2/4 15/3/4
f 14/2/4 16/4/4 15/3/4
s 1
f 15/1/5 16/2/6 17/3/7
f 16/2/6 18/4/6 17/3/7
s 2
f 17/1/8 18/2/8 11/3/8
f 18/2/8 12/4/8 11/3/8
s 3
f 17/1/9 11/2/9 15/3/9
f 11/2/9 13/4/9 15/3/9
f 12/1/10 18/2/10 14/3/10
f 18/2/10 16/4/10 14/3/10
s 1
f 17/1/7 11/1/1 19/1/11
f 13/1/3 15/1/5 20/1/12
f 19/1/11 20/1/12 15/1/5
f 15/1/5 17/1/7 19/1/11
f 11/1/1 13/1/3 19/1/11
f 19/1/11 13/1/3 20/1/12
# 18 triangles in group

g Duplicate24
usemtl decha
f 21/1/1 22/2/2 23/3/3
f 22/2/2 24/4/2 23/3/3
s 2
f 23/1/4 24/2/4 25/3/4
f 24/2/4 26/4/4 25/3/4
s 1
f 25/1/5 26/2/6 27/3/7
f 26/2/6 28/4/6 27/3/7
s 2
f 27/1/8 28/2/8 21/3/8
f 28/2/8 22/4/8 21/3/8
s 3
f 27/1/9 21/2/9 25/3/9
f 21/2/9 23/4/9 25/3/9
f 22/1/10 28/2/10 24/3/10
f 28/2/10 26/4/10 24/3/10
s 1
f 27/1/7 21/1/1 29/1/11
f 23/1/3 25/1/5 30/1/12
f 29/1/11 30/1/12 25/1/5
f 25/1/5 27/1/7 29/1/11
f 21/1/1 23/1/3 29/1/11
f 29/1/11 23/1/3 30/1/12
# 18 triangles in group

g Duplicate26
usemtl decha
f 31/1/1 32/2/2 33/3/3
f 32/2/2 34/4/2 33/3/3
s 2
f 33/1/4 34/2/4 35/3/4
f 34/2/4 36/4/4 35/3/4
s 1
f 35/1/5 36/2/6 37/3/7
f 36/2/6 38/4/6 37/3/7
s 2
f 37/1/8 38/2/8 31/3/8
f 38/2/8 32/4/8 31/3/8
s 3
f 37/1/9 31/2/9 35/3/9
f 31/2/9 33/4/9 35/3/9
f 32/1/10 38/2/10 34/3/10
f 38/2/10 36/4/10 34/3/10
s 1
f 37/1/7 31/1/1 39/1/11
f 33/1/3 35/1/5 40/1/12
f 39/1/11 40/1/12 35/1/5
f 35/1/5 37/1/7 39/1/11
f 31/1/1 33/1/3 39/1/11
f 39/1/11 33/1/3 40/1/12
# 18 triangles in group

g Box02
usemtl decha
f 41/1/4 42/2/4 43/3/4
f 42/2/4 44/4/4 43/3/4
s 2
f 43/1/6 44/2/6 45/3/6
f 44/2/6 46/4/6 45/3/6
s 1
f 45/1/8 46/2/8 47/3/8
f 46/2/8 48/4/8 47/3/8
s 2
f 47/1/2 48/2/2 41/3/2
f 48/2/2 42/4/2 41/3/2
s 3
f 47/1/9 41/2/9 45/3/9
f 41/2/9 43/4/9 45/3/9
f 42/1/10 48/2/10 44/3/10
f 48/2/10 46/4/10 44/3/10
# 12 triangles in group

g Duplicate29
usemtl decha
s 1
f 49/1/4 50/2/4 51/3/4
f 50/2/4 52/4/4 51/3/4
s 2
f 51/1/6 52/2/6 53/3/6
f 52/2/6 54/4/6 53/3/6
s 1
f 53/1/8 54/2/8 55/3/8
f 54/2/8 56/4/8 55/3/8
s 2
f 55/1/2 56/2/2 49/3/2
f 56/2/2 50/4/2 49/3/2
s 3
f 55/1/9 49/2/9 53/3/9
f 49/2/9 51/4/9 53/3/9
f 50/1/10 56/2/10 52/3/10
f 56/2/10 54/4/10 52/3/10
# 12 triangles in group

g Duplicate30
usemtl decha
s 1
f 57/1/2 58/2/2 59/3/2
f 58/2/2 60/4/2 59/3/2
s 2
f 59/1/4 60/2/4 61/3/4
f 60/2/4 62/4/4 61/3/4
s 1
f 61/1/6 62/2/6 63/3/6
f 62/2/6 64/4/6 63/3/6
s 2
f 63/1/8 64/2/8 57/3/8
f 64/2/8 58/4/8 57/3/8
s 3
f 63/1/9 57/2/9 61/3/9
f 57/2/9 59/4/9 61/3/9
f 58/1/10 64/2/10 60/3/10
f 64/2/10 62/4/10 60/3/10
# 12 triangles in group

g Duplicate31
usemtl decha
s 1
f 65/1/2 66/2/2 67/3/2
f 66/2/2 68/4/2 67/3/2
s 2
f 67/1/4 68/2/4 69/3/4
f 68/2/4 70/4/4 69/3/4
s 1
f 69/1/6 70/2/6 71/3/6
f 70/2/6 72/4/6 71/3/6
s 2
f 71/1/8 72/2/8 65/3/8
f 72/2/8 66/4/8 65/3/8
s 3
f 71/1/9 65/2/9 69/3/9
f 65/2/9 67/4/9 69/3/9
f 66/1/10 72/2/10 68/3/10
f 72/2/10 70/4/10 68/3/10
# 12 triangles in group

g Duplicate01
usemtl decha
s 1
f 73/1/1 74/2/2 75/3/3
f 74/2/2 76/4/2 75/3/3
s 2
f 75/1/4 76/2/4 77/3/4
f 76/2/4 78/4/4 77/3/4
s 1
f 77/1/5 78/2/6 79/3/7
f 78/2/6 80/4/6 79/3/7
s 2
f 79/1/8 80/2/8 73/3/8
f 80/2/8 74/4/8 73/3/8
s 3
f 79/1/9 73/2/9 77/3/9
f 73/2/9 75/4/9 77/3/9
f 74/1/10 80/2/10 76/3/10
f 80/2/10 78/4/10 76/3/10
s 1
f 79/1/7 73/1/1 81/1/11
f 75/1/3 77/1/5 82/1/12
f 81/1/11 82/1/12 77/1/5
f 77/1/5 79/1/7 81/1/11
f 73/1/1 75/1/3 81/1/11
f 81/1/11 75/1/3 82/1/12
f 83/1/1 84/2/2 85/3/3
f 84/2/2 86/4/2 85/3/3
s 2
f 85/1/4 86/2/4 87/3/4
f 86/2/4 88/4/4 87/3/4
s 1
f 87/1/5 88/2/6 89/3/7
f 88/2/6 90/4/6 89/3/7
s 2
f 89/1/8 90/2/8 83/3/8
f 90/2/8 84/4/8 83/3/8
s 3
f 89/1/9 83/2/9 87/3/9
f 83/2/9 85/4/9 87/3/9
f 84/1/10 90/2/10 86/3/10
f 90/2/10 88/4/10 86/3/10
s 1
f 89/1/7 83/1/1 91/1/11
f 85/1/3 87/1/5 92/1/12
f 91/1/11 92/1/12 87/1/5
f 87/1/5 89/1/7 91/1/11
f 83/1/1 85/1/3 91/1/11
f 91/1/11 85/1/3 92/1/12
f 93/1/1 94/2/2 95/3/3
f 94/2/2 96/4/2 95/3/3
s 2
f 95/1/4 96/2/4 97/3/4
f 96/2/4 98/4/4 97/3/4
s 1
f 97/1/5 98/2/6 99/3/7
f 98/2/6 100/4/6 99/3/7
s 2
f 99/1/8 100/2/8 93/3/8
f 100/2/8 94/4/8 93/3/8
s 3
f 99/1/9 93/2/9 97/3/9
f 93/2/9 95/4/9 97/3/9
f 94/1/10 100/2/10 96/3/10
f 100/2/10 98/4/10 96/3/10
s 1
f 99/1/7 93/1/1 101/1/11
f 95/1/3 97/1/5 102/1/12
f 101/1/11 102/1/12 97/1/5
f 97/1/5 99/1/7 101/1/11
f 93/1/1 95/1/3 101/1/11
f 101/1/11 95/1/3 102/1/12
f 103/1/1 104/2/2 105/3/3
f 104/2/2 106/4/2 105/3/3
s 2
f 105/1/4 106/2/4 107/3/4
f 106/2/4 108/4/4 107/3/4
s 1
f 107/1/5 108/2/6 109/3/7
f 108/2/6 110/4/6 109/3/7
s 2
f 109/1/8 110/2/8 103/3/8
f 110/2/8 104/4/8 103/3/8
s 3
f 109/1/9 103/2/9 107/3/9
f 103/2/9 105/4/9 107/3/9
f 104/1/10 110/2/10 106/3/10
f 110/2/10 108/4/10 106/3/10
s 1
f 109/1/7 103/1/1 111/1/11
f 105/1/3 107/1/5 112/1/12
f 111/1/11 112/1/12 107/1/5
f 107/1/5 109/1/7 111/1/11
f 103/1/1 105/1/3 111/1/11
f 111/1/11 105/1/3 112/1/12
# 72 triangles in group

g Duplicate02
usemtl decha
f 113/1/13 114/2/8 115/3/14
f 114/2/8 116/4/8 115/3/14
s 2
f 115/1/2 116/2/2 117/3/2
f 116/2/2 118/4/2 117/3/2
s 1
f 117/1/15 118/2/4 119/3/16
f 118/2/4 120/4/4 119/3/16
s 2
f 119/1/6 120/2/6 113/3/6
f 120/2/6 114/4/6 113/3/6
s 3
f 119/1/9 113/2/9 117/3/9
f 113/2/9 115/4/9 117/3/9
f 114/1/10 120/2/10 116/3/10
f 120/2/10 118/4/10 116/3/10
s 1
f 119/1/16 113/1/13 121/1/17
f 115/1/14 117/1/15 122/1/18
f 121/1/17 122/1/18 117/1/15
f 117/1/15 119/1/16 121/1/17
f 113/1/13 115/1/14 121/1/17
f 121/1/17 115/1/14 122/1/18
# 18 triangles in group

g Duplicate03
usemtl decha
f 123/1/13 124/2/8 125/3/14
f 124/2/8 126/4/8 125/3/14
s 2
f 125/1/2 126/2/2 127/3/2
f 126/2/2 128/4/2 127/3/2
s 1
f 127/1/15 128/2/4 129/3/16
f 128/2/4 130/4/4 129/3/16
s 2
f 129/1/6 130/2/6 123/3/6
f 130/2/6 124/4/6 123/3/6
s 3
f 129/1/9 123/2/9 127/3/9
f 123/2/9 125/4/9 127/3/9
f 124/1/10 130/2/10 126/3/10
f 130/2/10 128/4/10 126/3/10
s 1
f 129/1/16 123/1/13 131/1/17
f 125/1/14 127/1/15 132/1/18
f 131/1/17 132/1/18 127/1/15
f 127/1/15 129/1/16 131/1/17
f 123/1/13 125/1/14 131/1/17
f 131/1/17 125/1/14 132/1/18
# 18 triangles in group

g Duplicate04
usemtl decha
f 133/1/13 134/2/8 135/3/14
f 134/2/8 136/4/8 135/3/14
s 2
f 135/1/2 136/2/2 137/3/2
f 136/2/2 138/4/2 137/3/2
s 1
f 137/1/15 138/2/4 139/3/16
f 138/2/4 140/4/4 139/3/16
s 2
f 139/1/6 140/2/6 133/3/6
f 140/2/6 134/4/6 133/3/6
s 3
f 139/1/9 133/2/9 137/3/9
f 133/2/9 135/4/9 137/3/9
f 134/1/10 140/2/10 136/3/10
f 140/2/10 138/4/10 136/3/10
s 1
f 139/1/16 133/1/13 141/1/17
f 135/1/14 137/1/15 142/1/18
f 141/1/17 142/1/18 137/1/15
f 137/1/15 139/1/16 141/1/17
f 133/1/13 135/1/14 141/1/17
f 141/1/17 135/1/14 142/1/18
# 18 triangles in group

g Duplicate05
usemtl decha
f 143/1/13 144/2/8 145/3/14
f 144/2/8 146/4/8 145/3/14
s 2
f 145/1/2 146/2/2 147/3/2
f 146/2/2 148/4/2 147/3/2
s 1
f 147/1/15 148/2/4 149/3/16
f 148/2/4 150/4/4 149/3/16
s 2
f 149/1/6 150/2/6 143/3/6
f 150/2/6 144/4/6 143/3/6
s 3
f 149/1/9 143/2/9 147/3/9
f 143/2/9 145/4/9 147/3/9
f 144/1/10 150/2/10 146/3/10
f 150/2/10 148/4/10 146/3/10
s 1
f 149/1/16 143/1/13 151/1/17
f 145/1/14 147/1/15 152/1/18
f 151/1/17 152/1/18 147/1/15
f 147/1/15 149/1/16 151/1/17
f 143/1/13 145/1/14 151/1/17
f 151/1/17 145/1/14 152/1/18
f 153/1/13 154/2/8 155/3/14
f 154/2/8 156/4/8 155/3/14
s 2
f 155/1/2 156/2/2 157/3/2
f 156/2/2 158/4/2 157/3/2
s 1
f 157/1/15 158/2/4 159/3/16
f 158/2/4 160/4/4 159/3/16
s 2
f 159/1/6 160/2/6 153/3/6
f 160/2/6 154/4/6 153/3/6
s 3
f 159/1/9 153/2/9 157/3/9
f 153/2/9 155/4/9 157/3/9
f 154/1/10 160/2/10 156/3/10
f 160/2/10 158/4/10 156/3/10
s 1
f 159/1/16 153/1/13 161/1/17
f 155/1/14 157/1/15 162/1/18
f 161/1/17 162/1/18 157/1/15
f 157/1/15 159/1/16 161/1/17
f 153/1/13 155/1/14 161/1/17
f 161/1/17 155/1/14 162/1/18
f 163/1/13 164/2/8 165/3/14
f 164/2/8 166/4/8 165/3/14
s 2
f 165/1/2 166/2/2 167/3/2
f 166/2/2 168/4/2 167/3/2
s 1
f 167/1/15 168/2/4 169/3/16
f 168/2/4 170/4/4 169/3/16
s 2
f 169/1/6 170/2/6 163/3/6
f 170/2/6 164/4/6 163/3/6
s 3
f 169/1/9 163/2/9 167/3/9
f 163/2/9 165/4/9 167/3/9
f 164/1/10 170/2/10 166/3/10
f 170/2/10 168/4/10 166/3/10
s 1
f 169/1/16 163/1/13 171/1/17
f 165/1/14 167/1/15 172/1/18
f 171/1/17 172/1/18 167/1/15
f 167/1/15 169/1/16 171/1/17
f 163/1/13 165/1/14 171/1/17
f 171/1/17 165/1/14 172/1/18
# 54 triangles in group

# 300 triangles total

