# Wavefront OBJ exported by MilkShape 3D

mtllib parking.mtl

v -0.319627 -0.000314 2.344157
v -0.132127 -0.000314 2.337213
v -0.319627 -0.000314 3.066378
v -0.139071 -0.000314 2.677490
v -0.111293 -0.000314 2.830267
v -0.111293 -0.000314 2.934433
v 0.055373 -0.000314 2.948322
v 0.173429 -0.000314 3.073322
v 0.124818 -0.000314 2.878878
v 0.326207 -0.000314 2.962212
v 0.055373 -0.000314 2.816379
v 0.312318 -0.000314 2.781656
v 0.166484 -0.000314 2.677490
v -0.319597 0.000167 3.066378
v -0.132097 0.000167 2.337213
v -0.319597 0.000167 2.344157
v -0.139041 0.000167 2.677490
v -0.111264 0.000167 2.830267
v -0.111264 0.000167 2.934433
v 0.055403 0.000167 2.948322
v 0.173459 0.000167 3.073322
v 0.124848 0.000167 2.878878
v 0.326237 0.000167 2.962212
v 0.312348 0.000167 2.781656
v 0.055403 0.000167 2.816379
v 0.166514 0.000167 2.677490
v 0.057288 -0.000314 0.082839
v 0.057288 -0.000314 2.259923
v 0.016501 -0.056453 0.082839
v 0.016501 -0.056453 2.259923
v -0.049494 -0.035010 0.082839
v -0.049494 -0.035010 2.259923
v -0.049494 0.034381 0.082839
v -0.049494 0.034381 2.259923
v 0.016501 0.055825 0.082839
v 0.016501 0.055825 2.259923
v 0.000021 -0.000314 2.248039
v -0.001740 -0.000314 0.082839
v 0.404347 -0.000314 0.012746
v 0.404347 -0.000314 0.082191
v 0.117237 -0.395487 0.012746
v 0.117237 -0.395487 0.082191
v -0.347317 -0.244545 0.012746
v -0.347317 -0.244545 0.082191
v -0.347317 0.243916 0.012746
v -0.347317 0.243916 0.082191
v 0.117237 0.394859 0.012746
v 0.117237 0.394859 0.082191
v -0.011163 -0.000314 0.082191
v -0.011163 -0.000314 0.012746
v -0.479349 -0.000314 2.226101
v 0.513707 -0.000314 2.226101
v -0.319627 -0.000314 2.344157
v -0.486293 -0.000314 3.226101
v -0.319627 -0.000314 3.066378
v -0.132127 -0.000314 2.337213
v -0.139071 -0.000314 2.677490
v 0.166484 -0.000314 2.677490
v 0.312318 -0.000314 2.781656
v 0.520651 -0.000314 3.212211
v 0.326207 -0.000314 2.962212
v 0.173429 -0.000314 3.073322
v -0.319597 0.000167 2.344157
v 0.513736 0.000167 2.226101
v -0.479319 0.000167 2.226101
v -0.486263 0.000167 3.226101
v -0.319597 0.000167 3.066378
v -0.132097 0.000167 2.337213
v -0.139041 0.000167 2.677490
v 0.166514 0.000167 2.677490
v 0.312348 0.000167 2.781656
v 0.520681 0.000167 3.212211
v 0.326237 0.000167 2.962212
v 0.173459 0.000167 3.073322
v -0.111293 -0.000314 2.830267
v 0.055373 -0.000314 2.816379
v -0.008106 0.000568 2.887929
v 0.124818 -0.000314 2.878878
v 0.055373 -0.000314 2.948322
v -0.111293 -0.000314 2.934433
v -0.006578 0.001535 2.887933
v 0.056902 0.000653 2.816382
v -0.109765 0.000653 2.830271
v 0.126346 0.000653 2.878881
v 0.056902 0.000653 2.948326
v -0.109765 0.000653 2.934438
# 86 vertices

vt 0.000000 1.000000
vt 0.000000 0.000000
vt 0.200000 0.000000
vt 0.200000 1.000000
vt 0.400000 1.000000
vt 0.400000 0.000000
vt 0.600000 0.000000
vt 0.600000 1.000000
vt 0.800000 1.000000
vt 0.800000 0.000000
vt 1.000000 0.000000
vt 1.000000 1.000000
# 12 texture coordinates

vn 0.000000 -1.000000 0.000000
vn 0.000000 1.000000 0.000000
vn 0.000000 0.000000 -1.000000
vn -0.203185 0.000000 0.979140
vn -0.004323 0.000000 0.999991
vn -0.064251 0.188580 0.979954
vn 0.971904 0.235377 0.000000
vn 0.971904 -0.235377 0.000000
vn 0.309016 -0.951057 0.000000
vn 0.155105 0.114725 0.981214
vn -0.809017 -0.587785 0.000000
vn 0.155105 -0.114725 0.981214
vn -0.809017 0.587785 0.000000
vn -0.064251 -0.188580 0.979954
vn 0.309016 0.951057 0.000000
vn 0.000000 0.000000 1.000000
vn 0.004829 -0.999966 0.006656
vn -0.002530 -0.999946 0.010083
vn -0.006645 -0.999978 -0.000133
vn -0.002894 -0.999929 -0.011564
vn 0.004941 -0.999956 -0.008004
vn 0.002530 0.999946 -0.010083
vn -0.004829 0.999966 -0.006656
vn 0.006645 0.999978 0.000133
vn 0.002894 0.999929 0.011564
vn -0.004941 0.999956 0.008004
# 26 normals

g p
usemtl p
s 1
f 1/1/1 2/1/1 3/1/1
f 2/1/1 4/1/1 3/1/1
f 4/1/1 5/1/1 3/1/1
f 5/1/1 6/1/1 3/1/1
f 3/1/1 6/1/1 7/1/1
f 7/1/1 8/1/1 3/1/1
f 7/1/1 9/1/1 8/1/1
f 9/1/1 10/1/1 8/1/1
f 9/1/1 11/1/1 12/1/1
f 12/1/1 10/1/1 9/1/1
f 13/1/1 12/1/1 11/1/1
f 11/1/1 4/1/1 13/1/1
f 11/1/1 5/1/1 4/1/1
f 1/1/1 2/1/1 3/1/1
f 1/1/1 2/1/1 3/1/1
f 1/1/1 3/1/1 2/1/1
f 14/1/2 15/1/2 16/1/2
f 14/1/2 17/1/2 15/1/2
f 14/1/2 18/1/2 17/1/2
f 14/1/2 19/1/2 18/1/2
f 20/1/2 19/1/2 14/1/2
f 14/1/2 21/1/2 20/1/2
f 21/1/2 22/1/2 20/1/2
f 21/1/2 23/1/2 22/1/2
f 24/1/2 25/1/2 22/1/2
f 22/1/2 23/1/2 24/1/2
f 25/1/2 24/1/2 26/1/2
f 26/1/2 17/1/2 25/1/2
f 17/1/2 18/1/2 25/1/2
f 14/1/2 15/1/2 16/1/2
f 14/1/2 15/1/2 16/1/2
f 16/1/2 14/1/2 15/1/2
# 32 triangles in group

g palik
usemtl palik
s 2
f 27/1/3 29/1/3 38/1/3
f 28/1/4 37/1/5 30/1/6
s 1
f 27/2/7 28/1/8 29/3/9
f 28/1/8 30/4/9 29/3/9
s 2
f 29/1/3 31/1/3 38/1/3
f 30/1/6 37/1/5 32/1/10
s 1
f 29/3/9 30/4/9 32/5/11
f 29/3/9 32/5/11 31/6/11
s 2
f 31/1/3 33/1/3 38/1/3
f 32/1/10 37/1/5 34/1/12
s 1
f 31/6/11 32/5/11 33/7/13
f 32/5/11 34/8/13 33/7/13
s 2
f 33/1/3 35/1/3 38/1/3
f 34/1/12 37/1/5 36/1/14
s 1
f 33/7/13 34/8/13 36/9/15
f 33/7/13 36/9/15 35/10/15
s 2
f 35/1/3 27/1/3 38/1/3
f 36/1/14 37/1/5 28/1/4
s 1
f 35/10/15 36/9/15 27/11/7
f 36/9/15 28/12/8 27/11/7
# 20 triangles in group

g podstawa
usemtl palik
s 2
f 39/1/3 41/1/3 50/1/3
f 40/1/16 49/1/16 42/1/16
s 1
f 39/2/7 40/1/8 41/3/9
f 40/1/8 42/4/9 41/3/9
s 2
f 41/1/3 43/1/3 50/1/3
f 42/1/16 49/1/16 44/1/16
s 1
f 41/3/9 42/4/9 44/5/11
f 41/3/9 44/5/11 43/6/11
s 2
f 43/1/3 45/1/3 50/1/3
f 44/1/16 49/1/16 46/1/16
s 1
f 43/6/11 44/5/11 45/7/13
f 44/5/11 46/8/13 45/7/13
s 2
f 45/1/3 47/1/3 50/1/3
f 46/1/16 49/1/16 48/1/16
s 1
f 45/7/13 46/8/13 48/9/15
f 45/7/13 48/9/15 47/10/15
s 2
f 47/1/3 39/1/3 50/1/3
f 48/1/16 49/1/16 40/1/16
s 1
f 47/10/15 48/9/15 39/11/7
f 48/9/15 40/12/8 39/11/7
# 20 triangles in group

g bok
usemtl bok
f 51/1/1 52/1/1 53/1/1
f 51/1/1 53/1/1 54/1/1
f 53/1/1 55/1/1 54/1/1
f 52/1/1 56/1/1 53/1/1
f 52/1/1 57/1/1 56/1/1
f 52/1/1 58/1/1 57/1/1
f 52/1/1 59/1/1 58/1/1
f 60/1/1 59/1/1 52/1/1
f 60/1/1 61/1/1 59/1/1
f 60/1/1 62/1/1 61/1/1
f 60/1/1 54/1/1 62/1/1
f 55/1/1 62/1/1 54/1/1
f 63/1/2 64/1/2 65/1/2
f 66/1/2 63/1/2 65/1/2
f 66/1/2 67/1/2 63/1/2
f 63/1/2 68/1/2 64/1/2
f 68/1/2 69/1/2 64/1/2
f 69/1/2 70/1/2 64/1/2
f 70/1/2 71/1/2 64/1/2
f 64/1/2 71/1/2 72/1/2
f 71/1/2 73/1/2 72/1/2
f 73/1/2 74/1/2 72/1/2
f 74/1/2 66/1/2 72/1/2
f 66/1/2 74/1/2 67/1/2
f 75/1/17 76/1/18 77/1/1
f 76/1/18 78/1/19 77/1/1
f 78/1/19 79/1/20 77/1/1
f 79/1/20 80/1/21 77/1/1
f 80/1/21 75/1/17 77/1/1
f 81/1/2 82/1/22 83/1/23
f 81/1/2 84/1/24 82/1/22
f 81/1/2 85/1/25 84/1/24
f 81/1/2 86/1/26 85/1/25
f 81/1/2 83/1/23 86/1/26
# 34 triangles in group

# 106 triangles total

