0
SECTION
2
HEADER
9
$ACADVER
1
AC1008
9
$UCSORG
10
0.0
20
0.0
30
0.0
9
$UCSXDIR
10
1.0
20
0.0
30
0.0
9
$TILEMODE
70
1
9
$UCSYDIR
10
0.0
20
1.0
30
0.0
9
$EXTMIN
10
24.454233
20
8.809674
30
525.163330
9
$EXTMAX
10
26.620790
20
11.070369
30
527.378113
0
ENDSEC
0
SECTION
2
TABLES
0
TABLE
2
LTYPE
70
1
0
LTYPE
2
CONTINUOUS
70
64
3
Solid line
72
65
73
0
40
0.0
0
ENDTAB
0
TABLE
2
LAYER
70
1
0
ENDTAB
0
TABLE
2
STYLE
70
1
0
STYLE
2
STANDARD
70
0
40
0.0
41
1.0
50
0.0
71
0
42
0.2
3
txt
4

0
ENDTAB
0
TABLE
2
UCS
70
0
0
ENDTAB
0
ENDSEC
0
SECTION
2
ENTITIES
0
POLYLINE
8

66
1
70
64
71
1599
72
1535
62
14
0
VERTEX
8

10
25.744089
20
10.068774
30
525.163330
70
192
0
VERTEX
8

10
25.795832
20
9.967612
30
525.163330
70
192
0
VERTEX
8

10
25.717691
20
9.851089
30
525.163330
70
192
0
VERTEX
8

10
25.634516
20
9.749769
30
525.163330
70
192
0
VERTEX
8

10
25.496950
20
9.746414
30
525.163330
70
192
0
VERTEX
8

10
25.361528
20
9.804173
30
525.163330
70
192
0
VERTEX
8

10
25.447199
20
9.910394
30
525.163330
70
192
0
VERTEX
8

10
25.485529
20
10.018874
30
525.163330
70
192
0
VERTEX
8

10
25.621553
20
10.084231
30
525.163330
70
192
0
VERTEX
8

10
25.704599
20
10.025783
30
525.398438
70
192
0
VERTEX
8

10
25.743196
20
9.951613
30
525.398438
70
192
0
VERTEX
8

10
25.654230
20
9.881871
30
525.398438
70
192
0
VERTEX
8

10
25.622843
20
9.791059
30
525.398438
70
192
0
VERTEX
8

10
25.520182
20
9.786155
30
525.398438
70
192
0
VERTEX
8

10
25.434137
20
9.825991
30
525.398438
70
192
0
VERTEX
8

10
25.465723
20
9.911891
30
525.398438
70
192
0
VERTEX
8

10
25.511675
20
9.992301
30
525.398438
70
192
0
VERTEX
8

10
25.613176
20
10.016931
30
525.387329
70
192
0
VERTEX
8

10
25.678553
20
9.976089
30
525.622314
70
192
0
VERTEX
8

10
25.708467
20
9.941516
30
525.633423
70
192
0
VERTEX
8

10
25.635485
20
9.883628
30
525.633423
70
192
0
VERTEX
8

10
25.615160
20
9.818002
30
525.633423
70
192
0
VERTEX
8

10
25.535547
20
9.812966
30
525.633423
70
192
0
VERTEX
8

10
25.481882
20
9.850566
30
525.633423
70
192
0
VERTEX
8

10
25.506998
20
9.909593
30
525.633423
70
192
0
VERTEX
8

10
25.528955
20
9.974322
30
525.633423
70
192
0
VERTEX
8

10
25.607637
20
10.009763
30
525.633423
70
192
0
VERTEX
8

10
25.649271
20
9.946124
30
526.641602
70
192
0
VERTEX
8

10
25.668665
20
9.930926
30
526.646118
70
192
0
VERTEX
8

10
25.617083
20
9.896197
30
526.646118
70
192
0
VERTEX
8

10
25.608118
20
9.850795
30
526.646118
70
192
0
VERTEX
8

10
25.556475
20
9.847529
30
526.646118
70
192
0
VERTEX
8

10
25.521662
20
9.871921
30
526.646118
70
192
0
VERTEX
8

10
25.543741
20
9.911149
30
526.646118
70
192
0
VERTEX
8

10
25.552179
20
9.952207
30
526.646118
70
192
0
VERTEX
8

10
25.603258
20
9.975200
30
526.646118
70
192
0
VERTEX
8

10
25.618296
20
9.918178
30
527.059021
70
192
0
VERTEX
8

10
25.626612
20
9.910131
30
527.070190
70
192
0
VERTEX
8

10
25.613016
20
9.892249
30
527.070190
70
192
0
VERTEX
8

10
25.600725
20
9.875848
30
527.070190
70
192
0
VERTEX
8

10
25.578615
20
9.874454
30
527.070190
70
192
0
VERTEX
8

10
25.563738
20
9.884887
30
527.070190
70
192
0
VERTEX
8

10
25.572725
20
9.901668
30
527.070190
70
192
0
VERTEX
8

10
25.576792
20
9.919234
30
527.070190
70
192
0
VERTEX
8

10
25.598650
20
9.929070
30
527.070190
70
192
0
VERTEX
8

10
25.410944
20
9.123560
30
526.571655
70
192
0
VERTEX
8

10
25.450548
20
9.088660
30
526.578491
70
192
0
VERTEX
8

10
25.459352
20
9.036204
30
526.488525
70
192
0
VERTEX
8

10
25.474108
20
9.041334
30
526.398987
70
192
0
VERTEX
8

10
25.415674
20
9.046001
30
526.471680
70
192
0
VERTEX
8

10
25.386171
20
9.080056
30
526.533752
70
192
0
VERTEX
8

10
25.449205
20
9.228737
30
526.962891
70
192
0
VERTEX
8

10
25.489977
20
9.195531
30
526.952759
70
192
0
VERTEX
8

10
25.487612
20
9.145604
30
526.858154
70
192
0
VERTEX
8

10
25.489016
20
9.153428
30
526.766113
70
192
0
VERTEX
8

10
25.442354
20
9.153792
30
526.858154
70
192
0
VERTEX
8

10
25.421274
20
9.185048
30
526.931702
70
192
0
VERTEX
8

10
25.404375
20
9.134983
30
526.178528
70
192
0
VERTEX
8

10
25.443544
20
9.099851
30
526.188110
70
192
0
VERTEX
8

10
25.454142
20
9.046942
30
526.099365
70
192
0
VERTEX
8

10
25.471033
20
9.051579
30
526.010742
70
192
0
VERTEX
8

10
25.410944
20
9.056956
30
526.079712
70
192
0
VERTEX
8

10
25.380213
20
9.091478
30
526.139648
70
192
0
VERTEX
8

10
25.424150
20
9.127140
30
525.974854
70
192
0
VERTEX
8

10
25.464922
20
9.093937
30
525.964783
70
192
0
VERTEX
8

10
25.462580
20
9.044009
30
525.870239
70
192
0
VERTEX
8

10
25.463999
20
9.051833
30
525.778137
70
192
0
VERTEX
8

10
25.417269
20
9.052198
30
525.870239
70
192
0
VERTEX
8

10
25.396212
20
9.083451
30
525.943726
70
192
0
VERTEX
8

10
25.434107
20
9.145112
30
526.342468
70
192
0
VERTEX
8

10
25.474871
20
9.111909
30
526.332397
70
192
0
VERTEX
8

10
25.472506
20
9.061982
30
526.237854
70
192
0
VERTEX
8

10
25.473917
20
9.069808
30
526.145752
70
192
0
VERTEX
8

10
25.427225
20
9.070170
30
526.237854
70
192
0
VERTEX
8

10
25.406137
20
9.101424
30
526.311279
70
192
0
VERTEX
8

10
25.469492
20
9.377942
30
527.111694
70
192
0
VERTEX
8

10
25.510263
20
9.344738
30
527.101563
70
192
0
VERTEX
8

10
25.507929
20
9.294811
30
527.007080
70
192
0
VERTEX
8

10
25.509340
20
9.302637
30
526.914978
70
192
0
VERTEX
8

10
25.462648
20
9.303000
30
527.007080
70
192
0
VERTEX
8

10
25.441591
20
9.334254
30
527.080566
70
192
0
VERTEX
8

10
25.420435
20
9.155766
30
525.725952
70
192
0
VERTEX
8

10
25.459322
20
9.120512
30
525.737122
70
192
0
VERTEX
8

10
25.470873
20
9.067346
30
525.649048
70
192
0
VERTEX
8

10
25.488955
20
9.071709
30
525.560913
70
192
0
VERTEX
8

10
25.427996
20
9.077477
30
525.627930
70
192
0
VERTEX
8

10
25.396662
20
9.112260
30
525.686523
70
192
0
VERTEX
8

10
25.386972
20
9.203099
30
526.756470
70
192
0
VERTEX
8

10
25.337847
20
9.185417
30
526.770691
70
192
0
VERTEX
8

10
25.309626
20
9.130483
30
526.695984
70
192
0
VERTEX
8

10
25.295862
20
9.130743
30
526.605652
70
192
0
VERTEX
8

10
25.353662
20
9.122520
30
526.678833
70
192
0
VERTEX
8

10
25.394327
20
9.150320
30
526.732117
70
192
0
VERTEX
8

10
25.395258
20
9.355260
30
527.111084
70
192
0
VERTEX
8

10
25.345308
20
9.337729
30
527.108154
70
192
0
VERTEX
8

10
25.328310
20
9.280759
30
527.028809
70
192
0
VERTEX
8

10
25.327929
20
9.278601
30
526.935913
70
192
0
VERTEX
8

10
25.373629
20
9.272570
30
527.028809
70
192
0
VERTEX
8

10
25.405626
20
9.301930
30
527.093750
70
192
0
VERTEX
8

10
25.371958
20
9.099766
30
525.506165
70
192
0
VERTEX
8

10
25.378359
20
9.093231
30
525.503540
70
192
0
VERTEX
8

10
25.380251
20
9.103646
30
525.508789
70
192
0
VERTEX
8

10
25.377146
20
9.129537
30
525.959351
70
192
0
VERTEX
8

10
25.384058
20
9.123392
30
525.966431
70
192
0
VERTEX
8

10
25.385752
20
9.132874
30
525.952271
70
192
0
VERTEX
8

10
25.391161
20
9.210073
30
526.673706
70
192
0
VERTEX
8

10
25.399355
20
9.204927
30
526.686951
70
192
0
VERTEX
8

10
25.400629
20
9.212029
30
526.660583
70
192
0
VERTEX
8

10
25.414492
20
9.339488
30
527.115723
70
192
0
VERTEX
8

10
25.423128
20
9.336046
30
527.130066
70
192
0
VERTEX
8

10
25.423769
20
9.339688
30
527.101440
70
192
0
VERTEX
8

10
25.448061
20
9.525338
30
527.224243
70
192
0
VERTEX
8

10
25.457109
20
9.523892
30
527.235840
70
192
0
VERTEX
8

10
25.457018
20
9.523524
30
527.212585
70
192
0
VERTEX
8

10
25.477335
20
9.686873
30
527.138855
70
192
0
VERTEX
8

10
25.486612
20
9.687430
30
527.146484
70
192
0
VERTEX
8

10
25.485811
20
9.683103
30
527.131042
70
192
0
VERTEX
8

10
25.496378
20
9.791727
30
526.977478
70
192
0
VERTEX
8

10
25.505785
20
9.793960
30
526.982056
70
192
0
VERTEX
8

10
25.504442
20
9.786334
30
526.972839
70
192
0
VERTEX
8

10
25.506998
20
9.849805
30
526.738403
70
192
0
VERTEX
8

10
25.516413
20
9.853147
30
526.741272
70
192
0
VERTEX
8

10
25.514612
20
9.843383
30
526.735413
70
192
0
VERTEX
8

10
25.510805
20
9.870471
30
526.578857
70
192
0
VERTEX
8

10
25.520121
20
9.874167
30
526.581055
70
192
0
VERTEX
8

10
25.518236
20
9.863753
30
526.576721
70
192
0
VERTEX
8

10
25.389498
20
9.169241
30
526.366394
70
192
0
VERTEX
8

10
25.340761
20
9.151490
30
526.383545
70
192
0
VERTEX
8

10
25.310717
20
9.096880
30
526.310059
70
192
0
VERTEX
8

10
25.294779
20
9.097535
30
526.220642
70
192
0
VERTEX
8

10
25.354296
20
9.088999
30
526.290039
70
192
0
VERTEX
8

10
25.396212
20
9.116572
30
526.341125
70
192
0
VERTEX
8

10
25.364283
20
9.147077
30
526.167053
70
192
0
VERTEX
8

10
25.314356
20
9.129545
30
526.164185
70
192
0
VERTEX
8

10
25.297335
20
9.072576
30
526.084778
70
192
0
VERTEX
8

10
25.296953
20
9.070418
30
525.991882
70
192
0
VERTEX
8

10
25.342646
20
9.064386
30
526.084778
70
192
0
VERTEX
8

10
25.374681
20
9.093748
30
526.149658
70
192
0
VERTEX
8

10
25.368349
20
9.206468
30
526.523682
70
192
0
VERTEX
8

10
25.318399
20
9.188938
30
526.520752
70
192
0
VERTEX
8

10
25.301432
20
9.131967
30
526.441406
70
192
0
VERTEX
8

10
25.301050
20
9.129808
30
526.348511
70
192
0
VERTEX
8

10
25.346682
20
9.123778
30
526.441406
70
192
0
VERTEX
8

10
25.378740
20
9.153140
30
526.506287
70
192
0
VERTEX
8

10
25.430971
20
9.515819
30
527.216003
70
192
0
VERTEX
8

10
25.381014
20
9.498287
30
527.213074
70
192
0
VERTEX
8

10
25.364023
20
9.441317
30
527.133728
70
192
0
VERTEX
8

10
25.363642
20
9.439158
30
527.040771
70
192
0
VERTEX
8

10
25.409342
20
9.433128
30
527.133728
70
192
0
VERTEX
8

10
25.441339
20
9.462488
30
527.198608
70
192
0
VERTEX
8

10
25.372919
20
9.145519
30
525.914307
70
192
0
VERTEX
8

10
25.324404
20
9.127724
30
525.932983
70
192
0
VERTEX
8

10
25.293398
20
9.073292
30
525.860107
70
192
0
VERTEX
8

10
25.276285
20
9.074162
30
525.771301
70
192
0
VERTEX
8

10
25.336695
20
9.065460
30
525.838623
70
192
0
VERTEX
8

10
25.379320
20
9.092910
30
525.888428
70
192
0
VERTEX
8

10
25.696695
20
9.118089
30
526.571655
70
192
0
VERTEX
8

10
25.745852
20
9.098838
30
526.578491
70
192
0
VERTEX
8

10
25.772089
20
9.052559
30
526.488525
70
192
0
VERTEX
8

10
25.784182
20
9.062420
30
526.398987
70
192
0
VERTEX
8

10
25.727671
20
9.046820
30
526.471680
70
192
0
VERTEX
8

10
25.688311
20
9.068740
30
526.533752
70
192
0
VERTEX
8

10
25.696695
20
9.230010
30
526.962891
70
192
0
VERTEX
8

10
25.746363
20
9.212749
30
526.952759
70
192
0
VERTEX
8

10
25.761209
20
9.165030
30
526.858154
70
192
0
VERTEX
8

10
25.759867
20
9.172866
30
526.766113
70
192
0
VERTEX
8

10
25.715860
20
9.157236
30
526.858154
70
192
0
VERTEX
8

10
25.685366
20
9.179398
30
526.931702
70
192
0
VERTEX
8

10
25.686655
20
9.126576
30
526.178528
70
192
0
VERTEX
8

10
25.735453
20
9.106956
30
526.188110
70
192
0
VERTEX
8

10
25.763514
20
9.060858
30
526.099365
70
192
0
VERTEX
8

10
25.777781
20
9.070996
30
526.010742
70
192
0
VERTEX
8

10
25.719484
20
9.055494
30
526.079712
70
192
0
VERTEX
8

10
25.678843
20
9.077437
30
526.139648
70
192
0
VERTEX
8

10
25.707895
20
9.125970
30
525.974854
70
192
0
VERTEX
8

10
25.757555
20
9.108708
30
525.964783
70
192
0
VERTEX
8

10
25.772409
20
9.060991
30
525.870239
70
192
0
VERTEX
8

10
25.771059
20
9.068826
30
525.778137
70
192
0
VERTEX
8

10
25.727098
20
9.053198
30
525.870239
70
192
0
VERTEX
8

10
25.696573
20
9.075360
30
525.943726
70
192
0
VERTEX
8

10
25.711100
20
9.146258
30
526.342468
70
192
0
VERTEX
8

10
25.760759
20
9.128996
30
526.332397
70
192
0
VERTEX
8

10
25.775606
20
9.081278
30
526.237854
70
192
0
VERTEX
8

10
25.774263
20
9.089113
30
526.145752
70
192
0
VERTEX
8

10
25.730265
20
9.073484
30
526.237854
70
192
0
VERTEX
8

10
25.699770
20
9.095646
30
526.311279
70
192
0
VERTEX
8

10
25.664759
20
9.377160
30
527.111694
70
192
0
VERTEX
8

10
25.714396
20
9.359900
30
527.101563
70
192
0
VERTEX
8

10
25.729273
20
9.312182
30
527.007080
70
192
0
VERTEX
8

10
25.727930
20
9.320016
30
526.914978
70
192
0
VERTEX
8

10
25.683893
20
9.304388
30
527.007080
70
192
0
VERTEX
8

10
25.653429
20
9.326550
30
527.080566
70
192
0
VERTEX
8

10
25.694613
20
9.151598
30
525.725952
70
192
0
VERTEX
8

10
25.743227
20
9.131770
30
525.737122
70
192
0
VERTEX
8

10
25.772257
20
9.085766
30
525.649048
70
192
0
VERTEX
8

10
25.787775
20
9.096048
30
525.560913
70
192
0
VERTEX
8

10
25.728510
20
9.080614
30
525.627930
70
192
0
VERTEX
8

10
25.687128
20
9.102577
30
525.686523
70
192
0
VERTEX
8

10
25.646967
20
9.184632
30
526.756470
70
192
0
VERTEX
8

10
25.606905
20
9.151222
30
526.770691
70
192
0
VERTEX
8

10
25.599161
20
9.089942
30
526.695984
70
192
0
VERTEX
8

10
25.586107
20
9.085481
30
526.605652
70
192
0
VERTEX
8

10
25.643259
20
9.097520
30
526.678833
70
192
0
VERTEX
8

10
25.671930
20
9.137550
30
526.732117
70
192
0
VERTEX
8

10
25.602716
20
9.330441
30
527.111084
70
192
0
VERTEX
8

10
25.561785
20
9.296890
30
527.108154
70
192
0
VERTEX
8

10
25.565302
20
9.237548
30
527.028809
70
192
0
VERTEX
8

10
25.565691
20
9.235386
30
526.935913
70
192
0
VERTEX
8

10
25.610682
20
9.245341
30
527.028809
70
192
0
VERTEX
8

10
25.630716
20
9.283888
30
527.093750
70
192
0
VERTEX
8

10
25.668215
20
9.082400
30
525.506165
70
192
0
VERTEX
8

10
25.676470
20
9.078447
30
525.503540
70
192
0
VERTEX
8

10
25.674677
20
9.088878
30
525.508789
70
192
0
VERTEX
8

10
25.662905
20
9.112141
30
525.959351
70
192
0
VERTEX
8

10
25.671480
20
9.108730
30
525.966431
70
192
0
VERTEX
8

10
25.669855
20
9.118226
30
525.952271
70
192
0
VERTEX
8

10
25.648508
20
9.192617
30
526.673706
70
192
0
VERTEX
8

10
25.657976
20
9.190580
30
526.686951
70
192
0
VERTEX
8

10
25.656755
20
9.197689
30
526.660583
70
192
0
VERTEX
8

10
25.626169
20
9.322205
30
527.115723
70
192
0
VERTEX
8

10
25.635485
20
9.321925
30
527.130066
70
192
0
VERTEX
8

10
25.634836
20
9.325570
30
527.101440
70
192
0
VERTEX
8

10
25.594172
20
9.508332
30
527.224243
70
192
0
VERTEX
8

10
25.603197
20
9.510070
30
527.235840
70
192
0
VERTEX
8

10
25.603228
20
9.509696
30
527.212585
70
192
0
VERTEX
8

10
25.566462
20
9.670137
30
527.138855
70
192
0
VERTEX
8

10
25.574968
20
9.673837
30
527.146484
70
192
0
VERTEX
8

10
25.575708
20
9.669498
30
527.131042
70
192
0
VERTEX
8

10
25.548471
20
9.775179
30
526.977478
70
192
0
VERTEX
8

10
25.556574
20
9.780503
30
526.982056
70
192
0
VERTEX
8

10
25.557886
20
9.772862
30
526.972839
70
192
0
VERTEX
8

10
25.538584
20
9.833388
30
526.738403
70
192
0
VERTEX
8

10
25.546259
20
9.839740
30
526.741272
70
192
0
VERTEX
8

10
25.547960
20
9.829961
30
526.735413
70
192
0
VERTEX
8

10
25.535097
20
9.854114
30
526.578857
70
192
0
VERTEX
8

10
25.542582
20
9.860765
30
526.581055
70
192
0
VERTEX
8

10
25.544374
20
9.850333
30
526.576721
70
192
0
VERTEX
8

10
25.660921
20
9.153674
30
526.366394
70
192
0
VERTEX
8

10
25.621210
20
9.120330
30
526.383545
70
192
0
VERTEX
8

10
25.611673
20
9.058742
30
526.310059
70
192
0
VERTEX
8

10
25.596476
20
9.053905
30
526.220642
70
192
0
VERTEX
8

10
25.655321
20
9.066242
30
526.290039
70
192
0
VERTEX
8

10
25.685305
20
9.106490
30
526.341125
70
192
0
VERTEX
8

10
25.644800
20
9.124227
30
526.167053
70
192
0
VERTEX
8

10
25.603891
20
9.090673
30
526.164185
70
192
0
VERTEX
8

10
25.607416
20
9.031330
30
526.084778
70
192
0
VERTEX
8

10
25.607798
20
9.029168
30
525.991882
70
192
0
VERTEX
8

10
25.652758
20
9.039123
30
526.084778
70
192
0
VERTEX
8

10
25.672823
20
9.077670
30
526.149658
70
192
0
VERTEX
8

10
25.628313
20
9.181424
30
526.523682
70
192
0
VERTEX
8

10
25.587381
20
9.147871
30
526.520752
70
192
0
VERTEX
8

10
25.590906
20
9.088527
30
526.441406
70
192
0
VERTEX
8

10
25.591288
20
9.086369
30
526.348511
70
192
0
VERTEX
8

10
25.636286
20
9.096322
30
526.441406
70
192
0
VERTEX
8

10
25.656313
20
9.134866
30
526.506287
70
192
0
VERTEX
8

10
25.581369
20
9.493535
30
527.216003
70
192
0
VERTEX
8

10
25.540407
20
9.459981
30
527.213074
70
192
0
VERTEX
8

10
25.543955
20
9.400639
30
527.133728
70
192
0
VERTEX
8

10
25.544313
20
9.398478
30
527.040771
70
192
0
VERTEX
8

10
25.589312
20
9.408433
30
527.133728
70
192
0
VERTEX
8

10
25.609369
20
9.446978
30
527.198608
70
192
0
VERTEX
8

10
25.653429
20
9.125710
30
525.914307
70
192
0
VERTEX
8

10
25.613977
20
9.092406
30
525.932983
70
192
0
VERTEX
8

10
25.603449
20
9.030648
30
525.860107
70
192
0
VERTEX
8

10
25.587061
20
9.025606
30
525.771301
70
192
0
VERTEX
8

10
25.646837
20
9.038101
30
525.838623
70
192
0
VERTEX
8

10
25.677462
20
9.078468
30
525.888428
70
192
0
VERTEX
8

10
26.236544
20
9.561246
30
526.571655
70
192
0
VERTEX
8

10
26.283289
20
9.585706
30
526.578491
70
192
0
VERTEX
8

10
26.335413
20
9.575134
30
526.488525
70
192
0
VERTEX
8

10
26.335924
20
9.590734
30
526.398987
70
192
0
VERTEX
8

10
26.310610
20
9.537846
30
526.471680
70
192
0
VERTEX
8

10
26.268251
20
9.522534
30
526.533752
70
192
0
VERTEX
8

10
26.152056
20
9.634658
30
526.962891
70
192
0
VERTEX
8

10
26.197626
20
9.660814
30
526.952759
70
192
0
VERTEX
8

10
26.243418
20
9.640728
30
526.858154
70
192
0
VERTEX
8

10
26.236597
20
9.644855
30
526.766113
70
192
0
VERTEX
8

10
26.219545
20
9.601387
30
526.858154
70
192
0
VERTEX
8

10
26.182802
20
9.592914
30
526.931702
70
192
0
VERTEX
8

10
26.223482
20
9.559206
30
526.178528
70
192
0
VERTEX
8

10
26.270327
20
9.583178
30
526.188110
70
192
0
VERTEX
8

10
26.323511
20
9.574098
30
526.099365
70
192
0
VERTEX
8

10
26.325235
20
9.591537
30
526.010742
70
192
0
VERTEX
8

10
26.298685
20
9.537355
30
526.079712
70
192
0
VERTEX
8

10
26.255480
20
9.521072
30
526.139648
70
192
0
VERTEX
8

10
26.237909
20
9.574862
30
525.974854
70
192
0
VERTEX
8

10
26.283510
20
9.601016
30
525.964783
70
192
0
VERTEX
8

10
26.329271
20
9.580932
30
525.870239
70
192
0
VERTEX
8

10
26.322489
20
9.585056
30
525.778137
70
192
0
VERTEX
8

10
26.305407
20
9.541591
30
525.870239
70
192
0
VERTEX
8

10
26.268663
20
9.533119
30
525.943726
70
192
0
VERTEX
8

10
26.224695
20
9.590574
30
526.342468
70
192
0
VERTEX
8

10
26.270296
20
9.616727
30
526.332397
70
192
0
VERTEX
8

10
26.316057
20
9.596644
30
526.237854
70
192
0
VERTEX
8

10
26.309244
20
9.600768
30
526.145752
70
192
0
VERTEX
8

10
26.292177
20
9.557302
30
526.237854
70
192
0
VERTEX
8

10
26.255480
20
9.548831
30
526.311279
70
192
0
VERTEX
8

10
26.020029
20
9.707083
30
527.111694
70
192
0
VERTEX
8

10
26.065630
20
9.733236
30
527.101563
70
192
0
VERTEX
8

10
26.111383
20
9.713151
30
527.007080
70
192
0
VERTEX
8

10
26.104601
20
9.717277
30
526.914978
70
192
0
VERTEX
8

10
26.087511
20
9.673810
30
527.007080
70
192
0
VERTEX
8

10
26.050806
20
9.665338
30
527.080566
70
192
0
VERTEX
8

10
26.209848
20
9.581644
30
525.725952
70
192
0
VERTEX
8

10
26.256701
20
9.605317
30
525.737122
70
192
0
VERTEX
8

10
26.310457
20
9.597052
30
525.649048
70
192
0
VERTEX
8

10
26.312891
20
9.615501
30
525.560913
70
192
0
VERTEX
8

10
26.285631
20
9.560641
30
525.627930
70
192
0
VERTEX
8

10
26.241945
20
9.543840
30
525.686523
70
192
0
VERTEX
8

10
26.153658
20
9.567366
30
526.756470
70
192
0
VERTEX
8

10
26.152575
20
9.515186
30
526.770691
70
192
0
VERTEX
8

10
26.193750
20
9.469141
30
526.695984
70
192
0
VERTEX
8

10
26.188570
20
9.456385
30
526.605652
70
192
0
VERTEX
8

10
26.216951
20
9.507398
30
526.678833
70
192
0
VERTEX
8

10
26.205561
20
9.555321
30
526.732117
70
192
0
VERTEX
8

10
26.014582
20
9.629616
30
527.111084
70
192
0
VERTEX
8

10
26.013048
20
9.576716
30
527.108154
70
192
0
VERTEX
8

10
26.060152
20
9.540444
30
527.028809
70
192
0
VERTEX
8

10
26.062006
20
9.539309
30
526.935913
70
192
0
VERTEX
8

10
26.084024
20
9.579786
30
527.028809
70
192
0
VERTEX
8

10
26.068087
20
9.620214
30
527.093750
70
192
0
VERTEX
8

10
26.244761
20
9.516335
30
525.506165
70
192
0
VERTEX
8

10
26.253176
20
9.519962
30
525.503540
70
192
0
VERTEX
8

10
26.244089
20
9.525455
30
525.508789
70
192
0
VERTEX
8

10
26.218805
20
9.531820
30
525.959351
70
192
0
VERTEX
8

10
26.227037
20
9.536074
30
525.966431
70
192
0
VERTEX
8

10
26.218805
20
9.541063
30
525.952271
70
192
0
VERTEX
8

10
26.148668
20
9.573772
30
526.673706
70
192
0
VERTEX
8

10
26.156412
20
9.579568
30
526.686951
70
192
0
VERTEX
8

10
26.150202
20
9.583299
30
526.660583
70
192
0
VERTEX
8

10
26.036211
20
9.641930
30
527.115723
70
192
0
VERTEX
8

10
26.042490
20
9.648759
30
527.130066
70
192
0
VERTEX
8

10
26.039354
20
9.650667
30
527.101440
70
192
0
VERTEX
8

10
25.874743
20
9.739881
30
527.224243
70
192
0
VERTEX
8

10
25.879320
20
9.747813
30
527.235840
70
192
0
VERTEX
8

10
25.879633
20
9.747609
30
527.212585
70
192
0
VERTEX
8

10
25.734400
20
9.825100
30
527.138855
70
192
0
VERTEX
8

10
25.737207
20
9.833970
30
527.146484
70
192
0
VERTEX
8

10
25.740984
20
9.831681
30
527.131042
70
192
0
VERTEX
8

10
25.643320
20
9.880450
30
526.977478
70
192
0
VERTEX
8

10
25.644632
20
9.890056
30
526.982056
70
192
0
VERTEX
8

10
25.651255
20
9.886031
30
526.972839
70
192
0
VERTEX
8

10
25.592951
20
9.911178
30
526.738403
70
192
0
VERTEX
8

10
25.593180
20
9.921145
30
526.741272
70
192
0
VERTEX
8

10
25.601656
20
9.915999
30
526.735413
70
192
0
VERTEX
8

10
25.575006
20
9.922149
30
526.578857
70
192
0
VERTEX
8

10
25.574907
20
9.932155
30
526.581055
70
192
0
VERTEX
8

10
25.583925
20
9.926661
30
526.576721
70
192
0
VERTEX
8

10
26.186167
20
9.557578
30
526.366394
70
192
0
VERTEX
8

10
26.185274
20
9.505728
30
526.383545
70
192
0
VERTEX
8

10
26.225527
20
9.458126
30
526.310059
70
192
0
VERTEX
8

10
26.219194
20
9.443477
30
526.220642
70
192
0
VERTEX
8

10
26.248507
20
9.495991
30
526.290039
70
192
0
VERTEX
8

10
26.237749
20
9.545010
30
526.341125
70
192
0
VERTEX
8

10
26.197817
20
9.526102
30
526.167053
70
192
0
VERTEX
8

10
26.196314
20
9.473203
30
526.164185
70
192
0
VERTEX
8

10
26.243380
20
9.436931
30
526.084778
70
192
0
VERTEX
8

10
26.245302
20
9.435795
30
525.991882
70
192
0
VERTEX
8

10
26.267260
20
9.476273
30
526.084778
70
192
0
VERTEX
8

10
26.251352
20
9.516701
30
526.149658
70
192
0
VERTEX
8

10
26.143862
20
9.551177
30
526.523682
70
192
0
VERTEX
8

10
26.142328
20
9.498277
30
526.520752
70
192
0
VERTEX
8

10
26.189432
20
9.462005
30
526.441406
70
192
0
VERTEX
8

10
26.191286
20
9.460869
30
526.348511
70
192
0
VERTEX
8

10
26.213312
20
9.501346
30
526.441406
70
192
0
VERTEX
8

10
26.197374
20
9.541774
30
526.506287
70
192
0
VERTEX
8

10
25.877497
20
9.720498
30
527.216003
70
192
0
VERTEX
8

10
25.875963
20
9.667598
30
527.213074
70
192
0
VERTEX
8

10
25.923067
20
9.631326
30
527.133728
70
192
0
VERTEX
8

10
25.924921
20
9.630189
30
527.040771
70
192
0
VERTEX
8

10
25.946939
20
9.670669
30
527.133728
70
192
0
VERTEX
8

10
25.931002
20
9.711096
30
527.198608
70
192
0
VERTEX
8

10
26.202356
20
9.533591
30
525.914307
70
192
0
VERTEX
8

10
26.201593
20
9.481951
30
525.932983
70
192
0
VERTEX
8

10
26.241343
20
9.433492
30
525.860107
70
192
0
VERTEX
8

10
26.234362
20
9.417802
30
525.771301
70
192
0
VERTEX
8

10
26.264154
20
9.471114
30
525.838623
70
192
0
VERTEX
8

10
26.253778
20
9.520723
30
525.888428
70
192
0
VERTEX
8

10
26.324602
20
10.258039
30
526.571655
70
192
0
VERTEX
8

10
26.330942
20
10.310439
30
526.578491
70
192
0
VERTEX
8

10
26.369204
20
10.347411
30
526.488525
70
192
0
VERTEX
8

10
26.356600
20
10.356654
30
526.398987
70
192
0
VERTEX
8

10
26.385851
20
10.305846
30
526.471680
70
192
0
VERTEX
8

10
26.374491
20
10.262269
30
526.533752
70
192
0
VERTEX
8

10
26.216249
20
10.229999
30
526.962891
70
192
0
VERTEX
8

10
26.220537
20
10.282397
30
526.952759
70
192
0
VERTEX
8

10
26.263033
20
10.308742
30
526.858154
70
192
0
VERTEX
8

10
26.255770
20
10.305476
30
526.766113
70
192
0
VERTEX
8

10
26.281916
20
10.266784
30
526.858154
70
192
0
VERTEX
8

10
26.268091
20
10.231715
30
526.931702
70
192
0
VERTEX
8

10
26.318911
20
10.246154
30
526.178528
70
192
0
VERTEX
8

10
26.325693
20
10.298327
30
526.188110
70
192
0
VERTEX
8

10
26.363321
20
10.337020
30
526.099365
70
192
0
VERTEX
8

10
26.349916
20
10.348319
30
526.010742
70
192
0
VERTEX
8

10
26.379511
20
10.295747
30
526.079712
70
192
0
VERTEX
8

10
26.368441
20
10.250896
30
526.139648
70
192
0
VERTEX
8

10
26.314165
20
10.266898
30
525.974854
70
192
0
VERTEX
8

10
26.318460
20
10.319297
30
525.964783
70
192
0
VERTEX
8

10
26.360949
20
10.345641
30
525.870239
70
192
0
VERTEX
8

10
26.353693
20
10.342376
30
525.778137
70
192
0
VERTEX
8

10
26.379831
20
10.303683
30
525.870239
70
192
0
VERTEX
8

10
26.366007
20
10.268617
30
525.943726
70
192
0
VERTEX
8

10
26.293756
20
10.264899
30
526.342468
70
192
0
VERTEX
8

10
26.298037
20
10.317298
30
526.332397
70
192
0
VERTEX
8

10
26.340509
20
10.343646
30
526.237854
70
192
0
VERTEX
8

10
26.333239
20
10.340379
30
526.145752
70
192
0
VERTEX
8

10
26.359415
20
10.301684
30
526.237854
70
192
0
VERTEX
8

10
26.345591
20
10.266620
30
526.311279
70
192
0
VERTEX
8

10
26.081781
20
10.162217
30
527.111694
70
192
0
VERTEX
8

10
26.086069
20
10.214618
30
527.101563
70
192
0
VERTEX
8

10
26.128572
20
10.240960
30
527.007080
70
192
0
VERTEX
8

10
26.121309
20
10.237695
30
526.914978
70
192
0
VERTEX
8

10
26.147448
20
10.199002
30
527.007080
70
192
0
VERTEX
8

10
26.133623
20
10.163934
30
527.080566
70
192
0
VERTEX
8

10
26.292696
20
10.247613
30
525.725952
70
192
0
VERTEX
8

10
26.299707
20
10.299636
30
525.737122
70
192
0
VERTEX
8

10
26.337015
20
10.339269
30
525.649048
70
192
0
VERTEX
8

10
26.323160
20
10.351707
30
525.560913
70
192
0
VERTEX
8

10
26.352953
20
10.298184
30
525.627930
70
192
0
VERTEX
8

10
26.342012
20
10.252648
30
525.686523
70
192
0
VERTEX
8

10
26.272638
20
10.193229
30
526.756470
70
192
0
VERTEX
8

10
26.315035
20
10.162772
30
526.770691
70
192
0
VERTEX
8

10
26.376314
20
10.170623
30
526.695984
70
192
0
VERTEX
8

10
26.383867
20
10.159131
30
526.605652
70
192
0
VERTEX
8

10
26.357912
20
10.211421
30
526.678833
70
192
0
VERTEX
8

10
26.311998
20
10.229182
30
526.732117
70
192
0
VERTEX
8

10
26.142580
20
10.113860
30
527.111084
70
192
0
VERTEX
8

10
26.185274
20
10.082635
30
527.108154
70
192
0
VERTEX
8

10
26.241854
20
10.100909
30
527.028809
70
192
0
VERTEX
8

10
26.243868
20
10.101810
30
526.935913
70
192
0
VERTEX
8

10
26.222971
20
10.142867
30
527.028809
70
192
0
VERTEX
8

10
26.180605
20
10.152635
30
527.093750
70
192
0
VERTEX
8

10
26.366297
20
10.239398
30
525.506165
70
192
0
VERTEX
8

10
26.368059
20
10.248366
30
525.503540
70
192
0
VERTEX
8

10
26.358393
20
10.244020
30
525.508789
70
192
0
VERTEX
8

10
26.338839
20
10.226787
30
525.959351
70
192
0
VERTEX
8

10
26.339991
20
10.235965
30
525.966431
70
192
0
VERTEX
8

10
26.331194
20
10.232003
30
525.952271
70
192
0
VERTEX
8

10
26.264513
20
10.192725
30
526.673706
70
192
0
VERTEX
8

10
26.264116
20
10.202384
30
526.686951
70
192
0
VERTEX
8

10
26.257555
20
10.199409
30
526.660583
70
192
0
VERTEX
8

10
26.144663
20
10.138652
30
527.115723
70
192
0
VERTEX
8

10
26.142580
20
10.147717
30
527.130066
70
192
0
VERTEX
8

10
26.139254
20
10.146186
30
527.101440
70
192
0
VERTEX
8

10
25.972467
20
10.061057
30
527.224243
70
192
0
VERTEX
8

10
25.968538
20
10.069337
30
527.235840
70
192
0
VERTEX
8

10
25.968889
20
10.069480
30
527.212585
70
192
0
VERTEX
8

10
25.822779
20
9.993688
30
527.138855
70
192
0
VERTEX
8

10
25.817057
20
10.001025
30
527.146484
70
192
0
VERTEX
8

10
25.821054
20
10.002826
30
527.131042
70
192
0
VERTEX
8

10
25.725557
20
9.949988
30
526.977478
70
192
0
VERTEX
8

10
25.718393
20
9.956496
30
526.982056
70
192
0
VERTEX
8

10
25.725458
20
9.959674
30
526.972839
70
192
0
VERTEX
8

10
25.671709
20
9.925845
30
526.738403
70
192
0
VERTEX
8

10
25.663607
20
9.931695
30
526.741272
70
192
0
VERTEX
8

10
25.672663
20
9.935767
30
526.735413
70
192
0
VERTEX
8

10
25.652506
20
9.917285
30
526.578857
70
192
0
VERTEX
8

10
25.644182
20
9.922854
30
526.581055
70
192
0
VERTEX
8

10
25.653818
20
9.927201
30
526.576721
70
192
0
VERTEX
8

10
26.299128
20
10.214473
30
526.366455
70
192
0
VERTEX
8

10
26.341372
20
10.184373
30
526.383545
70
192
0
VERTEX
8

10
26.403383
20
10.190558
30
526.310059
70
192
0
VERTEX
8

10
26.411837
20
10.177051
30
526.220642
70
192
0
VERTEX
8

10
26.385180
20
10.230943
30
526.290039
70
192
0
VERTEX
8

10
26.338717
20
10.249873
30
526.341125
70
192
0
VERTEX
8

10
26.331667
20
10.206256
30
526.167053
70
192
0
VERTEX
8

10
26.374399
20
10.175033
30
526.164185
70
192
0
VERTEX
8

10
26.430971
20
10.193305
30
526.084778
70
192
0
VERTEX
8

10
26.432955
20
10.194205
30
525.991882
70
192
0
VERTEX
8

10
26.412088
20
10.235263
30
526.084778
70
192
0
VERTEX
8

10
26.369722
20
10.245030
30
526.149658
70
192
0
VERTEX
8

10
26.280436
20
10.175963
30
526.523682
70
192
0
VERTEX
8

10
26.323160
20
10.144738
30
526.520752
70
192
0
VERTEX
8

10
26.379709
20
10.163011
30
526.441406
70
192
0
VERTEX
8

10
26.381723
20
10.163911
30
526.348511
70
192
0
VERTEX
8

10
26.360826
20
10.204970
30
526.441406
70
192
0
VERTEX
8

10
26.318491
20
10.214738
30
526.506287
70
192
0
VERTEX
8

10
25.990007
20
10.052352
30
527.216003
70
192
0
VERTEX
8

10
26.032755
20
10.021129
30
527.213074
70
192
0
VERTEX
8

10
26.089342
20
10.039401
30
527.133728
70
192
0
VERTEX
8

10
26.091318
20
10.040301
30
527.040771
70
192
0
VERTEX
8

10
26.070391
20
10.081359
30
527.133728
70
192
0
VERTEX
8

10
26.028086
20
10.091126
30
527.198608
70
192
0
VERTEX
8

10
26.328058
20
10.214244
30
525.914307
70
192
0
VERTEX
8

10
26.370203
20
10.184363
30
525.932983
70
192
0
VERTEX
8

10
26.432634
20
10.189637
30
525.860107
70
192
0
VERTEX
8

10
26.441591
20
10.175019
30
525.771301
70
192
0
VERTEX
8

10
26.414553
20
10.229762
30
525.838623
70
192
0
VERTEX
8

10
26.367800
20
10.249324
30
525.888428
70
192
0
VERTEX
8

10
25.622774
20
10.659320
30
526.571655
70
192
0
VERTEX
8

10
25.578615
20
10.688178
30
526.578491
70
192
0
VERTEX
8

10
25.562357
20
10.738828
30
526.488525
70
192
0
VERTEX
8

10
25.548510
20
10.731637
30
526.398987
70
192
0
VERTEX
8

10
25.606997
20
10.735404
30
526.471680
70
192
0
VERTEX
8

10
25.641085
20
10.705930
30
526.533752
70
192
0
VERTEX
8

10
25.599993
20
10.549745
30
526.962891
70
192
0
VERTEX
8

10
25.554941
20
10.576756
30
526.952759
70
192
0
VERTEX
8

10
25.550074
20
10.626506
30
526.858154
70
192
0
VERTEX
8

10
25.549814
20
10.618560
30
526.766113
70
192
0
VERTEX
8

10
25.596056
20
10.624900
30
526.858154
70
192
0
VERTEX
8

10
25.621401
20
10.596992
30
526.931702
70
192
0
VERTEX
8

10
25.630938
20
10.648961
30
526.178528
70
192
0
VERTEX
8

10
25.587130
20
10.678111
30
526.188110
70
192
0
VERTEX
8

10
25.569086
20
10.728951
30
526.099365
70
192
0
VERTEX
8

10
25.553019
20
10.721938
30
526.010742
70
192
0
VERTEX
8

10
25.613237
20
10.725242
30
526.079712
70
192
0
VERTEX
8

10
25.648569
20
10.695479
30
526.139648
70
192
0
VERTEX
8

10
25.610231
20
10.653884
30
525.974854
70
192
0
VERTEX
8

10
25.565119
20
10.680896
30
525.964783
70
192
0
VERTEX
8

10
25.560282
20
10.730643
30
525.870239
70
192
0
VERTEX
8

10
25.559992
20
10.722697
30
525.778137
70
192
0
VERTEX
8

10
25.606264
20
10.729037
30
525.870239
70
192
0
VERTEX
8

10
25.631609
20
10.701129
30
525.943726
70
192
0
VERTEX
8

10
25.602999
20
10.634673
30
526.342468
70
192
0
VERTEX
8

10
25.557886
20
10.661681
30
526.332397
70
192
0
VERTEX
8

10
25.553019
20
10.711431
30
526.237854
70
192
0
VERTEX
8

10
25.552759
20
10.703486
30
526.145752
70
192
0
VERTEX
8

10
25.599031
20
10.709823
30
526.237854
70
192
0
VERTEX
8

10
25.624376
20
10.681918
30
526.311279
70
192
0
VERTEX
8

10
25.601343
20
10.399165
30
527.111694
70
192
0
VERTEX
8

10
25.556215
20
10.426181
30
527.101563
70
192
0
VERTEX
8

10
25.551386
20
10.475928
30
527.007080
70
192
0
VERTEX
8

10
25.551096
20
10.467982
30
526.914978
70
192
0
VERTEX
8

10
25.597368
20
10.474322
30
527.007080
70
192
0
VERTEX
8

10
25.622713
20
10.446418
30
527.080566
70
192
0
VERTEX
8

10
25.618036
20
10.626090
30
525.725952
70
192
0
VERTEX
8

10
25.574457
20
10.655398
30
525.737122
70
192
0
VERTEX
8

10
25.555414
20
10.706351
30
525.649048
70
192
0
VERTEX
8

10
25.538141
20
10.699443
30
525.560913
70
192
0
VERTEX
8

10
25.599291
20
10.702483
30
525.627930
70
192
0
VERTEX
8

10
25.635317
20
10.672559
30
525.686523
70
192
0
VERTEX
8

10
25.657915
20
10.584046
30
526.756470
70
192
0
VERTEX
8

10
25.703997
20
10.608592
30
526.770691
70
192
0
VERTEX
8

10
25.724024
20
10.667010
30
526.695984
70
192
0
VERTEX
8

10
25.737726
20
10.668727
30
526.605652
70
192
0
VERTEX
8

10
25.679316
20
10.668571
30
526.678833
70
192
0
VERTEX
8

10
25.643061
20
10.635224
30
526.732117
70
192
0
VERTEX
8

10
25.671572
20
10.432277
30
527.111084
70
192
0
VERTEX
8

10
25.718493
20
10.456788
30
527.108154
70
192
0
VERTEX
8

10
25.727098
20
10.515609
30
527.028809
70
192
0
VERTEX
8

10
25.727198
20
10.517798
30
526.935913
70
192
0
VERTEX
8

10
25.681147
20
10.517213
30
527.028809
70
192
0
VERTEX
8

10
25.653627
20
10.483560
30
527.093750
70
192
0
VERTEX
8

10
25.657946
20
10.688464
30
525.506165
70
192
0
VERTEX
8

10
25.650682
20
10.694013
30
525.503540
70
192
0
VERTEX
8

10
25.650293
20
10.683434
30
525.508789
70
192
0
VERTEX
8

10
25.657114
20
10.658259
30
525.959351
70
192
0
VERTEX
8

10
25.649401
20
10.663348
30
525.966431
70
192
0
VERTEX
8

10
25.649088
20
10.653720
30
525.952271
70
192
0
VERTEX
8

10
25.654779
20
10.576545
30
526.673706
70
192
0
VERTEX
8

10
25.645945
20
10.580462
30
526.686951
70
192
0
VERTEX
8

10
25.645723
20
10.573249
30
526.660583
70
192
0
VERTEX
8

10
25.650293
20
10.445123
30
527.115723
70
192
0
VERTEX
8

10
25.641207
20
10.447288
30
527.130066
70
192
0
VERTEX
8

10
25.641115
20
10.443589
30
527.101440
70
192
0
VERTEX
8

10
25.643709
20
10.256375
30
527.224243
70
192
0
VERTEX
8

10
25.634554
20
10.256507
30
527.235840
70
192
0
VERTEX
8

10
25.634554
20
10.256885
30
527.212585
70
192
0
VERTEX
8

10
25.637911
20
10.092311
30
527.138855
70
192
0
VERTEX
8

10
25.628794
20
10.090430
30
527.146484
70
192
0
VERTEX
8

10
25.628984
20
10.094827
30
527.131042
70
192
0
VERTEX
8

10
25.634111
20
9.985812
30
526.977478
70
192
0
VERTEX
8

10
25.625116
20
9.982249
30
526.982056
70
192
0
VERTEX
8

10
25.625406
20
9.989995
30
526.972839
70
192
0
VERTEX
8

10
25.631929
20
9.926812
30
526.738403
70
192
0
VERTEX
8

10
25.623125
20
9.922156
30
526.741272
70
192
0
VERTEX
8

10
25.623484
20
9.932075
30
526.735413
70
192
0
VERTEX
8

10
25.631128
20
9.905810
30
526.578857
70
192
0
VERTEX
8

10
25.622461
20
9.900821
30
526.581055
70
192
0
VERTEX
8

10
25.622843
20
9.911395
30
526.576721
70
192
0
VERTEX
8

10
25.650583
20
10.617192
30
526.366455
70
192
0
VERTEX
8

10
25.696253
20
10.641753
30
526.383545
70
192
0
VERTEX
8

10
25.718134
20
10.700107
30
526.310059
70
192
0
VERTEX
8

10
25.734003
20
10.701747
30
526.220642
70
192
0
VERTEX
8

10
25.673883
20
10.701655
30
526.290039
70
192
0
VERTEX
8

10
25.636347
20
10.668349
30
526.341125
70
192
0
VERTEX
8

10
25.672373
20
10.642745
30
526.167053
70
192
0
VERTEX
8

10
25.719255
20
10.667262
30
526.164185
70
192
0
VERTEX
8

10
25.727861
20
10.726079
30
526.084778
70
192
0
VERTEX
8

10
25.727961
20
10.728271
30
525.991882
70
192
0
VERTEX
8

10
25.681910
20
10.727687
30
526.084778
70
192
0
VERTEX
8

10
25.654398
20
10.694030
30
526.149658
70
192
0
VERTEX
8

10
25.676859
20
10.583388
30
526.523682
70
192
0
VERTEX
8

10
25.723772
20
10.607902
30
526.520752
70
192
0
VERTEX
8

10
25.732409
20
10.666718
30
526.441406
70
192
0
VERTEX
8

10
25.732470
20
10.668910
30
526.348511
70
192
0
VERTEX
8

10
25.686396
20
10.668326
30
526.441406
70
192
0
VERTEX
8

10
25.658937
20
10.634673
30
526.506287
70
192
0
VERTEX
8

10
25.659258
20
10.268256
30
527.216003
70
192
0
VERTEX
8

10
25.706171
20
10.292768
30
527.213074
70
192
0
VERTEX
8

10
25.714808
20
10.351586
30
527.133728
70
192
0
VERTEX
8

10
25.714869
20
10.353778
30
527.040771
70
192
0
VERTEX
8

10
25.668825
20
10.353190
30
527.133728
70
192
0
VERTEX
8

10
25.641344
20
10.319537
30
527.198608
70
192
0
VERTEX
8

10
25.663607
20
10.643054
30
525.914307
70
192
0
VERTEX
8

10
25.709047
20
10.667621
30
525.932983
70
192
0
VERTEX
8

10
25.731897
20
10.725940
30
525.860107
70
192
0
VERTEX
8

10
25.748980
20
10.727534
30
525.771301
70
192
0
VERTEX
8

10
25.687929
20
10.727473
30
525.838623
70
192
0
VERTEX
8

10
25.649721
20
10.694198
30
525.888428
70
192
0
VERTEX
8

10
24.978296
20
10.503837
30
526.571655
70
192
0
VERTEX
8

10
24.927485
20
10.489635
30
526.578491
70
192
0
VERTEX
8

10
24.878687
20
10.510818
30
526.488525
70
192
0
VERTEX
8

10
24.874941
20
10.495660
30
526.398987
70
192
0
VERTEX
8

10
24.910715
20
10.542132
30
526.471680
70
192
0
VERTEX
8

10
24.955317
20
10.548303
30
526.533752
70
192
0
VERTEX
8

10
25.045694
20
10.414464
30
526.962891
70
192
0
VERTEX
8

10
24.995638
20
10.398364
30
526.952759
70
192
0
VERTEX
8

10
24.955034
20
10.427524
30
526.858154
70
192
0
VERTEX
8

10
24.960825
20
10.422080
30
526.766113
70
192
0
VERTEX
8

10
24.986551
20
10.461045
30
526.858154
70
192
0
VERTEX
8

10
25.024248
20
10.461696
30
526.931702
70
192
0
VERTEX
8

10
24.991480
20
10.503127
30
526.178528
70
192
0
VERTEX
8

10
24.940660
20
10.489417
30
526.188110
70
192
0
VERTEX
8

10
24.890551
20
10.509356
30
526.099365
70
192
0
VERTEX
8

10
24.885241
20
10.492660
30
526.010742
70
192
0
VERTEX
8

10
24.922457
20
10.540130
30
526.079712
70
192
0
VERTEX
8

10
24.968119
20
10.547072
30
526.139648
70
192
0
VERTEX
8

10
24.974138
20
10.490809
30
525.974854
70
192
0
VERTEX
8

10
24.924089
20
10.474710
30
525.964783
70
192
0
VERTEX
8

10
24.883486
20
10.503871
30
525.870239
70
192
0
VERTEX
8

10
24.889269
20
10.498420
30
525.778137
70
192
0
VERTEX
8

10
24.915003
20
10.537389
30
525.870239
70
192
0
VERTEX
8

10
24.952692
20
10.538039
30
525.943726
70
192
0
VERTEX
8

10
24.983805
20
10.472692
30
526.342468
70
192
0
VERTEX
8

10
24.933756
20
10.456592
30
526.332397
70
192
0
VERTEX
8

10
24.893145
20
10.485753
30
526.237854
70
192
0
VERTEX
8

10
24.898935
20
10.480304
30
526.145752
70
192
0
VERTEX
8

10
24.924669
20
10.519271
30
526.237854
70
192
0
VERTEX
8

10
24.962358
20
10.519921
30
526.311279
70
192
0
VERTEX
8

10
25.159739
20
10.316176
30
527.111694
70
192
0
VERTEX
8

10
25.109690
20
10.300076
30
527.101563
70
192
0
VERTEX
8

10
25.069117
20
10.329238
30
527.007080
70
192
0
VERTEX
8

10
25.074907
20
10.323789
30
526.914978
70
192
0
VERTEX
8

10
25.100664
20
10.362754
30
527.007080
70
192
0
VERTEX
8

10
25.138330
20
10.363406
30
527.080566
70
192
0
VERTEX
8

10
25.000147
20
10.478343
30
525.725952
70
192
0
VERTEX
8

10
24.949404
20
10.464923
30
525.737122
70
192
0
VERTEX
8

10
24.898516
20
10.484191
30
525.649048
70
192
0
VERTEX
8

10
24.892344
20
10.466647
30
525.560913
70
192
0
VERTEX
8

10
24.930361
20
10.514644
30
525.627930
70
192
0
VERTEX
8

10
24.976633
20
10.521991
30
525.686523
70
192
0
VERTEX
8

10
25.058069
20
10.480628
30
526.756470
70
192
0
VERTEX
8

10
25.070009
20
10.531442
30
526.770691
70
192
0
VERTEX
8

10
25.039293
20
10.585036
30
526.695984
70
192
0
VERTEX
8

10
25.046999
20
10.596438
30
526.605652
70
192
0
VERTEX
8

10
25.008631
20
10.552444
30
526.678833
70
192
0
VERTEX
8

10
25.009783
20
10.503203
30
526.732117
70
192
0
VERTEX
8

10
25.181177
20
10.390817
30
527.111084
70
192
0
VERTEX
8

10
25.193659
20
10.442246
30
527.108154
70
192
0
VERTEX
8

10
25.155123
20
10.487517
30
527.028809
70
192
0
VERTEX
8

10
25.153528
20
10.489020
30
526.935913
70
192
0
VERTEX
8

10
25.123606
20
10.453998
30
527.028809
70
192
0
VERTEX
8

10
25.130808
20
10.411141
30
527.093750
70
192
0
VERTEX
8

10
24.979578
20
10.549483
30
525.506165
70
192
0
VERTEX
8

10
24.970613
20
10.547681
30
525.503540
70
192
0
VERTEX
8

10
24.978327
20
10.540427
30
525.508789
70
192
0
VERTEX
8

10
25.001719
20
10.528941
30
525.959351
70
192
0
VERTEX
8

10
24.992823
20
10.526488
30
525.966431
70
192
0
VERTEX
8

10
24.999834
20
10.519893
30
525.952271
70
192
0
VERTEX
8

10
25.061632
20
10.473319
30
526.673706
70
192
0
VERTEX
8

10
25.052858
20
10.469260
30
526.686951
70
192
0
VERTEX
8

10
25.058138
20
10.464322
30
526.660583
70
192
0
VERTEX
8

10
25.157495
20
10.383269
30
527.115723
70
192
0
VERTEX
8

10
25.149881
20
10.377898
30
527.130066
70
192
0
VERTEX
8

10
25.152575
20
10.375373
30
527.101440
70
192
0
VERTEX
8

10
25.295031
20
10.253886
30
527.224243
70
192
0
VERTEX
8

10
25.288889
20
10.247079
30
527.235840
70
192
0
VERTEX
8

10
25.288630
20
10.247348
30
527.212585
70
192
0
VERTEX
8

10
25.414583
20
10.141356
30
527.138855
70
192
0
VERTEX
8

10
25.409975
20
10.133264
30
527.146484
70
192
0
VERTEX
8

10
25.406778
20
10.136285
30
527.131042
70
192
0
VERTEX
8

10
25.492151
20
10.068282
30
526.977478
70
192
0
VERTEX
8

10
25.488886
20
10.059157
30
526.982056
70
192
0
VERTEX
8

10
25.483263
20
10.064471
30
526.972839
70
192
0
VERTEX
8

10
25.535097
20
10.027745
30
526.738403
70
192
0
VERTEX
8

10
25.532755
20
10.018044
30
526.741272
70
192
0
VERTEX
8

10
25.525560
20
10.024846
30
526.735413
70
192
0
VERTEX
8

10
25.550325
20
10.013288
30
526.578857
70
192
0
VERTEX
8

10
25.548349
20
10.003476
30
526.581055
70
192
0
VERTEX
8

10
25.540659
20
10.010728
30
526.576721
70
192
0
VERTEX
8

10
25.028315
20
10.496961
30
526.366455
70
192
0
VERTEX
8

10
25.039957
20
10.547492
30
526.383545
70
192
0
VERTEX
8

10
25.010523
20
10.602416
30
526.310059
70
192
0
VERTEX
8

10
25.019770
20
10.615432
30
526.220642
70
192
0
VERTEX
8

10
24.980150
20
10.570155
30
526.290039
70
192
0
VERTEX
8

10
24.980471
20
10.519980
30
526.341125
70
192
0
VERTEX
8

10
25.023447
20
10.530169
30
526.167053
70
192
0
VERTEX
8

10
25.035959
20
10.581599
30
526.164185
70
192
0
VERTEX
8

10
24.997431
20
10.626868
30
526.084778
70
192
0
VERTEX
8

10
24.995836
20
10.628371
30
525.991882
70
192
0
VERTEX
8

10
24.965883
20
10.593350
30
526.084778
70
192
0
VERTEX
8

10
24.973047
20
10.550494
30
526.149658
70
192
0
VERTEX
8

10
25.071032
20
10.494418
30
526.523682
70
192
0
VERTEX
8

10
25.083551
20
10.545846
30
526.520752
70
192
0
VERTEX
8

10
25.045015
20
10.591117
30
526.441406
70
192
0
VERTEX
8

10
25.043413
20
10.592620
30
526.348511
70
192
0
VERTEX
8

10
25.013491
20
10.557597
30
526.441406
70
192
0
VERTEX
8

10
25.020662
20
10.514743
30
526.506287
70
192
0
VERTEX
8

10
25.296373
20
10.273417
30
527.216003
70
192
0
VERTEX
8

10
25.308863
20
10.324845
30
527.213074
70
192
0
VERTEX
8

10
25.270327
20
10.370116
30
527.133728
70
192
0
VERTEX
8

10
25.268755
20
10.371619
30
527.040771
70
192
0
VERTEX
8

10
25.238840
20
10.336596
30
527.133728
70
192
0
VERTEX
8

10
25.246012
20
10.293742
30
527.198608
70
192
0
VERTEX
8

10
25.017466
20
10.523791
30
525.914307
70
192
0
VERTEX
8

10
25.028917
20
10.574143
30
525.932983
70
192
0
VERTEX
8

10
25.000185
20
10.629802
30
525.860107
70
192
0
VERTEX
8

10
25.010233
20
10.643701
30
525.771301
70
192
0
VERTEX
8

10
24.970034
20
10.597747
30
525.838623
70
192
0
VERTEX
8

10
24.969851
20
10.547067
30
525.888428
70
192
0
VERTEX
8

10
24.753717
20
9.821549
30
526.571655
70
192
0
VERTEX
8

10
24.733370
20
9.772835
30
526.578491
70
192
0
VERTEX
8

10
24.686518
20
9.747628
30
526.488525
70
192
0
VERTEX
8

10
24.696123
20
9.735322
30
526.398987
70
192
0
VERTEX
8

10
24.681787
20
9.792163
30
526.471680
70
192
0
VERTEX
8

10
24.704538
20
9.831016
30
526.533752
70
192
0
VERTEX
8

10
24.865595
20
9.819123
30
526.962891
70
192
0
VERTEX
8

10
24.847261
20
9.769855
30
526.952759
70
192
0
VERTEX
8

10
24.799227
20
9.756028
30
526.858154
70
192
0
VERTEX
8

10
24.807100
20
9.757204
30
526.766113
70
192
0
VERTEX
8

10
24.792414
20
9.801541
30
526.858154
70
192
0
VERTEX
8

10
24.815226
20
9.831542
30
526.931702
70
192
0
VERTEX
8

10
24.762423
20
9.831443
30
526.178528
70
192
0
VERTEX
8

10
24.741724
20
9.783064
30
526.188110
70
192
0
VERTEX
8

10
24.695032
20
9.756034
30
526.099365
70
192
0
VERTEX
8

10
24.704828
20
9.741524
30
526.010742
70
192
0
VERTEX
8

10
24.690615
20
9.800159
30
526.079712
70
192
0
VERTEX
8

10
24.713465
20
9.840323
30
526.139648
70
192
0
VERTEX
8

10
24.761339
20
9.810190
30
525.974854
70
192
0
VERTEX
8

10
24.742975
20
9.760919
30
525.964783
70
192
0
VERTEX
8

10
24.694971
20
9.747092
30
525.870239
70
192
0
VERTEX
8

10
24.702837
20
9.748267
30
525.778137
70
192
0
VERTEX
8

10
24.688150
20
9.792606
30
525.870239
70
192
0
VERTEX
8

10
24.710970
20
9.822605
30
525.943726
70
192
0
VERTEX
8

10
24.781557
20
9.806563
30
526.342468
70
192
0
VERTEX
8

10
24.763193
20
9.757295
30
526.332397
70
192
0
VERTEX
8

10
24.715197
20
9.743466
30
526.237854
70
192
0
VERTEX
8

10
24.723032
20
9.744643
30
526.145752
70
192
0
VERTEX
8

10
24.708376
20
9.788981
30
526.237854
70
192
0
VERTEX
8

10
24.731195
20
9.818980
30
526.311279
70
192
0
VERTEX
8

10
25.013399
20
9.847861
30
527.111694
70
192
0
VERTEX
8

10
24.995066
20
9.798592
30
527.101563
70
192
0
VERTEX
8

10
24.947031
20
9.784767
30
527.007080
70
192
0
VERTEX
8

10
24.954874
20
9.785942
30
526.914978
70
192
0
VERTEX
8

10
24.940210
20
9.830279
30
527.007080
70
192
0
VERTEX
8

10
24.963068
20
9.860278
30
527.080566
70
192
0
VERTEX
8

10
24.787256
20
9.822919
30
525.725952
70
192
0
VERTEX
8

10
24.766359
20
9.774758
30
525.737122
70
192
0
VERTEX
8

10
24.719736
20
9.746728
30
525.649048
70
192
0
VERTEX
8

10
24.729654
20
9.731002
30
525.560913
70
192
0
VERTEX
8

10
24.715548
20
9.790598
30
525.627930
70
192
0
VERTEX
8

10
24.738398
20
9.831466
30
525.686523
70
192
0
VERTEX
8

10
24.821306
20
9.869821
30
526.756470
70
192
0
VERTEX
8

10
24.788797
20
9.910636
30
526.770691
70
192
0
VERTEX
8

10
24.727671
20
9.919711
30
526.695984
70
192
0
VERTEX
8

10
24.723513
20
9.932828
30
526.605652
70
192
0
VERTEX
8

10
24.734293
20
9.875455
30
526.678833
70
192
0
VERTEX
8

10
24.773691
20
9.845889
30
526.732117
70
192
0
VERTEX
8

10
24.968058
20
9.910899
30
527.111084
70
192
0
VERTEX
8

10
24.935411
20
9.952548
30
527.108154
70
192
0
VERTEX
8

10
24.875994
20
9.950316
30
527.028809
70
192
0
VERTEX
8

10
24.873850
20
9.949994
30
526.935913
70
192
0
VERTEX
8

10
24.882807
20
9.904803
30
527.028809
70
192
0
VERTEX
8

10
24.920893
20
9.883910
30
527.093750
70
192
0
VERTEX
8

10
24.718653
20
9.850806
30
525.506165
70
192
0
VERTEX
8

10
24.714487
20
9.842652
30
525.503540
70
192
0
VERTEX
8

10
24.724985
20
9.844214
30
525.508789
70
192
0
VERTEX
8

10
24.748468
20
9.855487
30
525.959351
70
192
0
VERTEX
8

10
24.744890
20
9.846967
30
525.966431
70
192
0
VERTEX
8

10
24.754427
20
9.848395
30
525.952271
70
192
0
VERTEX
8

10
24.829241
20
9.868102
30
526.673706
70
192
0
VERTEX
8

10
24.826998
20
9.858695
30
526.686951
70
192
0
VERTEX
8

10
24.834169
20
9.859775
30
526.660583
70
192
0
VERTEX
8

10
24.959291
20
9.887609
30
527.115723
70
192
0
VERTEX
8

10
24.958841
20
9.878322
30
527.130066
70
192
0
VERTEX
8

10
24.962488
20
9.878882
30
527.101440
70
192
0
VERTEX
8

10
25.146105
20
9.915551
30
527.224243
70
192
0
VERTEX
8

10
25.147638
20
9.906512
30
527.235840
70
192
0
VERTEX
8

10
25.147257
20
9.906470
30
527.212585
70
192
0
VERTEX
8

10
25.308466
20
9.939754
30
527.138855
70
192
0
VERTEX
8

10
25.311953
20
9.931140
30
527.146484
70
192
0
VERTEX
8

10
25.307611
20
9.930495
30
527.131042
70
192
0
VERTEX
8

10
25.413881
20
9.955428
30
526.977478
70
192
0
VERTEX
8

10
25.419001
20
9.947217
30
526.982056
70
192
0
VERTEX
8

10
25.411318
20
9.946074
30
526.972839
70
192
0
VERTEX
8

10
25.472254
20
9.964042
30
526.738403
70
192
0
VERTEX
8

10
25.478456
20
9.956220
30
526.741272
70
192
0
VERTEX
8

10
25.468668
20
9.954755
30
526.735413
70
192
0
VERTEX
8

10
25.493052
20
9.967071
30
526.578857
70
192
0
VERTEX
8

10
25.499575
20
9.959453
30
526.581055
70
192
0
VERTEX
8

10
25.489084
20
9.957889
30
526.576721
70
192
0
VERTEX
8

10
24.790071
20
9.856559
30
526.366394
70
192
0
VERTEX
8

10
24.757555
20
9.896991
30
526.383545
70
192
0
VERTEX
8

10
24.696215
20
9.907870
30
526.310059
70
192
0
VERTEX
8

10
24.691706
20
9.923179
30
526.220642
70
192
0
VERTEX
8

10
24.702776
20
9.864066
30
526.290039
70
192
0
VERTEX
8

10
24.742327
20
9.833230
30
526.341125
70
192
0
VERTEX
8

10
24.760950
20
9.873302
30
526.167053
70
192
0
VERTEX
8

10
24.728312
20
9.914952
30
526.164185
70
192
0
VERTEX
8

10
24.668917
20
9.912721
30
526.084778
70
192
0
VERTEX
8

10
24.666742
20
9.912396
30
525.991882
70
192
0
VERTEX
8

10
24.675707
20
9.867206
30
526.084778
70
192
0
VERTEX
8

10
24.713785
20
9.846313
30
526.149658
70
192
0
VERTEX
8

10
24.818491
20
9.888549
30
526.523682
70
192
0
VERTEX
8

10
24.785852
20
9.930198
30
526.520752
70
192
0
VERTEX
8

10
24.726458
20
9.927966
30
526.441406
70
192
0
VERTEX
8

10
24.724283
20
9.927642
30
526.348511
70
192
0
VERTEX
8

10
24.733240
20
9.882455
30
526.441406
70
192
0
VERTEX
8

10
24.771349
20
9.861560
30
526.506287
70
192
0
VERTEX
8

10
25.131578
20
9.928689
30
527.216003
70
192
0
VERTEX
8

10
25.098940
20
9.970338
30
527.213074
70
192
0
VERTEX
8

10
25.039515
20
9.968108
30
527.133728
70
192
0
VERTEX
8

10
25.037340
20
9.967784
30
527.040771
70
192
0
VERTEX
8

10
25.046328
20
9.922595
30
527.133728
70
192
0
VERTEX
8

10
25.084406
20
9.901698
30
527.198608
70
192
0
VERTEX
8

10
24.762262
20
9.864638
30
525.914307
70
192
0
VERTEX
8

10
24.729815
20
9.904830
30
525.932983
70
192
0
VERTEX
8

10
24.668314
20
9.916699
30
525.860107
70
192
0
VERTEX
8

10
24.663607
20
9.933209
30
525.771301
70
192
0
VERTEX
8

10
24.674807
20
9.873174
30
525.838623
70
192
0
VERTEX
8

10
24.714487
20
9.841657
30
525.888428
70
192
0
VERTEX
8

10
24.600664
20
9.536000
30
526.835754
70
192
0
VERTEX
8

10
24.588541
20
9.468137
30
526.841370
70
192
0
VERTEX
8

10
24.535929
20
9.422752
30
526.767883
70
192
0
VERTEX
8

10
24.551607
20
9.409770
30
526.694702
70
192
0
VERTEX
8

10
24.517237
20
9.478190
30
526.754150
70
192
0
VERTEX
8

10
24.535288
20
9.534180
30
526.804810
70
192
0
VERTEX
8

10
24.744028
20
9.564542
30
527.155151
70
192
0
VERTEX
8

10
24.734583
20
9.496527
30
527.146973
70
192
0
VERTEX
8

10
24.677240
20
9.465319
30
527.069702
70
192
0
VERTEX
8

10
24.686907
20
9.469038
30
526.994507
70
192
0
VERTEX
8

10
24.655672
20
9.521432
30
527.069702
70
192
0
VERTEX
8

10
24.676317
20
9.566140
30
527.129761
70
192
0
VERTEX
8

10
24.608950
20
9.551074
30
526.514771
70
192
0
VERTEX
8

10
24.596285
20
9.483539
30
526.522583
70
192
0
VERTEX
8

10
24.544374
20
9.435868
30
526.450073
70
192
0
VERTEX
8

10
24.560984
20
9.420142
30
526.377686
70
192
0
VERTEX
8

10
24.526262
20
9.490893
30
526.434082
70
192
0
VERTEX
8

10
24.544024
20
9.548561
30
526.482971
70
192
0
VERTEX
8

10
24.613626
20
9.523674
30
526.348450
70
192
0
VERTEX
8

10
24.604151
20
9.455659
30
526.340210
70
192
0
VERTEX
8

10
24.546808
20
9.424451
30
526.263000
70
192
0
VERTEX
8

10
24.556505
20
9.428172
30
526.187866
70
192
0
VERTEX
8

10
24.525270
20
9.480566
30
526.263000
70
192
0
VERTEX
8

10
24.545885
20
9.525272
30
526.322998
70
192
0
VERTEX
8

10
24.640406
20
9.524764
30
526.648682
70
192
0
VERTEX
8

10
24.630968
20
9.456752
30
526.640381
70
192
0
VERTEX
8

10
24.573626
20
9.425542
30
526.563171
70
192
0
VERTEX
8

10
24.583292
20
9.429262
30
526.487976
70
192
0
VERTEX
8

10
24.552057
20
9.481656
30
526.563171
70
192
0
VERTEX
8

10
24.572664
20
9.526362
30
526.623169
70
192
0
VERTEX
8

10
24.924410
20
9.642978
30
527.276733
70
192
0
VERTEX
8

10
24.914942
20
9.574962
30
527.268433
70
192
0
VERTEX
8

10
24.857599
20
9.543753
30
527.191223
70
192
0
VERTEX
8

10
24.867289
20
9.547476
30
527.116028
70
192
0
VERTEX
8

10
24.836054
20
9.599869
30
527.191223
70
192
0
VERTEX
8

10
24.856699
20
9.644576
30
527.251282
70
192
0
VERTEX
8

10
24.643061
20
9.547230
30
526.145264
70
192
0
VERTEX
8

10
24.630037
20
9.479914
30
526.154297
70
192
0
VERTEX
8

10
24.578485
20
9.430987
30
526.082397
70
192
0
VERTEX
8

10
24.595636
20
9.413744
30
526.010437
70
192
0
VERTEX
8

10
24.560762
20
9.485745
30
526.065125
70
192
0
VERTEX
8

10
24.578356
20
9.544320
30
526.112976
70
192
0
VERTEX
8

10
24.673204
20
9.616671
30
526.986572
70
192
0
VERTEX
8

10
24.620211
20
9.659523
30
526.998291
70
192
0
VERTEX
8

10
24.539736
20
9.653823
30
526.937256
70
192
0
VERTEX
8

10
24.530680
20
9.669370
30
526.863525
70
192
0
VERTEX
8

10
24.560694
20
9.599257
30
526.923279
70
192
0
VERTEX
8

10
24.619257
20
9.572694
30
526.966797
70
192
0
VERTEX
8

10
24.848757
20
9.710538
30
527.276245
70
192
0
VERTEX
8

10
24.795321
20
9.754418
30
527.273804
70
192
0
VERTEX
8

10
24.720209
20
9.734777
30
527.209045
70
192
0
VERTEX
8

10
24.717524
20
9.733754
30
527.133179
70
192
0
VERTEX
8

10
24.741755
20
9.678664
30
527.209045
70
192
0
VERTEX
8

10
24.796251
20
9.662790
30
527.262024
70
192
0
VERTEX
8

10
24.547670
20
9.563396
30
525.965698
70
192
0
VERTEX
8

10
24.544695
20
9.551833
30
525.963623
70
192
0
VERTEX
8

10
24.557627
20
9.556784
30
525.967834
70
192
0
VERTEX
8

10
24.584444
20
9.577808
30
526.335754
70
192
0
VERTEX
8

10
24.582262
20
9.565924
30
526.341553
70
192
0
VERTEX
8

10
24.593981
20
9.570442
30
526.330017
70
192
0
VERTEX
8

10
24.683832
20
9.616724
30
526.919067
70
192
0
VERTEX
8

10
24.683641
20
9.604100
30
526.929932
70
192
0
VERTEX
8

10
24.692438
20
9.607491
30
526.908325
70
192
0
VERTEX
8

10
24.844156
20
9.678366
30
527.280029
70
192
0
VERTEX
8

10
24.846201
20
9.666387
30
527.291748
70
192
0
VERTEX
8

10
24.850679
20
9.668137
30
527.268372
70
192
0
VERTEX
8

10
25.074457
20
9.766802
30
527.368591
70
192
0
VERTEX
8

10
25.078974
20
9.755713
30
527.378113
70
192
0
VERTEX
8

10
25.078516
20
9.755550
30
527.359070
70
192
0
VERTEX
8

10
25.274683
20
9.843572
30
527.298828
70
192
0
VERTEX
8

10
25.281595
20
9.833575
30
527.305176
70
192
0
VERTEX
8

10
25.276217
20
9.831527
30
527.292542
70
192
0
VERTEX
8

10
25.404665
20
9.893359
30
527.167114
70
192
0
VERTEX
8

10
25.413561
20
9.884341
30
527.170837
70
192
0
VERTEX
8

10
25.404093
20
9.880719
30
527.163330
70
192
0
VERTEX
8

10
25.476725
20
9.920854
30
526.971863
70
192
0
VERTEX
8

10
25.486811
20
9.912627
30
526.974243
70
192
0
VERTEX
8

10
25.474680
20
9.907985
30
526.969421
70
192
0
VERTEX
8

10
25.502398
20
9.930594
30
526.841675
70
192
0
VERTEX
8

10
25.512796
20
9.922713
30
526.843384
70
192
0
VERTEX
8

10
25.499895
20
9.917762
30
526.839905
70
192
0
VERTEX
8

10
24.637110
20
9.590922
30
526.668213
70
192
0
VERTEX
8

10
24.584314
20
9.633302
30
526.682129
70
192
0
VERTEX
8

10
24.502970
20
9.629827
30
526.622070
70
192
0
VERTEX
8

10
24.492891
20
9.648073
30
526.549072
70
192
0
VERTEX
8

10
24.523706
20
9.575820
30
526.605835
70
192
0
VERTEX
8

10
24.582911
20
9.547689
30
526.647583
70
192
0
VERTEX
8

10
24.595293
20
9.604052
30
526.505371
70
192
0
VERTEX
8

10
24.541880
20
9.647933
30
526.502991
70
192
0
VERTEX
8

10
24.466745
20
9.628292
30
526.438171
70
192
0
VERTEX
8

10
24.464090
20
9.627266
30
526.362305
70
192
0
VERTEX
8

10
24.488314
20
9.572176
30
526.438171
70
192
0
VERTEX
8

10
24.542780
20
9.556303
30
526.491211
70
192
0
VERTEX
8

10
24.664377
20
9.639760
30
526.796570
70
192
0
VERTEX
8

10
24.610941
20
9.683641
30
526.794189
70
192
0
VERTEX
8

10
24.535830
20
9.664004
30
526.729370
70
192
0
VERTEX
8

10
24.533175
20
9.662976
30
526.653564
70
192
0
VERTEX
8

10
24.557367
20
9.607886
30
526.729370
70
192
0
VERTEX
8

10
24.611864
20
9.592014
30
526.782410
70
192
0
VERTEX
8

10
25.052217
20
9.779451
30
527.361877
70
192
0
VERTEX
8

10
24.998842
20
9.823335
30
527.359497
70
192
0
VERTEX
8

10
24.923708
20
9.803695
30
527.294678
70
192
0
VERTEX
8

10
24.921015
20
9.802669
30
527.218872
70
192
0
VERTEX
8

10
24.945238
20
9.747578
30
527.294678
70
192
0
VERTEX
8

10
24.999743
20
9.731705
30
527.347656
70
192
0
VERTEX
8

10
24.599413
20
9.593370
30
526.299011
70
192
0
VERTEX
8

10
24.546686
20
9.635452
30
526.314270
70
192
0
VERTEX
8

10
24.464891
20
9.633198
30
526.254822
70
192
0
VERTEX
8

10
24.454233
20
9.652929
30
526.182251
70
192
0
VERTEX
8

10
24.485498
20
9.579534
30
526.237305
70
192
0
VERTEX
8

10
24.545015
20
9.550562
30
526.277954
70
192
0
VERTEX
8

10
24.788179
20
9.213193
30
526.835754
70
192
0
VERTEX
8

10
24.799990
20
9.145271
30
526.841370
70
192
0
VERTEX
8

10
24.766069
20
9.084630
30
526.767883
70
192
0
VERTEX
8

10
24.785273
20
9.077806
30
526.694702
70
192
0
VERTEX
8

10
24.729601
20
9.130341
30
526.754150
70
192
0
VERTEX
8

10
24.727381
20
9.189124
30
526.804810
70
192
0
VERTEX
8

10
24.913149
20
9.289049
30
527.155151
70
192
0
VERTEX
8

10
24.927546
20
9.221901
30
527.146973
70
192
0
VERTEX
8

10
24.884317
20
9.172962
30
527.069702
70
192
0
VERTEX
8

10
24.892153
20
9.179774
30
526.994507
70
192
0
VERTEX
8

10
24.844858
20
9.218326
30
527.069702
70
192
0
VERTEX
8

10
24.848955
20
9.267388
30
527.129761
70
192
0
VERTEX
8

10
24.790834
20
9.230198
30
526.514771
70
192
0
VERTEX
8

10
24.802011
20
9.162394
30
526.522583
70
192
0
VERTEX
8

10
24.769526
20
9.099844
30
526.450073
70
192
0
VERTEX
8

10
24.790522
20
9.090755
30
526.377686
70
192
0
VERTEX
8

10
24.733690
20
9.145364
30
526.434082
70
192
0
VERTEX
8

10
24.730684
20
9.205626
30
526.482971
70
192
0
VERTEX
8

10
24.804567
20
9.206038
30
526.348450
70
192
0
VERTEX
8

10
24.818941
20
9.138891
30
526.340210
70
192
0
VERTEX
8

10
24.775743
20
9.089952
30
526.263000
70
192
0
VERTEX
8

10
24.783579
20
9.096764
30
526.187866
70
192
0
VERTEX
8

10
24.736315
20
9.135316
30
526.263000
70
192
0
VERTEX
8

10
24.740412
20
9.184378
30
526.322998
70
192
0
VERTEX
8

10
24.829370
20
9.216229
30
526.648682
70
192
0
VERTEX
8

10
24.843775
20
9.149080
30
526.640381
70
192
0
VERTEX
8

10
24.800539
20
9.100142
30
526.563171
70
192
0
VERTEX
8

10
24.808374
20
9.106956
30
526.487976
70
192
0
VERTEX
8

10
24.761118
20
9.145506
30
526.563171
70
192
0
VERTEX
8

10
24.765177
20
9.194571
30
526.623169
70
192
0
VERTEX
8

10
25.055803
20
9.424443
30
527.276733
70
192
0
VERTEX
8

10
25.070200
20
9.357296
30
527.268433
70
192
0
VERTEX
8

10
25.027002
20
9.308356
30
527.191223
70
192
0
VERTEX
8

10
25.034807
20
9.315170
30
527.116028
70
192
0
VERTEX
8

10
24.987543
20
9.353721
30
527.191223
70
192
0
VERTEX
8

10
24.991610
20
9.402784
30
527.251282
70
192
0
VERTEX
8

10
24.824183
20
9.238244
30
526.145264
70
192
0
VERTEX
8

10
24.834970
20
9.170535
30
526.154297
70
192
0
VERTEX
8

10
24.803263
20
9.106935
30
526.082397
70
192
0
VERTEX
8

10
24.825274
20
9.096588
30
526.010437
70
192
0
VERTEX
8

10
24.767862
20
9.152319
30
526.065125
70
192
0
VERTEX
8

10
24.764376
20
9.213378
30
526.112976
70
192
0
VERTEX
8

10
24.828798
20
9.313818
30
526.986572
70
192
0
VERTEX
8

10
24.764315
20
9.335953
30
526.998291
70
192
0
VERTEX
8

10
24.690615
20
9.303073
30
526.937256
70
192
0
VERTEX
8

10
24.676828
20
9.314592
30
526.863525
70
192
0
VERTEX
8

10
24.728983
20
9.258963
30
526.923279
70
192
0
VERTEX
8

10
24.793146
20
9.254041
30
526.966797
70
192
0
VERTEX
8

10
24.961596
20
9.462054
30
527.276245
70
192
0
VERTEX
8

10
24.896410
20
9.485023
30
527.273804
70
192
0
VERTEX
8

10
24.832537
20
9.440874
30
527.209045
70
192
0
VERTEX
8

10
24.830393
20
9.438993
30
527.133179
70
192
0
VERTEX
8

10
24.871996
20
9.395509
30
527.209045
70
192
0
VERTEX
8

10
24.928598
20
9.399228
30
527.262024
70
192
0
VERTEX
8

10
24.729013
20
9.220819
30
525.965698
70
192
0
VERTEX
8

10
24.730204
20
9.208937
30
525.963623
70
192
0
VERTEX
8

10
24.740633
20
9.218002
30
525.967834
70
192
0
VERTEX
8

10
24.758654
20
9.246925
30
526.335754
70
192
0
VERTEX
8

10
24.760630
20
9.235014
30
526.341553
70
192
0
VERTEX
8

10
24.770136
20
9.243274
30
526.330017
70
192
0
VERTEX
8

10
24.838778
20
9.317503
30
526.919067
70
192
0
VERTEX
8

10
24.842867
20
9.305570
30
526.929932
70
192
0
VERTEX
8

10
24.849977
20
9.311767
30
526.908325
70
192
0
VERTEX
8

10
24.968317
20
9.430258
30
527.280029
70
192
0
VERTEX
8

10
24.974329
20
9.419690
30
527.291748
70
192
0
VERTEX
8

10
24.977945
20
9.422874
30
527.268372
70
192
0
VERTEX
8

10
25.154490
20
9.592124
30
527.368591
70
192
0
VERTEX
8

10
25.162485
20
9.583249
30
527.378113
70
192
0
VERTEX
8

10
25.162142
20
9.582936
30
527.359070
70
192
0
VERTEX
8

10
25.316347
20
9.732740
30
527.298828
70
192
0
VERTEX
8

10
25.326265
20
9.725713
30
527.305176
70
192
0
VERTEX
8

10
25.321909
20
9.721951
30
527.292542
70
192
0
VERTEX
8

10
25.421495
20
9.823983
30
527.167114
70
192
0
VERTEX
8

10
25.432886
20
9.818548
30
527.170837
70
192
0
VERTEX
8

10
25.425272
20
9.811909
30
527.163330
70
192
0
VERTEX
8

10
25.479769
20
9.874461
30
526.971863
70
192
0
VERTEX
8

10
25.492090
20
9.870185
30
526.974243
70
192
0
VERTEX
8

10
25.482294
20
9.861686
30
526.969421
70
192
0
VERTEX
8

10
25.500544
20
9.892394
30
526.841675
70
192
0
VERTEX
8

10
25.513048
20
9.888555
30
526.843384
70
192
0
VERTEX
8

10
25.502619
20
9.879489
30
526.839905
70
192
0
VERTEX
8

10
24.803667
20
9.277274
30
526.668213
70
192
0
VERTEX
8

10
24.739511
20
9.299027
30
526.682129
70
192
0
VERTEX
8

10
24.664286
20
9.267946
30
526.622070
70
192
0
VERTEX
8

10
24.648569
20
9.281648
30
526.549072
70
192
0
VERTEX
8

10
24.702265
20
9.224286
30
526.605835
70
192
0
VERTEX
8

10
24.767481
20
9.218098
30
526.647583
70
192
0
VERTEX
8

10
24.759867
20
9.275303
30
526.505371
70
192
0
VERTEX
8

10
24.694651
20
9.298271
30
526.502991
70
192
0
VERTEX
8

10
24.630777
20
9.254122
30
526.438171
70
192
0
VERTEX
8

10
24.628633
20
9.252242
30
526.362305
70
192
0
VERTEX
8

10
24.670229
20
9.208757
30
526.438171
70
192
0
VERTEX
8

10
24.726839
20
9.212478
30
526.491211
70
192
0
VERTEX
8

10
24.812571
20
9.332484
30
526.796570
70
192
0
VERTEX
8

10
24.747377
20
9.355453
30
526.794189
70
192
0
VERTEX
8

10
24.683481
20
9.311302
30
526.729370
70
192
0
VERTEX
8

10
24.681337
20
9.309423
30
526.653564
70
192
0
VERTEX
8

10
24.722940
20
9.265938
30
526.729370
70
192
0
VERTEX
8

10
24.779581
20
9.269658
30
526.782410
70
192
0
VERTEX
8

10
25.129267
20
9.596410
30
527.361877
70
192
0
VERTEX
8

10
25.064058
20
9.619376
30
527.359497
70
192
0
VERTEX
8

10
25.000185
20
9.575228
30
527.294678
70
192
0
VERTEX
8

10
24.998003
20
9.573349
30
527.218872
70
192
0
VERTEX
8

10
25.039606
20
9.529863
30
527.294678
70
192
0
VERTEX
8

10
25.096254
20
9.533586
30
527.347656
70
192
0
VERTEX
8

10
24.767351
20
9.266669
30
526.299011
70
192
0
VERTEX
8

10
24.703417
20
9.288182
30
526.314270
70
192
0
VERTEX
8

10
24.627352
20
9.258088
30
526.254822
70
192
0
VERTEX
8

10
24.610613
20
9.272988
30
526.182251
70
192
0
VERTEX
8

10
24.665079
20
9.214705
30
526.237305
70
192
0
VERTEX
8

10
24.730906
20
9.207837
30
526.277954
70
192
0
VERTEX
8

10
25.648829
20
8.910705
30
526.835754
70
192
0
VERTEX
8

10
25.707834
20
8.875051
30
526.841370
70
192
0
VERTEX
8

10
25.731318
20
8.809674
30
526.767883
70
192
0
VERTEX
8

10
25.749086
20
8.819695
30
526.694702
70
192
0
VERTEX
8

10
25.672892
20
8.812110
30
526.754150
70
192
0
VERTEX
8

10
25.627100
20
8.849032
30
526.804810
70
192
0
VERTEX
8

10
25.673525
20
9.054780
30
527.155151
70
192
0
VERTEX
8

10
25.733660
20
9.021574
30
527.146973
70
192
0
VERTEX
8

10
25.742235
20
8.956859
30
527.069702
70
192
0
VERTEX
8

10
25.742235
20
8.967241
30
526.994507
70
192
0
VERTEX
8

10
25.682138
20
8.956859
30
527.069702
70
192
0
VERTEX
8

10
25.647799
20
8.992131
30
527.129761
70
192
0
VERTEX
8

10
25.637720
20
8.923856
30
526.514771
70
192
0
VERTEX
8

10
25.696215
20
8.887804
30
526.522583
70
192
0
VERTEX
8

10
25.722109
20
8.822258
30
526.450073
70
192
0
VERTEX
8

10
25.742777
20
8.832149
30
526.377686
70
192
0
VERTEX
8

10
25.664248
20
8.825092
30
526.434082
70
192
0
VERTEX
8

10
25.616793
20
8.862330
30
526.482971
70
192
0
VERTEX
8

10
25.664957
20
8.918374
30
526.348450
70
192
0
VERTEX
8

10
25.725054
20
8.885170
30
526.340210
70
192
0
VERTEX
8

10
25.733660
20
8.820452
30
526.263000
70
192
0
VERTEX
8

10
25.733660
20
8.830836
30
526.187866
70
192
0
VERTEX
8

10
25.673525
20
8.820452
30
526.263000
70
192
0
VERTEX
8

10
25.639200
20
8.855725
30
526.322998
70
192
0
VERTEX
8

10
25.673525
20
8.943784
30
526.648682
70
192
0
VERTEX
8

10
25.733660
20
8.910580
30
526.640381
70
192
0
VERTEX
8

10
25.742235
20
8.845862
30
526.563171
70
192
0
VERTEX
8

10
25.742235
20
8.856246
30
526.487976
70
192
0
VERTEX
8

10
25.682138
20
8.845862
30
526.563171
70
192
0
VERTEX
8

10
25.647799
20
8.881136
30
526.623169
70
192
0
VERTEX
8

10
25.664957
20
9.251278
30
527.276733
70
192
0
VERTEX
8

10
25.725054
20
9.218074
30
527.268433
70
192
0
VERTEX
8

10
25.733660
20
9.153358
30
527.191223
70
192
0
VERTEX
8

10
25.733660
20
9.163741
30
527.116028
70
192
0
VERTEX
8

10
25.673525
20
9.153358
30
527.191223
70
192
0
VERTEX
8

10
25.639200
20
9.188628
30
527.251282
70
192
0
VERTEX
8

10
25.653498
20
8.954303
30
526.145264
70
192
0
VERTEX
8

10
25.711710
20
8.918030
30
526.154297
70
192
0
VERTEX
8

10
25.738909
20
8.852383
30
526.082397
70
192
0
VERTEX
8

10
25.761148
20
8.862190
30
526.010437
70
192
0
VERTEX
8

10
25.681437
20
8.855433
30
526.065125
70
192
0
VERTEX
8

10
25.633051
20
8.892855
30
526.112976
70
192
0
VERTEX
8

10
25.599512
20
9.007363
30
526.986572
70
192
0
VERTEX
8

10
25.540506
20
8.973224
30
526.998291
70
192
0
VERTEX
8

10
25.516985
20
8.896051
30
526.937256
70
192
0
VERTEX
8

10
25.499224
20
8.893188
30
526.863525
70
192
0
VERTEX
8

10
25.575411
20
8.896051
30
526.923279
70
192
0
VERTEX
8

10
25.621241
20
8.941236
30
526.966797
70
192
0
VERTEX
8

10
25.574778
20
9.204860
30
527.276245
70
192
0
VERTEX
8

10
25.514681
20
9.170721
30
527.273804
70
192
0
VERTEX
8

10
25.506075
20
9.093549
30
527.209045
70
192
0
VERTEX
8

10
25.506075
20
9.090684
30
527.133179
70
192
0
VERTEX
8

10
25.566202
20
9.093549
30
527.209045
70
192
0
VERTEX
8

10
25.600542
20
9.138734
30
527.262024
70
192
0
VERTEX
8

10
25.604250
20
8.871060
30
525.965698
70
192
0
VERTEX
8

10
25.613977
20
8.864150
30
525.963623
70
192
0
VERTEX
8

10
25.614008
20
8.877975
30
525.967834
70
192
0
VERTEX
8

10
25.603960
20
8.910526
30
526.335754
70
192
0
VERTEX
8

10
25.614267
20
8.904235
30
526.341553
70
192
0
VERTEX
8

10
25.614267
20
8.916819
30
526.330017
70
192
0
VERTEX
8

10
25.603258
20
9.017303
30
526.919067
70
192
0
VERTEX
8

10
25.614969
20
9.012588
30
526.929932
70
192
0
VERTEX
8

10
25.614969
20
9.022014
30
526.908325
70
192
0
VERTEX
8

10
25.603197
20
9.189063
30
527.280029
70
192
0
VERTEX
8

10
25.615068
20
9.186646
30
527.291748
70
192
0
VERTEX
8

10
25.615030
20
9.191478
30
527.268372
70
192
0
VERTEX
8

10
25.603128
20
9.435742
30
527.368591
70
192
0
VERTEX
8

10
25.615099
20
9.435990
30
527.378113
70
192
0
VERTEX
8

10
25.615099
20
9.435496
30
527.359070
70
192
0
VERTEX
8

10
25.603197
20
9.650172
30
527.298828
70
192
0
VERTEX
8

10
25.615030
20
9.653045
30
527.305176
70
192
0
VERTEX
8

10
25.615030
20
9.647299
30
527.292542
70
192
0
VERTEX
8

10
25.603319
20
9.789367
30
527.167114
70
192
0
VERTEX
8

10
25.614908
20
9.794429
30
527.170837
70
192
0
VERTEX
8

10
25.614908
20
9.784306
30
527.163330
70
192
0
VERTEX
8

10
25.603449
20
9.866483
30
526.971863
70
192
0
VERTEX
8

10
25.614779
20
9.872962
30
526.974243
70
192
0
VERTEX
8

10
25.614779
20
9.860003
30
526.969421
70
192
0
VERTEX
8

10
25.603579
20
9.893933
30
526.841675
70
192
0
VERTEX
8

10
25.614649
20
9.900846
30
526.843384
70
192
0
VERTEX
8

10
25.614649
20
9.887023
30
526.839905
70
192
0
VERTEX
8

10
25.610613
20
8.964429
30
526.668213
70
192
0
VERTEX
8

10
25.552118
20
8.930288
30
526.682129
70
192
0
VERTEX
8

10
25.526201
20
8.853117
30
526.622070
70
192
0
VERTEX
8

10
25.505556
20
8.850254
30
526.549072
70
192
0
VERTEX
8

10
25.584055
20
8.853117
30
526.605835
70
192
0
VERTEX
8

10
25.631548
20
8.898301
30
526.647583
70
192
0
VERTEX
8

10
25.583353
20
8.930081
30
526.505371
70
192
0
VERTEX
8

10
25.523256
20
8.895942
30
526.502991
70
192
0
VERTEX
8

10
25.514681
20
8.818770
30
526.438171
70
192
0
VERTEX
8

10
25.514681
20
8.815907
30
526.362305
70
192
0
VERTEX
8

10
25.574778
20
8.818770
30
526.438171
70
192
0
VERTEX
8

10
25.609118
20
8.863955
30
526.491211
70
192
0
VERTEX
8

10
25.574778
20
9.007363
30
526.796570
70
192
0
VERTEX
8

10
25.514681
20
8.973224
30
526.794189
70
192
0
VERTEX
8

10
25.506075
20
8.896051
30
526.729370
70
192
0
VERTEX
8

10
25.506075
20
8.893188
30
526.653564
70
192
0
VERTEX
8

10
25.566202
20
8.896051
30
526.729370
70
192
0
VERTEX
8

10
25.600542
20
8.941236
30
526.782410
70
192
0
VERTEX
8

10
25.583353
20
9.419531
30
527.361877
70
192
0
VERTEX
8

10
25.523256
20
9.385391
30
527.359497
70
192
0
VERTEX
8

10
25.514681
20
9.308220
30
527.294678
70
192
0
VERTEX
8

10
25.514681
20
9.305355
30
527.218872
70
192
0
VERTEX
8

10
25.574778
20
9.308220
30
527.294678
70
192
0
VERTEX
8

10
25.609118
20
9.353402
30
527.347656
70
192
0
VERTEX
8

10
25.594805
20
8.930081
30
526.299011
70
192
0
VERTEX
8

10
25.536631
20
8.895942
30
526.314270
70
192
0
VERTEX
8

10
25.509432
20
8.818770
30
526.254822
70
192
0
VERTEX
8

10
25.487154
20
8.815907
30
526.182251
70
192
0
VERTEX
8

10
25.566904
20
8.818770
30
526.237305
70
192
0
VERTEX
8

10
25.615290
20
8.863955
30
526.277954
70
192
0
VERTEX
8

10
26.486582
20
9.284476
30
526.835754
70
192
0
VERTEX
8

10
26.549372
20
9.312909
30
526.841370
70
192
0
VERTEX
8

10
26.616571
20
9.295261
30
526.767883
70
192
0
VERTEX
8

10
26.618395
20
9.315567
30
526.694702
70
192
0
VERTEX
8

10
26.581499
20
9.248472
30
526.754150
70
192
0
VERTEX
8

10
26.525118
20
9.231642
30
526.804810
70
192
0
VERTEX
8

10
26.381884
20
9.386463
30
527.155151
70
192
0
VERTEX
8

10
26.443262
20
9.417193
30
527.146973
70
192
0
VERTEX
8

10
26.501459
20
9.387614
30
527.069702
70
192
0
VERTEX
8

10
26.492914
20
9.393496
30
526.994507
70
192
0
VERTEX
8

10
26.467417
20
9.338078
30
527.069702
70
192
0
VERTEX
8

10
26.418871
20
9.329750
30
527.129761
70
192
0
VERTEX
8

10
26.469469
20
9.282778
30
526.514771
70
192
0
VERTEX
8

10
26.532312
20
9.310569
30
526.522583
70
192
0
VERTEX
8

10
26.601015
20
9.294790
30
526.450073
70
192
0
VERTEX
8

10
26.604540
20
9.317402
30
526.377686
70
192
0
VERTEX
8

10
26.565882
20
9.248717
30
526.434082
70
192
0
VERTEX
8

10
26.508310
20
9.230682
30
526.482971
70
192
0
VERTEX
8

10
26.489405
20
9.302128
30
526.348450
70
192
0
VERTEX
8

10
26.550837
20
9.332856
30
526.340210
70
192
0
VERTEX
8

10
26.609011
20
9.303276
30
526.263000
70
192
0
VERTEX
8

10
26.600435
20
9.309159
30
526.187866
70
192
0
VERTEX
8

10
26.574968
20
9.253740
30
526.263000
70
192
0
VERTEX
8

10
26.526461
20
9.245413
30
526.322998
70
192
0
VERTEX
8

10
26.473337
20
9.323594
30
526.648682
70
192
0
VERTEX
8

10
26.534746
20
9.354324
30
526.640381
70
192
0
VERTEX
8

10
26.592951
20
9.324746
30
526.563171
70
192
0
VERTEX
8

10
26.584375
20
9.330626
30
526.487976
70
192
0
VERTEX
8

10
26.558908
20
9.275208
30
526.563171
70
192
0
VERTEX
8

10
26.510393
20
9.266880
30
526.623169
70
192
0
VERTEX
8

10
26.215029
20
9.490685
30
527.276733
70
192
0
VERTEX
8

10
26.276476
20
9.521414
30
527.268433
70
192
0
VERTEX
8

10
26.334650
20
9.491834
30
527.191223
70
192
0
VERTEX
8

10
26.326105
20
9.497716
30
527.116028
70
192
0
VERTEX
8

10
26.300600
20
9.442299
30
527.191223
70
192
0
VERTEX
8

10
26.252085
20
9.433970
30
527.251282
70
192
0
VERTEX
8

10
26.453310
20
9.313048
30
526.145264
70
192
0
VERTEX
8

10
26.516153
20
9.340451
30
526.154297
70
192
0
VERTEX
8

10
26.585657
20
9.325692
30
526.082397
70
192
0
VERTEX
8

10
26.590204
20
9.349570
30
526.010437
70
192
0
VERTEX
8

10
26.550585
20
9.280048
30
526.065125
70
192
0
VERTEX
8

10
26.492350
20
9.261374
30
526.112976
70
192
0
VERTEX
8

10
26.379000
20
9.298589
30
526.986572
70
192
0
VERTEX
8

10
26.373690
20
9.230623
30
526.998291
70
192
0
VERTEX
8

10
26.423998
20
9.167533
30
526.937256
70
192
0
VERTEX
8

10
26.416315
20
9.151278
30
526.863525
70
192
0
VERTEX
8

10
26.457087
20
9.215700
30
526.923279
70
192
0
VERTEX
8

10
26.445810
20
9.279037
30
526.966797
70
192
0
VERTEX
8

10
26.202234
20
9.390068
30
527.276245
70
192
0
VERTEX
8

10
26.196314
20
9.321196
30
527.273804
70
192
0
VERTEX
8

10
26.255030
20
9.270409
30
527.209045
70
192
0
VERTEX
8

10
26.257402
20
9.268787
30
527.133179
70
192
0
VERTEX
8

10
26.289087
20
9.319945
30
527.209045
70
192
0
VERTEX
8

10
26.271318
20
9.373844
30
527.262024
70
192
0
VERTEX
8

10
26.494005
20
9.225296
30
525.965698
70
192
0
VERTEX
8

10
26.505205
20
9.229403
30
525.963623
70
192
0
VERTEX
8

10
26.493814
20
9.237236
30
525.967834
70
192
0
VERTEX
8

10
26.461306
20
9.247412
30
526.335754
70
192
0
VERTEX
8

10
26.472376
20
9.252349
30
526.341553
70
192
0
VERTEX
8

10
26.461977
20
9.259468
30
526.330017
70
192
0
VERTEX
8

10
26.372919
20
9.307314
30
526.919067
70
192
0
VERTEX
8

10
26.383448
20
9.314301
30
526.929932
70
192
0
VERTEX
8

10
26.375673
20
9.319624
30
526.908325
70
192
0
VERTEX
8

10
26.231348
20
9.404524
30
527.280029
70
192
0
VERTEX
8

10
26.240053
20
9.412964
30
527.291748
70
192
0
VERTEX
8

10
26.236086
20
9.415687
30
527.268372
70
192
0
VERTEX
8

10
26.028025
20
9.544216
30
527.368591
70
192
0
VERTEX
8

10
26.034586
20
9.554222
30
527.378113
70
192
0
VERTEX
8

10
26.035006
20
9.553930
30
527.359070
70
192
0
VERTEX
8

10
25.851320
20
9.665736
30
527.298828
70
192
0
VERTEX
8

10
25.855669
20
9.677094
30
527.305176
70
192
0
VERTEX
8

10
25.860407
20
9.673832
30
527.292542
70
192
0
VERTEX
8

10
25.736696
20
9.744662
30
527.167114
70
192
0
VERTEX
8

10
25.739069
20
9.757089
30
527.170837
70
192
0
VERTEX
8

10
25.747454
20
9.751351
30
527.163330
70
192
0
VERTEX
8

10
25.673204
20
9.788465
30
526.971863
70
192
0
VERTEX
8

10
25.674295
20
9.801446
30
526.974243
70
192
0
VERTEX
8

10
25.684954
20
9.794103
30
526.969421
70
192
0
VERTEX
8

10
25.650652
20
9.804096
30
526.841675
70
192
0
VERTEX
8

10
25.651255
20
9.817157
30
526.843384
70
192
0
VERTEX
8

10
25.662653
20
9.809325
30
526.839905
70
192
0
VERTEX
8

10
26.420664
20
9.283417
30
526.668213
70
192
0
VERTEX
8

10
26.415674
20
9.215869
30
526.682129
70
192
0
VERTEX
8

10
26.464602
20
9.150812
30
526.622070
70
192
0
VERTEX
8

10
26.455294
20
9.132180
30
526.549072
70
192
0
VERTEX
8

10
26.497370
20
9.198490
30
526.605835
70
192
0
VERTEX
8

10
26.487032
20
9.263208
30
526.647583
70
192
0
VERTEX
8

10
26.433527
20
9.241509
30
526.505371
70
192
0
VERTEX
8

10
26.427637
20
9.172637
30
526.502991
70
192
0
VERTEX
8

10
26.486353
20
9.121848
30
526.438171
70
192
0
VERTEX
8

10
26.488726
20
9.120227
30
526.362305
70
192
0
VERTEX
8

10
26.520411
20
9.171385
30
526.438171
70
192
0
VERTEX
8

10
26.502649
20
9.225285
30
526.491211
70
192
0
VERTEX
8

10
26.364985
20
9.278206
30
526.796570
70
192
0
VERTEX
8

10
26.359095
20
9.209332
30
526.794189
70
192
0
VERTEX
8

10
26.417818
20
9.158545
30
526.729370
70
192
0
VERTEX
8

10
26.420153
20
9.156922
30
526.653564
70
192
0
VERTEX
8

10
26.451860
20
9.208080
30
526.729370
70
192
0
VERTEX
8

10
26.434069
20
9.261980
30
526.782410
70
192
0
VERTEX
8

10
26.030169
20
9.518737
30
527.361877
70
192
0
VERTEX
8

10
26.024248
20
9.449862
30
527.359497
70
192
0
VERTEX
8

10
26.083002
20
9.399076
30
527.294678
70
192
0
VERTEX
8

10
26.085367
20
9.397454
30
527.218872
70
192
0
VERTEX
8

10
26.117052
20
9.448612
30
527.294678
70
192
0
VERTEX
8

10
26.099253
20
9.502510
30
527.347656
70
192
0
VERTEX
8

10
26.440027
20
9.250938
30
526.299011
70
192
0
VERTEX
8

10
26.435190
20
9.183651
30
526.314270
70
192
0
VERTEX
8

10
26.483385
20
9.117518
30
526.254822
70
192
0
VERTEX
8

10
26.473146
20
9.097572
30
526.182251
70
192
0
VERTEX
8

10
26.515963
20
9.164890
30
526.237305
70
192
0
VERTEX
8

10
26.506105
20
9.230350
30
526.277954
70
192
0
VERTEX
8

10
26.459131
20
10.340083
30
526.835754
70
192
0
VERTEX
8

10
26.461397
20
10.408988
30
526.841370
70
192
0
VERTEX
8

10
26.506945
20
10.461450
30
526.767883
70
192
0
VERTEX
8

10
26.489527
20
10.472041
30
526.694702
70
192
0
VERTEX
8

10
26.533373
20
10.409263
30
526.754150
70
192
0
VERTEX
8

10
26.523546
20
10.351266
30
526.804810
70
192
0
VERTEX
8

10
26.321344
20
10.291265
30
527.155151
70
192
0
VERTEX
8

10
26.320948
20
10.359935
30
527.146973
70
192
0
VERTEX
8

10
26.373209
20
10.399047
30
527.069702
70
192
0
VERTEX
8

10
26.364153
20
10.393973
30
526.994507
70
192
0
VERTEX
8

10
26.402552
20
10.346604
30
527.069702
70
192
0
VERTEX
8

10
26.388605
20
10.299399
30
527.129761
70
192
0
VERTEX
8

10
26.453051
20
10.323974
30
526.514771
70
192
0
VERTEX
8

10
26.455927
20
10.392631
30
526.522583
70
192
0
VERTEX
8

10
26.500475
20
10.447257
30
526.450073
70
192
0
VERTEX
8

10
26.481752
20
10.460435
30
526.377686
70
192
0
VERTEX
8

10
26.526262
20
10.395396
30
526.434082
70
192
0
VERTEX
8

10
26.516977
20
10.335780
30
526.482971
70
192
0
VERTEX
8

10
26.444536
20
10.350425
30
526.348450
70
192
0
VERTEX
8

10
26.444155
20
10.419089
30
526.340210
70
192
0
VERTEX
8

10
26.496408
20
10.458207
30
526.263000
70
192
0
VERTEX
8

10
26.487352
20
10.453135
30
526.187866
70
192
0
VERTEX
8

10
26.525782
20
10.405765
30
526.263000
70
192
0
VERTEX
8

10
26.511797
20
10.358560
30
526.322998
70
192
0
VERTEX
8

10
26.418169
20
10.345500
30
526.648682
70
192
0
VERTEX
8

10
26.417780
20
10.414166
30
526.640381
70
192
0
VERTEX
8

10
26.470034
20
10.453282
30
526.563171
70
192
0
VERTEX
8

10
26.460985
20
10.448207
30
526.487976
70
192
0
VERTEX
8

10
26.499414
20
10.400836
30
526.563171
70
192
0
VERTEX
8

10
26.485430
20
10.353635
30
526.623169
70
192
0
VERTEX
8

10
26.154108
20
10.187760
30
527.276733
70
192
0
VERTEX
8

10
26.153688
20
10.256427
30
527.268433
70
192
0
VERTEX
8

10
26.205942
20
10.295543
30
527.191223
70
192
0
VERTEX
8

10
26.196886
20
10.290467
30
527.116028
70
192
0
VERTEX
8

10
26.235323
20
10.243098
30
527.191223
70
192
0
VERTEX
8

10
26.221338
20
10.195895
30
527.251282
70
192
0
VERTEX
8

10
26.418779
20
10.322886
30
526.145264
70
192
0
VERTEX
8

10
26.422007
20
10.391374
30
526.154297
70
192
0
VERTEX
8

10
26.465975
20
10.447188
30
526.082397
70
192
0
VERTEX
8

10
26.446589
20
10.461795
30
526.010437
70
192
0
VERTEX
8

10
26.491388
20
10.395547
30
526.065125
70
192
0
VERTEX
8

10
26.482393
20
10.335052
30
526.112976
70
192
0
VERTEX
8

10
26.398867
20
10.249835
30
526.986572
70
192
0
VERTEX
8

10
26.457491
20
10.215034
30
526.998291
70
192
0
VERTEX
8

10
26.536318
20
10.232223
30
526.937256
70
192
0
VERTEX
8

10
26.547510
20
10.218131
30
526.863525
70
192
0
VERTEX
8

10
26.507769
20
10.283217
30
526.923279
70
192
0
VERTEX
8

10
26.445948
20
10.301099
30
526.966797
70
192
0
VERTEX
8

10
26.238649
20
10.131755
30
527.276245
70
192
0
VERTEX
8

10
26.297785
20
10.095992
30
527.273804
70
192
0
VERTEX
8

10
26.369341
20
10.126208
30
527.209045
70
192
0
VERTEX
8

10
26.371836
20
10.127606
30
527.133179
70
192
0
VERTEX
8

10
26.339960
20
10.178651
30
527.209045
70
192
0
VERTEX
8

10
26.283770
20
10.186542
30
527.262024
70
192
0
VERTEX
8

10
26.515482
20
10.320573
30
525.965698
70
192
0
VERTEX
8

10
26.516756
20
10.332442
30
525.963623
70
192
0
VERTEX
8

10
26.504694
20
10.325690
30
525.967834
70
192
0
VERTEX
8

10
26.481211
20
10.301040
30
526.335754
70
192
0
VERTEX
8

10
26.481661
20
10.313111
30
526.341553
70
192
0
VERTEX
8

10
26.470652
20
10.306956
30
526.330017
70
192
0
VERTEX
8

10
26.388376
20
10.248256
30
526.919067
70
192
0
VERTEX
8

10
26.386744
20
10.260781
30
526.929932
70
192
0
VERTEX
8

10
26.378550
20
10.256160
30
526.908325
70
192
0
VERTEX
8

10
26.238550
20
10.164248
30
527.280029
70
192
0
VERTEX
8

10
26.234873
20
10.175817
30
527.291748
70
192
0
VERTEX
8

10
26.230654
20
10.173438
30
527.268372
70
192
0
VERTEX
8

10
26.023355
20
10.043685
30
527.368591
70
192
0
VERTEX
8

10
26.017267
20
10.054009
30
527.378113
70
192
0
VERTEX
8

10
26.017725
20
10.054236
30
527.359070
70
192
0
VERTEX
8

10
25.836214
20
9.938981
30
527.298828
70
192
0
VERTEX
8

10
25.827959
20
9.947881
30
527.305176
70
192
0
VERTEX
8

10
25.832949
20
9.950679
30
527.292542
70
192
0
VERTEX
8

10
25.714746
20
9.871058
30
527.167114
70
192
0
VERTEX
8

10
25.704630
20
9.878707
30
527.170837
70
192
0
VERTEX
8

10
25.713465
20
9.883647
30
527.163330
70
192
0
VERTEX
8

10
25.647348
20
9.833510
30
526.971863
70
192
0
VERTEX
8

10
25.636187
20
9.840198
30
526.974243
70
192
0
VERTEX
8

10
25.647486
20
9.846528
30
526.969421
70
192
0
VERTEX
8

10
25.623354
20
9.820183
30
526.841675
70
192
0
VERTEX
8

10
25.611895
20
9.826487
30
526.843384
70
192
0
VERTEX
8

10
25.623995
20
9.833240
30
526.839905
70
192
0
VERTEX
8

10
26.430902
20
10.280499
30
526.668213
70
192
0
VERTEX
8

10
26.489267
20
10.246139
30
526.682129
70
192
0
VERTEX
8

10
26.569269
20
10.261247
30
526.622070
70
192
0
VERTEX
8

10
26.581881
20
10.244636
30
526.549072
70
192
0
VERTEX
8

10
26.540987
20
10.311721
30
526.605835
70
192
0
VERTEX
8

10
26.478395
20
10.331067
30
526.647583
70
192
0
VERTEX
8

10
26.474199
20
10.273507
30
526.505371
70
192
0
VERTEX
8

10
26.533373
20
10.237746
30
526.502991
70
192
0
VERTEX
8

10
26.604853
20
10.267961
30
526.438171
70
192
0
VERTEX
8

10
26.607378
20
10.269361
30
526.362305
70
192
0
VERTEX
8

10
26.575518
20
10.320405
30
526.438171
70
192
0
VERTEX
8

10
26.519289
20
10.328296
30
526.491211
70
192
0
VERTEX
8

10
26.410967
20
10.228255
30
526.796570
70
192
0
VERTEX
8

10
26.470140
20
10.192492
30
526.794189
70
192
0
VERTEX
8

10
26.541628
20
10.222709
30
526.729370
70
192
0
VERTEX
8

10
26.544153
20
10.224109
30
526.653564
70
192
0
VERTEX
8

10
26.512285
20
10.275153
30
526.729370
70
192
0
VERTEX
8

10
26.456057
20
10.283042
30
526.782410
70
192
0
VERTEX
8

10
26.047159
20
10.034354
30
527.361877
70
192
0
VERTEX
8

10
26.106295
20
9.998591
30
527.359497
70
192
0
VERTEX
8

10
26.177851
20
10.028806
30
527.294678
70
192
0
VERTEX
8

10
26.180346
20
10.030204
30
527.218872
70
192
0
VERTEX
8

10
26.148470
20
10.081252
30
527.294678
70
192
0
VERTEX
8

10
26.092279
20
10.089141
30
527.347656
70
192
0
VERTEX
8

10
26.468599
20
10.283488
30
526.299011
70
192
0
VERTEX
8

10
26.526842
20
10.249408
30
526.314270
70
192
0
VERTEX
8

10
26.607447
20
10.263377
30
526.254822
70
192
0
VERTEX
8

10
26.620790
20
10.245376
30
526.182251
70
192
0
VERTEX
8

10
26.579386
20
10.313529
30
526.237305
70
192
0
VERTEX
8

10
26.516283
20
10.333661
30
526.277954
70
192
0
VERTEX
8

10
25.848795
20
10.954391
30
526.835754
70
192
0
VERTEX
8

10
25.798487
20
11.001531
30
526.841370
70
192
0
VERTEX
8

10
25.789087
20
11.070369
30
526.767883
70
192
0
VERTEX
8

10
25.769655
20
11.064261
30
526.694702
70
192
0
VERTEX
8

10
25.845751
20
11.055835
30
526.754150
70
192
0
VERTEX
8

10
25.882868
20
11.010200
30
526.804810
70
192
0
VERTEX
8

10
25.794649
20
10.818604
30
527.155151
70
192
0
VERTEX
8

10
25.742777
20
10.863580
30
527.146973
70
192
0
VERTEX
8

10
25.747835
20
10.928672
30
527.069702
70
192
0
VERTEX
8

10
25.745661
20
10.918509
30
526.994507
70
192
0
VERTEX
8

10
25.806581
20
10.916171
30
527.069702
70
192
0
VERTEX
8

10
25.832888
20
10.874530
30
527.129761
70
192
0
VERTEX
8

10
25.856920
20
10.939216
30
526.514771
70
192
0
VERTEX
8

10
25.807192
20
10.986646
30
526.522583
70
192
0
VERTEX
8

10
25.795481
20
11.056144
30
526.450073
70
192
0
VERTEX
8

10
25.773241
20
11.050763
30
526.377686
70
192
0
VERTEX
8

10
25.851480
20
11.041345
30
526.434082
70
192
0
VERTEX
8

10
25.890169
20
10.995048
30
526.482971
70
192
0
VERTEX
8

10
25.831415
20
10.950244
30
526.348450
70
192
0
VERTEX
8

10
25.779512
20
10.995221
30
526.340210
70
192
0
VERTEX
8

10
25.784571
20
11.060309
30
526.263000
70
192
0
VERTEX
8

10
25.782396
20
11.050151
30
526.187866
70
192
0
VERTEX
8

10
25.843378
20
11.047812
30
526.263000
70
192
0
VERTEX
8

10
25.869623
20
11.006169
30
526.322998
70
192
0
VERTEX
8

10
25.817720
20
10.927173
30
526.648682
70
192
0
VERTEX
8

10
25.765810
20
10.972152
30
526.640381
70
192
0
VERTEX
8

10
25.770868
20
11.037238
30
526.563171
70
192
0
VERTEX
8

10
25.768732
20
11.027081
30
526.487976
70
192
0
VERTEX
8

10
25.829691
20
11.024741
30
526.563171
70
192
0
VERTEX
8

10
25.855928
20
10.983100
30
526.623169
70
192
0
VERTEX
8

10
25.762171
20
10.624614
30
527.276733
70
192
0
VERTEX
8

10
25.710299
20
10.669591
30
527.268433
70
192
0
VERTEX
8

10
25.715349
20
10.734681
30
527.191223
70
192
0
VERTEX
8

10
25.713205
20
10.724521
30
527.116028
70
192
0
VERTEX
8

10
25.774141
20
10.722182
30
527.191223
70
192
0
VERTEX
8

10
25.800409
20
10.680539
30
527.251282
70
192
0
VERTEX
8

10
25.835123
20
10.912723
30
526.145264
70
192
0
VERTEX
8

10
25.785753
20
10.960301
30
526.154297
70
192
0
VERTEX
8

10
25.772799
20
11.030169
30
526.082397
70
192
0
VERTEX
8

10
25.748980
20
11.025201
30
526.010437
70
192
0
VERTEX
8

10
25.828409
20
11.015231
30
526.065125
70
192
0
VERTEX
8

10
25.867929
20
10.968574
30
526.112976
70
192
0
VERTEX
8

10
25.876925
20
10.849593
30
526.986572
70
192
0
VERTEX
8

10
25.941751
20
10.870715
30
526.998291
70
192
0
VERTEX
8

10
25.980791
20
10.941314
30
526.937256
70
192
0
VERTEX
8

10
25.998743
20
10.940425
30
526.863525
70
192
0
VERTEX
8

10
25.923639
20
10.953465
30
526.923279
70
192
0
VERTEX
8

10
25.869432
20
10.918792
30
526.966797
70
192
0
VERTEX
8

10
25.860056
20
10.651269
30
527.276245
70
192
0
VERTEX
8

10
25.925943
20
10.672164
30
527.273804
70
192
0
VERTEX
8

10
25.950396
20
10.745868
30
527.209045
70
192
0
VERTEX
8

10
25.950968
20
10.748664
30
527.133179
70
192
0
VERTEX
8

10
25.891611
20
10.758361
30
527.209045
70
192
0
VERTEX
8

10
25.848627
20
10.721305
30
527.262024
70
192
0
VERTEX
8

10
25.900629
20
10.983901
30
525.965698
70
192
0
VERTEX
8

10
25.892534
20
10.992686
30
525.963623
70
192
0
VERTEX
8

10
25.889658
20
10.979165
30
525.967834
70
192
0
VERTEX
8

10
25.892694
20
10.945239
30
526.335754
70
192
0
VERTEX
8

10
25.883928
20
10.953536
30
526.341553
70
192
0
VERTEX
8

10
25.881342
20
10.941228
30
526.330017
70
192
0
VERTEX
8

10
25.871195
20
10.840652
30
526.919067
70
192
0
VERTEX
8

10
25.860727
20
10.847697
30
526.929932
70
192
0
VERTEX
8

10
25.858744
20
10.838473
30
526.908325
70
192
0
VERTEX
8

10
25.835573
20
10.672626
30
527.280029
70
192
0
VERTEX
8

10
25.824442
20
10.677464
30
527.291748
70
192
0
VERTEX
8

10
25.823420
20
10.672732
30
527.268372
70
192
0
VERTEX
8

10
25.784311
20
10.431327
30
527.368591
70
192
0
VERTEX
8

10
25.772539
20
10.433578
30
527.378113
70
192
0
VERTEX
8

10
25.772661
20
10.434056
30
527.359070
70
192
0
VERTEX
8

10
25.739641
20
10.221602
30
527.298828
70
192
0
VERTEX
8

10
25.727480
20
10.221248
30
527.305176
70
192
0
VERTEX
8

10
25.728693
20
10.226863
30
527.292542
70
192
0
VERTEX
8

10
25.710611
20
10.085471
30
527.167114
70
192
0
VERTEX
8

10
25.698236
20
10.082931
30
527.170837
70
192
0
VERTEX
8

10
25.700342
20
10.092832
30
527.163330
70
192
0
VERTEX
8

10
25.694429
20
10.010070
30
526.971863
70
192
0
VERTEX
8

10
25.682039
20
10.006083
30
526.974243
70
192
0
VERTEX
8

10
25.684725
20
10.018760
30
526.969421
70
192
0
VERTEX
8

10
25.688631
20
9.983241
30
526.841675
70
192
0
VERTEX
8

10
25.676348
20
9.978786
30
526.843384
70
192
0
VERTEX
8

10
25.679224
20
9.992309
30
526.839905
70
192
0
VERTEX
8

10
25.875002
20
10.893895
30
526.668213
70
192
0
VERTEX
8

10
25.939318
20
10.915126
30
526.682129
70
192
0
VERTEX
8

10
25.980700
20
10.985227
30
526.622070
70
192
0
VERTEX
8

10
26.001459
20
10.983735
30
526.549072
70
192
0
VERTEX
8

10
25.924089
20
10.997254
30
526.605835
70
192
0
VERTEX
8

10
25.868280
20
10.962930
30
526.647583
70
192
0
VERTEX
8

10
25.908800
20
10.921828
30
526.505371
70
192
0
VERTEX
8

10
25.974680
20
10.942723
30
526.502991
70
192
0
VERTEX
8

10
25.999132
20
11.016425
30
526.438171
70
192
0
VERTEX
8

10
25.999743
20
11.019225
30
526.362305
70
192
0
VERTEX
8

10
25.940348
20
11.028922
30
526.438171
70
192
0
VERTEX
8

10
25.897333
20
10.991864
30
526.491211
70
192
0
VERTEX
8

10
25.901117
20
10.844451
30
526.796570
70
192
0
VERTEX
8

10
25.967035
20
10.865344
30
526.794189
70
192
0
VERTEX
8

10
25.991449
20
10.939048
30
526.729370
70
192
0
VERTEX
8

10
25.992060
20
10.941848
30
526.653564
70
192
0
VERTEX
8

10
25.932665
20
10.951545
30
526.729370
70
192
0
VERTEX
8

10
25.889658
20
10.914489
30
526.782410
70
192
0
VERTEX
8

10
25.807032
20
10.443076
30
527.361877
70
192
0
VERTEX
8

10
25.872919
20
10.463971
30
527.359497
70
192
0
VERTEX
8

10
25.897371
20
10.537671
30
527.294678
70
192
0
VERTEX
8

10
25.897974
20
10.540473
30
527.218872
70
192
0
VERTEX
8

10
25.838579
20
10.550170
30
527.294678
70
192
0
VERTEX
8

10
25.795572
20
10.513114
30
527.347656
70
192
0
VERTEX
8

10
25.897593
20
10.924205
30
526.299011
70
192
0
VERTEX
8

10
25.961596
20
10.945502
30
526.314270
70
192
0
VERTEX
8

10
26.004282
20
11.015332
30
526.254822
70
192
0
VERTEX
8

10
26.026613
20
11.013511
30
526.182251
70
192
0
VERTEX
8

10
25.948023
20
11.027282
30
526.237305
70
192
0
VERTEX
8

10
25.891321
20
10.993144
30
526.277954
70
192
0
VERTEX
8

10
24.934717
20
10.742881
30
526.835754
70
192
0
VERTEX
8

10
24.866549
20
10.732562
30
526.841370
70
192
0
VERTEX
8

10
24.806650
20
10.767791
30
526.767883
70
192
0
VERTEX
8

10
24.799410
20
10.748733
30
526.694702
70
192
0
VERTEX
8

10
24.853174
20
10.803288
30
526.754150
70
192
0
VERTEX
8

10
24.911997
20
10.804187
30
526.804810
70
192
0
VERTEX
8

10
25.007837
20
10.616296
30
527.155151
70
192
0
VERTEX
8

10
24.940378
20
10.603389
30
527.146973
70
192
0
VERTEX
8

10
24.892412
20
10.647655
30
527.069702
70
192
0
VERTEX
8

10
24.899035
20
10.639670
30
526.994507
70
192
0
VERTEX
8

10
24.938616
20
10.686091
30
527.069702
70
192
0
VERTEX
8

10
24.987574
20
10.680934
30
527.129761
70
192
0
VERTEX
8

10
24.951670
20
10.739867
30
526.514771
70
192
0
VERTEX
8

10
24.883638
20
10.730178
30
526.522583
70
192
0
VERTEX
8

10
24.821817
20
10.764010
30
526.450073
70
192
0
VERTEX
8

10
24.812250
20
10.743207
30
526.377686
70
192
0
VERTEX
8

10
24.868090
20
10.798823
30
526.434082
70
192
0
VERTEX
8

10
24.928408
20
10.800551
30
526.482971
70
192
0
VERTEX
8

10
24.927225
20
10.726661
30
526.348450
70
192
0
VERTEX
8

10
24.859766
20
10.713754
30
526.340210
70
192
0
VERTEX
8

10
24.811769
20
10.758021
30
526.263000
70
192
0
VERTEX
8

10
24.818422
20
10.750037
30
526.187866
70
192
0
VERTEX
8

10
24.857973
20
10.796456
30
526.263000
70
192
0
VERTEX
8

10
24.906939
20
10.791299
30
526.322998
70
192
0
VERTEX
8

10
24.936861
20
10.701634
30
526.648682
70
192
0
VERTEX
8

10
24.869402
20
10.688727
30
526.640381
70
192
0
VERTEX
8

10
24.821436
20
10.732993
30
526.563171
70
192
0
VERTEX
8

10
24.828058
20
10.725009
30
526.487976
70
192
0
VERTEX
8

10
24.867640
20
10.771430
30
526.563171
70
192
0
VERTEX
8

10
24.916597
20
10.766273
30
526.623169
70
192
0
VERTEX
8

10
25.140093
20
10.470710
30
527.276733
70
192
0
VERTEX
8

10
25.072634
20
10.457805
30
527.268433
70
192
0
VERTEX
8

10
25.024630
20
10.502070
30
527.191223
70
192
0
VERTEX
8

10
25.031290
20
10.494086
30
527.116028
70
192
0
VERTEX
8

10
25.070841
20
10.540507
30
527.191223
70
192
0
VERTEX
8

10
25.119806
20
10.535350
30
527.251282
70
192
0
VERTEX
8

10
24.958971
20
10.706351
30
526.145264
70
192
0
VERTEX
8

10
24.891062
20
10.697040
30
526.154297
70
192
0
VERTEX
8

10
24.828150
20
10.730113
30
526.082397
70
192
0
VERTEX
8

10
24.817339
20
10.708354
30
526.010437
70
192
0
VERTEX
8

10
24.874292
20
10.764520
30
526.065125
70
192
0
VERTEX
8

10
24.935411
20
10.766686
30
526.112976
70
192
0
VERTEX
8

10
25.034426
20
10.700095
30
526.986572
70
192
0
VERTEX
8

10
25.057978
20
10.764073
30
526.998291
70
192
0
VERTEX
8

10
25.026682
20
10.838447
30
526.937256
70
192
0
VERTEX
8

10
25.038515
20
10.851998
30
526.863525
70
192
0
VERTEX
8

10
24.981752
20
10.801070
30
526.923279
70
192
0
VERTEX
8

10
24.975451
20
10.737048
30
526.966797
70
192
0
VERTEX
8

10
25.179743
20
10.564067
30
527.276245
70
192
0
VERTEX
8

10
25.204119
20
10.628751
30
527.273804
70
192
0
VERTEX
8

10
25.161371
20
10.693574
30
527.209045
70
192
0
VERTEX
8

10
25.159540
20
10.695775
30
527.133179
70
192
0
VERTEX
8

10
25.115160
20
10.655139
30
527.209045
70
192
0
VERTEX
8

10
25.117624
20
10.598435
30
527.262024
70
192
0
VERTEX
8

10
24.943605
20
10.801858
30
525.965698
70
192
0
VERTEX
8

10
24.931704
20
10.800946
30
525.963623
70
192
0
VERTEX
8

10
24.940569
20
10.790317
30
525.967834
70
192
0
VERTEX
8

10
24.969088
20
10.771699
30
526.335754
70
192
0
VERTEX
8

10
24.957109
20
10.769938
30
526.341553
70
192
0
VERTEX
8

10
24.965181
20
10.760272
30
526.330017
70
192
0
VERTEX
8

10
25.037882
20
10.690051
30
526.919067
70
192
0
VERTEX
8

10
25.025881
20
10.686183
30
526.929932
70
192
0
VERTEX
8

10
25.031923
20
10.678948
30
526.908325
70
192
0
VERTEX
8

10
25.147799
20
10.558053
30
527.280029
70
192
0
VERTEX
8

10
25.137079
20
10.552302
30
527.291748
70
192
0
VERTEX
8

10
25.140215
20
10.548598
30
527.268372
70
192
0
VERTEX
8

10
25.305559
20
10.368419
30
527.368591
70
192
0
VERTEX
8

10
25.296503
20
10.360572
30
527.378113
70
192
0
VERTEX
8

10
25.296213
20
10.360963
30
527.359070
70
192
0
VERTEX
8

10
25.442614
20
10.203506
30
527.298828
70
192
0
VERTEX
8

10
25.435381
20
10.193748
30
527.305176
70
192
0
VERTEX
8

10
25.431704
20
10.198169
30
527.292542
70
192
0
VERTEX
8

10
25.531549
20
10.096423
30
527.167114
70
192
0
VERTEX
8

10
25.525881
20
10.085113
30
527.170837
70
192
0
VERTEX
8

10
25.519411
20
10.092898
30
527.163330
70
192
0
VERTEX
8

10
25.580729
20
10.037036
30
526.971863
70
192
0
VERTEX
8

10
25.576181
20
10.024829
30
526.974243
70
192
0
VERTEX
8

10
25.567926
20
10.034797
30
526.969421
70
192
0
VERTEX
8

10
25.598200
20
10.015866
30
526.841675
70
192
0
VERTEX
8

10
25.594110
20
10.003455
30
526.843384
70
192
0
VERTEX
8

10
25.585268
20
10.014085
30
526.839905
70
192
0
VERTEX
8

10
24.998461
20
10.726007
30
526.668213
70
192
0
VERTEX
8

10
25.021593
20
10.789664
30
526.682129
70
192
0
VERTEX
8

10
24.992151
20
10.865558
30
526.622070
70
192
0
VERTEX
8

10
25.006205
20
10.880960
30
526.549072
70
192
0
VERTEX
8

10
24.947710
20
10.828567
30
526.605835
70
192
0
VERTEX
8

10
24.940088
20
10.763469
30
526.647583
70
192
0
VERTEX
8

10
24.997431
20
10.769837
30
526.505371
70
192
0
VERTEX
8

10
25.021814
20
10.834521
30
526.502991
70
192
0
VERTEX
8

10
24.979067
20
10.899344
30
526.438171
70
192
0
VERTEX
8

10
24.977236
20
10.901547
30
526.362305
70
192
0
VERTEX
8

10
24.932856
20
10.860909
30
526.438171
70
192
0
VERTEX
8

10
24.935350
20
10.804208
30
526.491211
70
192
0
VERTEX
8

10
25.053431
20
10.715911
30
526.796570
70
192
0
VERTEX
8

10
25.077814
20
10.780593
30
526.794189
70
192
0
VERTEX
8

10
25.035067
20
10.845420
30
526.729370
70
192
0
VERTEX
8

10
25.033266
20
10.847619
30
526.653564
70
192
0
VERTEX
8

10
24.988863
20
10.806981
30
526.729370
70
192
0
VERTEX
8

10
24.991350
20
10.750278
30
526.782410
70
192
0
VERTEX
8

10
25.310396
20
10.393529
30
527.361877
70
192
0
VERTEX
8

10
25.334780
20
10.458209
30
527.359497
70
192
0
VERTEX
8

10
25.292025
20
10.523034
30
527.294678
70
192
0
VERTEX
8

10
25.290232
20
10.525237
30
527.218872
70
192
0
VERTEX
8

10
25.245813
20
10.484601
30
527.294678
70
192
0
VERTEX
8

10
25.248316
20
10.427897
30
527.347656
70
192
0
VERTEX
8

10
24.988634
20
10.762523
30
526.299011
70
192
0
VERTEX
8

10
25.011515
20
10.825973
30
526.314270
70
192
0
VERTEX
8

10
24.983095
20
10.902705
30
526.254822
70
192
0
VERTEX
8

10
24.998400
20
10.919124
30
526.182251
70
192
0
VERTEX
8

10
24.938936
20
10.865947
30
526.237305
70
192
0
VERTEX
8

10
24.930613
20
10.800275
30
526.277954
70
192
0
VERTEX
8

10
0
20
0
30
0
70
128
71
11
72
2
73
-1
0
VERTEX
8

10
0
20
0
30
0
70
128
71
10
72
-11
73
1
0
VERTEX
8

10
0
20
0
30
0
70
128
71
12
72
3
73
-2
0
VERTEX
8

10
0
20
0
30
0
70
128
71
11
72
-12
73
2
0
VERTEX
8

10
0
20
0
30
0
70
128
71
13
72
4
73
-3
0
VERTEX
8

10
0
20
0
30
0
70
128
71
12
72
-13
73
3
0
VERTEX
8

10
0
20
0
30
0
70
128
71
14
72
5
73
-4
0
VERTEX
8

10
0
20
0
30
0
70
128
71
13
72
-14
73
4
0
VERTEX
8

10
0
20
0
30
0
70
128
71
15
72
6
73
-5
0
VERTEX
8

10
0
20
0
30
0
70
128
71
14
72
-15
73
5
0
VERTEX
8

10
0
20
0
30
0
70
128
71
16
72
7
73
-6
0
VERTEX
8

10
0
20
0
30
0
70
128
71
15
72
-16
73
6
0
VERTEX
8

10
0
20
0
30
0
70
128
71
17
72
8
73
-7
0
VERTEX
8

10
0
20
0
30
0
70
128
71
16
72
-17
73
7
0
VERTEX
8

10
0
20
0
30
0
70
128
71
18
72
9
73
-8
0
VERTEX
8

10
0
20
0
30
0
70
128
71
17
72
-18
73
8
0
VERTEX
8

10
0
20
0
30
0
70
128
71
10
72
1
73
-9
0
VERTEX
8

10
0
20
0
30
0
70
128
71
18
72
-10
73
9
0
VERTEX
8

10
0
20
0
30
0
70
128
71
20
72
11
73
-10
0
VERTEX
8

10
0
20
0
30
0
70
128
71
19
72
-20
73
10
0
VERTEX
8

10
0
20
0
30
0
70
128
71
21
72
12
73
-11
0
VERTEX
8

10
0
20
0
30
0
70
128
71
20
72
-21
73
11
0
VERTEX
8

10
0
20
0
30
0
70
128
71
22
72
13
73
-12
0
VERTEX
8

10
0
20
0
30
0
70
128
71
21
72
-22
73
12
0
VERTEX
8

10
0
20
0
30
0
70
128
71
23
72
14
73
-13
0
VERTEX
8

10
0
20
0
30
0
70
128
71
22
72
-23
73
13
0
VERTEX
8

10
0
20
0
30
0
70
128
71
24
72
15
73
-14
0
VERTEX
8

10
0
20
0
30
0
70
128
71
23
72
-24
73
14
0
VERTEX
8

10
0
20
0
30
0
70
128
71
25
72
16
73
-15
0
VERTEX
8

10
0
20
0
30
0
70
128
71
24
72
-25
73
15
0
VERTEX
8

10
0
20
0
30
0
70
128
71
26
72
17
73
-16
0
VERTEX
8

10
0
20
0
30
0
70
128
71
25
72
-26
73
16
0
VERTEX
8

10
0
20
0
30
0
70
128
71
27
72
18
73
-17
0
VERTEX
8

10
0
20
0
30
0
70
128
71
26
72
-27
73
17
0
VERTEX
8

10
0
20
0
30
0
70
128
71
19
72
10
73
-18
0
VERTEX
8

10
0
20
0
30
0
70
128
71
27
72
-19
73
18
0
VERTEX
8

10
0
20
0
30
0
70
128
71
29
72
20
73
-19
0
VERTEX
8

10
0
20
0
30
0
70
128
71
28
72
-29
73
19
0
VERTEX
8

10
0
20
0
30
0
70
128
71
30
72
21
73
-20
0
VERTEX
8

10
0
20
0
30
0
70
128
71
29
72
-30
73
20
0
VERTEX
8

10
0
20
0
30
0
70
128
71
31
72
22
73
-21
0
VERTEX
8

10
0
20
0
30
0
70
128
71
30
72
-31
73
21
0
VERTEX
8

10
0
20
0
30
0
70
128
71
32
72
23
73
-22
0
VERTEX
8

10
0
20
0
30
0
70
128
71
31
72
-32
73
22
0
VERTEX
8

10
0
20
0
30
0
70
128
71
33
72
24
73
-23
0
VERTEX
8

10
0
20
0
30
0
70
128
71
32
72
-33
73
23
0
VERTEX
8

10
0
20
0
30
0
70
128
71
34
72
25
73
-24
0
VERTEX
8

10
0
20
0
30
0
70
128
71
33
72
-34
73
24
0
VERTEX
8

10
0
20
0
30
0
70
128
71
35
72
26
73
-25
0
VERTEX
8

10
0
20
0
30
0
70
128
71
34
72
-35
73
25
0
VERTEX
8

10
0
20
0
30
0
70
128
71
36
72
27
73
-26
0
VERTEX
8

10
0
20
0
30
0
70
128
71
35
72
-36
73
26
0
VERTEX
8

10
0
20
0
30
0
70
128
71
28
72
19
73
-27
0
VERTEX
8

10
0
20
0
30
0
70
128
71
36
72
-28
73
27
0
VERTEX
8

10
0
20
0
30
0
70
128
71
38
72
29
73
-28
0
VERTEX
8

10
0
20
0
30
0
70
128
71
37
72
-38
73
28
0
VERTEX
8

10
0
20
0
30
0
70
128
71
39
72
30
73
-29
0
VERTEX
8

10
0
20
0
30
0
70
128
71
38
72
-39
73
29
0
VERTEX
8

10
0
20
0
30
0
70
128
71
40
72
31
73
-30
0
VERTEX
8

10
0
20
0
30
0
70
128
71
39
72
-40
73
30
0
VERTEX
8

10
0
20
0
30
0
70
128
71
41
72
32
73
-31
0
VERTEX
8

10
0
20
0
30
0
70
128
71
40
72
-41
73
31
0
VERTEX
8

10
0
20
0
30
0
70
128
71
42
72
33
73
-32
0
VERTEX
8

10
0
20
0
30
0
70
128
71
41
72
-42
73
32
0
VERTEX
8

10
0
20
0
30
0
70
128
71
43
72
34
73
-33
0
VERTEX
8

10
0
20
0
30
0
70
128
71
42
72
-43
73
33
0
VERTEX
8

10
0
20
0
30
0
70
128
71
44
72
35
73
-34
0
VERTEX
8

10
0
20
0
30
0
70
128
71
43
72
-44
73
34
0
VERTEX
8

10
0
20
0
30
0
70
128
71
45
72
36
73
-35
0
VERTEX
8

10
0
20
0
30
0
70
128
71
44
72
-45
73
35
0
VERTEX
8

10
0
20
0
30
0
70
128
71
37
72
28
73
-36
0
VERTEX
8

10
0
20
0
30
0
70
128
71
45
72
-37
73
36
0
VERTEX
8

10
0
20
0
30
0
70
128
71
37
72
38
73
39
0
VERTEX
8

10
0
20
0
30
0
70
128
71
45
72
37
73
39
0
VERTEX
8

10
0
20
0
30
0
70
128
71
39
72
40
73
45
0
VERTEX
8

10
0
20
0
30
0
70
128
71
44
72
45
73
40
0
VERTEX
8

10
0
20
0
30
0
70
128
71
40
72
43
73
44
0
VERTEX
8

10
0
20
0
30
0
70
128
71
43
72
40
73
41
0
VERTEX
8

10
0
20
0
30
0
70
128
71
42
72
43
73
41
0
VERTEX
8

10
0
20
0
30
0
70
128
71
46
72
51
73
47
0
VERTEX
8

10
0
20
0
30
0
70
128
71
51
72
48
73
47
0
VERTEX
8

10
0
20
0
30
0
70
128
71
51
72
50
73
48
0
VERTEX
8

10
0
20
0
30
0
70
128
71
50
72
49
73
48
0
VERTEX
8

10
0
20
0
30
0
70
128
71
52
72
57
73
53
0
VERTEX
8

10
0
20
0
30
0
70
128
71
57
72
54
73
53
0
VERTEX
8

10
0
20
0
30
0
70
128
71
57
72
56
73
54
0
VERTEX
8

10
0
20
0
30
0
70
128
71
56
72
55
73
54
0
VERTEX
8

10
0
20
0
30
0
70
128
71
58
72
63
73
59
0
VERTEX
8

10
0
20
0
30
0
70
128
71
63
72
60
73
59
0
VERTEX
8

10
0
20
0
30
0
70
128
71
63
72
62
73
60
0
VERTEX
8

10
0
20
0
30
0
70
128
71
62
72
61
73
60
0
VERTEX
8

10
0
20
0
30
0
70
128
71
64
72
69
73
65
0
VERTEX
8

10
0
20
0
30
0
70
128
71
69
72
66
73
65
0
VERTEX
8

10
0
20
0
30
0
70
128
71
69
72
68
73
66
0
VERTEX
8

10
0
20
0
30
0
70
128
71
68
72
67
73
66
0
VERTEX
8

10
0
20
0
30
0
70
128
71
70
72
75
73
71
0
VERTEX
8

10
0
20
0
30
0
70
128
71
75
72
72
73
71
0
VERTEX
8

10
0
20
0
30
0
70
128
71
75
72
74
73
72
0
VERTEX
8

10
0
20
0
30
0
70
128
71
74
72
73
73
72
0
VERTEX
8

10
0
20
0
30
0
70
128
71
76
72
81
73
77
0
VERTEX
8

10
0
20
0
30
0
70
128
71
81
72
78
73
77
0
VERTEX
8

10
0
20
0
30
0
70
128
71
81
72
80
73
78
0
VERTEX
8

10
0
20
0
30
0
70
128
71
80
72
79
73
78
0
VERTEX
8

10
0
20
0
30
0
70
128
71
82
72
87
73
83
0
VERTEX
8

10
0
20
0
30
0
70
128
71
87
72
84
73
83
0
VERTEX
8

10
0
20
0
30
0
70
128
71
87
72
86
73
84
0
VERTEX
8

10
0
20
0
30
0
70
128
71
86
72
85
73
84
0
VERTEX
8

10
0
20
0
30
0
70
128
71
89
72
93
73
88
0
VERTEX
8

10
0
20
0
30
0
70
128
71
89
72
90
73
93
0
VERTEX
8

10
0
20
0
30
0
70
128
71
90
72
92
73
93
0
VERTEX
8

10
0
20
0
30
0
70
128
71
90
72
91
73
92
0
VERTEX
8

10
0
20
0
30
0
70
128
71
95
72
99
73
94
0
VERTEX
8

10
0
20
0
30
0
70
128
71
95
72
96
73
99
0
VERTEX
8

10
0
20
0
30
0
70
128
71
96
72
98
73
99
0
VERTEX
8

10
0
20
0
30
0
70
128
71
96
72
97
73
98
0
VERTEX
8

10
0
20
0
30
0
70
128
71
100
72
101
73
-104
0
VERTEX
8

10
0
20
0
30
0
70
128
71
-100
72
104
73
103
0
VERTEX
8

10
0
20
0
30
0
70
128
71
101
72
102
73
-105
0
VERTEX
8

10
0
20
0
30
0
70
128
71
-101
72
105
73
104
0
VERTEX
8

10
0
20
0
30
0
70
128
71
102
72
100
73
-103
0
VERTEX
8

10
0
20
0
30
0
70
128
71
-102
72
103
73
105
0
VERTEX
8

10
0
20
0
30
0
70
128
71
103
72
104
73
-107
0
VERTEX
8

10
0
20
0
30
0
70
128
71
-103
72
107
73
106
0
VERTEX
8

10
0
20
0
30
0
70
128
71
104
72
105
73
-108
0
VERTEX
8

10
0
20
0
30
0
70
128
71
-104
72
108
73
107
0
VERTEX
8

10
0
20
0
30
0
70
128
71
105
72
103
73
-106
0
VERTEX
8

10
0
20
0
30
0
70
128
71
-105
72
106
73
108
0
VERTEX
8

10
0
20
0
30
0
70
128
71
106
72
107
73
-110
0
VERTEX
8

10
0
20
0
30
0
70
128
71
-106
72
110
73
109
0
VERTEX
8

10
0
20
0
30
0
70
128
71
107
72
108
73
-111
0
VERTEX
8

10
0
20
0
30
0
70
128
71
-107
72
111
73
110
0
VERTEX
8

10
0
20
0
30
0
70
128
71
108
72
106
73
-109
0
VERTEX
8

10
0
20
0
30
0
70
128
71
-108
72
109
73
111
0
VERTEX
8

10
0
20
0
30
0
70
128
71
109
72
110
73
-113
0
VERTEX
8

10
0
20
0
30
0
70
128
71
-109
72
113
73
112
0
VERTEX
8

10
0
20
0
30
0
70
128
71
110
72
111
73
-114
0
VERTEX
8

10
0
20
0
30
0
70
128
71
-110
72
114
73
113
0
VERTEX
8

10
0
20
0
30
0
70
128
71
111
72
109
73
-112
0
VERTEX
8

10
0
20
0
30
0
70
128
71
-111
72
112
73
114
0
VERTEX
8

10
0
20
0
30
0
70
128
71
112
72
113
73
-116
0
VERTEX
8

10
0
20
0
30
0
70
128
71
-112
72
116
73
115
0
VERTEX
8

10
0
20
0
30
0
70
128
71
113
72
114
73
-117
0
VERTEX
8

10
0
20
0
30
0
70
128
71
-113
72
117
73
116
0
VERTEX
8

10
0
20
0
30
0
70
128
71
114
72
112
73
-115
0
VERTEX
8

10
0
20
0
30
0
70
128
71
-114
72
115
73
117
0
VERTEX
8

10
0
20
0
30
0
70
128
71
115
72
116
73
-119
0
VERTEX
8

10
0
20
0
30
0
70
128
71
-115
72
119
73
118
0
VERTEX
8

10
0
20
0
30
0
70
128
71
116
72
117
73
-120
0
VERTEX
8

10
0
20
0
30
0
70
128
71
-116
72
120
73
119
0
VERTEX
8

10
0
20
0
30
0
70
128
71
117
72
115
73
-118
0
VERTEX
8

10
0
20
0
30
0
70
128
71
-117
72
118
73
120
0
VERTEX
8

10
0
20
0
30
0
70
128
71
118
72
119
73
-122
0
VERTEX
8

10
0
20
0
30
0
70
128
71
-118
72
122
73
121
0
VERTEX
8

10
0
20
0
30
0
70
128
71
119
72
120
73
-123
0
VERTEX
8

10
0
20
0
30
0
70
128
71
-119
72
123
73
122
0
VERTEX
8

10
0
20
0
30
0
70
128
71
120
72
118
73
-121
0
VERTEX
8

10
0
20
0
30
0
70
128
71
-120
72
121
73
123
0
VERTEX
8

10
0
20
0
30
0
70
128
71
121
72
122
73
-125
0
VERTEX
8

10
0
20
0
30
0
70
128
71
-121
72
125
73
124
0
VERTEX
8

10
0
20
0
30
0
70
128
71
122
72
123
73
-126
0
VERTEX
8

10
0
20
0
30
0
70
128
71
-122
72
126
73
125
0
VERTEX
8

10
0
20
0
30
0
70
128
71
123
72
121
73
-124
0
VERTEX
8

10
0
20
0
30
0
70
128
71
-123
72
124
73
126
0
VERTEX
8

10
0
20
0
30
0
70
128
71
128
72
132
73
127
0
VERTEX
8

10
0
20
0
30
0
70
128
71
128
72
129
73
132
0
VERTEX
8

10
0
20
0
30
0
70
128
71
129
72
131
73
132
0
VERTEX
8

10
0
20
0
30
0
70
128
71
129
72
130
73
131
0
VERTEX
8

10
0
20
0
30
0
70
128
71
134
72
138
73
133
0
VERTEX
8

10
0
20
0
30
0
70
128
71
134
72
135
73
138
0
VERTEX
8

10
0
20
0
30
0
70
128
71
135
72
137
73
138
0
VERTEX
8

10
0
20
0
30
0
70
128
71
135
72
136
73
137
0
VERTEX
8

10
0
20
0
30
0
70
128
71
140
72
144
73
139
0
VERTEX
8

10
0
20
0
30
0
70
128
71
140
72
141
73
144
0
VERTEX
8

10
0
20
0
30
0
70
128
71
141
72
143
73
144
0
VERTEX
8

10
0
20
0
30
0
70
128
71
141
72
142
73
143
0
VERTEX
8

10
0
20
0
30
0
70
128
71
146
72
150
73
145
0
VERTEX
8

10
0
20
0
30
0
70
128
71
146
72
147
73
150
0
VERTEX
8

10
0
20
0
30
0
70
128
71
147
72
149
73
150
0
VERTEX
8

10
0
20
0
30
0
70
128
71
147
72
148
73
149
0
VERTEX
8

10
0
20
0
30
0
70
128
71
152
72
156
73
151
0
VERTEX
8

10
0
20
0
30
0
70
128
71
152
72
153
73
156
0
VERTEX
8

10
0
20
0
30
0
70
128
71
153
72
155
73
156
0
VERTEX
8

10
0
20
0
30
0
70
128
71
153
72
154
73
155
0
VERTEX
8

10
0
20
0
30
0
70
128
71
157
72
162
73
158
0
VERTEX
8

10
0
20
0
30
0
70
128
71
162
72
159
73
158
0
VERTEX
8

10
0
20
0
30
0
70
128
71
162
72
161
73
159
0
VERTEX
8

10
0
20
0
30
0
70
128
71
161
72
160
73
159
0
VERTEX
8

10
0
20
0
30
0
70
128
71
163
72
168
73
164
0
VERTEX
8

10
0
20
0
30
0
70
128
71
168
72
165
73
164
0
VERTEX
8

10
0
20
0
30
0
70
128
71
168
72
167
73
165
0
VERTEX
8

10
0
20
0
30
0
70
128
71
167
72
166
73
165
0
VERTEX
8

10
0
20
0
30
0
70
128
71
169
72
174
73
170
0
VERTEX
8

10
0
20
0
30
0
70
128
71
174
72
171
73
170
0
VERTEX
8

10
0
20
0
30
0
70
128
71
174
72
173
73
171
0
VERTEX
8

10
0
20
0
30
0
70
128
71
173
72
172
73
171
0
VERTEX
8

10
0
20
0
30
0
70
128
71
175
72
180
73
176
0
VERTEX
8

10
0
20
0
30
0
70
128
71
180
72
177
73
176
0
VERTEX
8

10
0
20
0
30
0
70
128
71
180
72
179
73
177
0
VERTEX
8

10
0
20
0
30
0
70
128
71
179
72
178
73
177
0
VERTEX
8

10
0
20
0
30
0
70
128
71
181
72
186
73
182
0
VERTEX
8

10
0
20
0
30
0
70
128
71
186
72
183
73
182
0
VERTEX
8

10
0
20
0
30
0
70
128
71
186
72
185
73
183
0
VERTEX
8

10
0
20
0
30
0
70
128
71
185
72
184
73
183
0
VERTEX
8

10
0
20
0
30
0
70
128
71
187
72
192
73
188
0
VERTEX
8

10
0
20
0
30
0
70
128
71
192
72
189
73
188
0
VERTEX
8

10
0
20
0
30
0
70
128
71
192
72
191
73
189
0
VERTEX
8

10
0
20
0
30
0
70
128
71
191
72
190
73
189
0
VERTEX
8

10
0
20
0
30
0
70
128
71
193
72
198
73
194
0
VERTEX
8

10
0
20
0
30
0
70
128
71
198
72
195
73
194
0
VERTEX
8

10
0
20
0
30
0
70
128
71
198
72
197
73
195
0
VERTEX
8

10
0
20
0
30
0
70
128
71
197
72
196
73
195
0
VERTEX
8

10
0
20
0
30
0
70
128
71
200
72
204
73
199
0
VERTEX
8

10
0
20
0
30
0
70
128
71
200
72
201
73
204
0
VERTEX
8

10
0
20
0
30
0
70
128
71
201
72
203
73
204
0
VERTEX
8

10
0
20
0
30
0
70
128
71
201
72
202
73
203
0
VERTEX
8

10
0
20
0
30
0
70
128
71
206
72
210
73
205
0
VERTEX
8

10
0
20
0
30
0
70
128
71
206
72
207
73
210
0
VERTEX
8

10
0
20
0
30
0
70
128
71
207
72
209
73
210
0
VERTEX
8

10
0
20
0
30
0
70
128
71
207
72
208
73
209
0
VERTEX
8

10
0
20
0
30
0
70
128
71
211
72
212
73
-215
0
VERTEX
8

10
0
20
0
30
0
70
128
71
-211
72
215
73
214
0
VERTEX
8

10
0
20
0
30
0
70
128
71
212
72
213
73
-216
0
VERTEX
8

10
0
20
0
30
0
70
128
71
-212
72
216
73
215
0
VERTEX
8

10
0
20
0
30
0
70
128
71
213
72
211
73
-214
0
VERTEX
8

10
0
20
0
30
0
70
128
71
-213
72
214
73
216
0
VERTEX
8

10
0
20
0
30
0
70
128
71
214
72
215
73
-218
0
VERTEX
8

10
0
20
0
30
0
70
128
71
-214
72
218
73
217
0
VERTEX
8

10
0
20
0
30
0
70
128
71
215
72
216
73
-219
0
VERTEX
8

10
0
20
0
30
0
70
128
71
-215
72
219
73
218
0
VERTEX
8

10
0
20
0
30
0
70
128
71
216
72
214
73
-217
0
VERTEX
8

10
0
20
0
30
0
70
128
71
-216
72
217
73
219
0
VERTEX
8

10
0
20
0
30
0
70
128
71
217
72
218
73
-221
0
VERTEX
8

10
0
20
0
30
0
70
128
71
-217
72
221
73
220
0
VERTEX
8

10
0
20
0
30
0
70
128
71
218
72
219
73
-222
0
VERTEX
8

10
0
20
0
30
0
70
128
71
-218
72
222
73
221
0
VERTEX
8

10
0
20
0
30
0
70
128
71
219
72
217
73
-220
0
VERTEX
8

10
0
20
0
30
0
70
128
71
-219
72
220
73
222
0
VERTEX
8

10
0
20
0
30
0
70
128
71
220
72
221
73
-224
0
VERTEX
8

10
0
20
0
30
0
70
128
71
-220
72
224
73
223
0
VERTEX
8

10
0
20
0
30
0
70
128
71
221
72
222
73
-225
0
VERTEX
8

10
0
20
0
30
0
70
128
71
-221
72
225
73
224
0
VERTEX
8

10
0
20
0
30
0
70
128
71
222
72
220
73
-223
0
VERTEX
8

10
0
20
0
30
0
70
128
71
-222
72
223
73
225
0
VERTEX
8

10
0
20
0
30
0
70
128
71
223
72
224
73
-227
0
VERTEX
8

10
0
20
0
30
0
70
128
71
-223
72
227
73
226
0
VERTEX
8

10
0
20
0
30
0
70
128
71
224
72
225
73
-228
0
VERTEX
8

10
0
20
0
30
0
70
128
71
-224
72
228
73
227
0
VERTEX
8

10
0
20
0
30
0
70
128
71
225
72
223
73
-226
0
VERTEX
8

10
0
20
0
30
0
70
128
71
-225
72
226
73
228
0
VERTEX
8

10
0
20
0
30
0
70
128
71
226
72
227
73
-230
0
VERTEX
8

10
0
20
0
30
0
70
128
71
-226
72
230
73
229
0
VERTEX
8

10
0
20
0
30
0
70
128
71
227
72
228
73
-231
0
VERTEX
8

10
0
20
0
30
0
70
128
71
-227
72
231
73
230
0
VERTEX
8

10
0
20
0
30
0
70
128
71
228
72
226
73
-229
0
VERTEX
8

10
0
20
0
30
0
70
128
71
-228
72
229
73
231
0
VERTEX
8

10
0
20
0
30
0
70
128
71
229
72
230
73
-233
0
VERTEX
8

10
0
20
0
30
0
70
128
71
-229
72
233
73
232
0
VERTEX
8

10
0
20
0
30
0
70
128
71
230
72
231
73
-234
0
VERTEX
8

10
0
20
0
30
0
70
128
71
-230
72
234
73
233
0
VERTEX
8

10
0
20
0
30
0
70
128
71
231
72
229
73
-232
0
VERTEX
8

10
0
20
0
30
0
70
128
71
-231
72
232
73
234
0
VERTEX
8

10
0
20
0
30
0
70
128
71
232
72
233
73
-236
0
VERTEX
8

10
0
20
0
30
0
70
128
71
-232
72
236
73
235
0
VERTEX
8

10
0
20
0
30
0
70
128
71
233
72
234
73
-237
0
VERTEX
8

10
0
20
0
30
0
70
128
71
-233
72
237
73
236
0
VERTEX
8

10
0
20
0
30
0
70
128
71
234
72
232
73
-235
0
VERTEX
8

10
0
20
0
30
0
70
128
71
-234
72
235
73
237
0
VERTEX
8

10
0
20
0
30
0
70
128
71
239
72
243
73
238
0
VERTEX
8

10
0
20
0
30
0
70
128
71
239
72
240
73
243
0
VERTEX
8

10
0
20
0
30
0
70
128
71
240
72
242
73
243
0
VERTEX
8

10
0
20
0
30
0
70
128
71
240
72
241
73
242
0
VERTEX
8

10
0
20
0
30
0
70
128
71
245
72
249
73
244
0
VERTEX
8

10
0
20
0
30
0
70
128
71
245
72
246
73
249
0
VERTEX
8

10
0
20
0
30
0
70
128
71
246
72
248
73
249
0
VERTEX
8

10
0
20
0
30
0
70
128
71
246
72
247
73
248
0
VERTEX
8

10
0
20
0
30
0
70
128
71
251
72
255
73
250
0
VERTEX
8

10
0
20
0
30
0
70
128
71
251
72
252
73
255
0
VERTEX
8

10
0
20
0
30
0
70
128
71
252
72
254
73
255
0
VERTEX
8

10
0
20
0
30
0
70
128
71
252
72
253
73
254
0
VERTEX
8

10
0
20
0
30
0
70
128
71
257
72
261
73
256
0
VERTEX
8

10
0
20
0
30
0
70
128
71
257
72
258
73
261
0
VERTEX
8

10
0
20
0
30
0
70
128
71
258
72
260
73
261
0
VERTEX
8

10
0
20
0
30
0
70
128
71
258
72
259
73
260
0
VERTEX
8

10
0
20
0
30
0
70
128
71
263
72
267
73
262
0
VERTEX
8

10
0
20
0
30
0
70
128
71
263
72
264
73
267
0
VERTEX
8

10
0
20
0
30
0
70
128
71
264
72
266
73
267
0
VERTEX
8

10
0
20
0
30
0
70
128
71
264
72
265
73
266
0
VERTEX
8

10
0
20
0
30
0
70
128
71
268
72
273
73
269
0
VERTEX
8

10
0
20
0
30
0
70
128
71
273
72
270
73
269
0
VERTEX
8

10
0
20
0
30
0
70
128
71
273
72
272
73
270
0
VERTEX
8

10
0
20
0
30
0
70
128
71
272
72
271
73
270
0
VERTEX
8

10
0
20
0
30
0
70
128
71
274
72
279
73
275
0
VERTEX
8

10
0
20
0
30
0
70
128
71
279
72
276
73
275
0
VERTEX
8

10
0
20
0
30
0
70
128
71
279
72
278
73
276
0
VERTEX
8

10
0
20
0
30
0
70
128
71
278
72
277
73
276
0
VERTEX
8

10
0
20
0
30
0
70
128
71
280
72
285
73
281
0
VERTEX
8

10
0
20
0
30
0
70
128
71
285
72
282
73
281
0
VERTEX
8

10
0
20
0
30
0
70
128
71
285
72
284
73
282
0
VERTEX
8

10
0
20
0
30
0
70
128
71
284
72
283
73
282
0
VERTEX
8

10
0
20
0
30
0
70
128
71
286
72
291
73
287
0
VERTEX
8

10
0
20
0
30
0
70
128
71
291
72
288
73
287
0
VERTEX
8

10
0
20
0
30
0
70
128
71
291
72
290
73
288
0
VERTEX
8

10
0
20
0
30
0
70
128
71
290
72
289
73
288
0
VERTEX
8

10
0
20
0
30
0
70
128
71
292
72
297
73
293
0
VERTEX
8

10
0
20
0
30
0
70
128
71
297
72
294
73
293
0
VERTEX
8

10
0
20
0
30
0
70
128
71
297
72
296
73
294
0
VERTEX
8

10
0
20
0
30
0
70
128
71
296
72
295
73
294
0
VERTEX
8

10
0
20
0
30
0
70
128
71
298
72
303
73
299
0
VERTEX
8

10
0
20
0
30
0
70
128
71
303
72
300
73
299
0
VERTEX
8

10
0
20
0
30
0
70
128
71
303
72
302
73
300
0
VERTEX
8

10
0
20
0
30
0
70
128
71
302
72
301
73
300
0
VERTEX
8

10
0
20
0
30
0
70
128
71
304
72
309
73
305
0
VERTEX
8

10
0
20
0
30
0
70
128
71
309
72
306
73
305
0
VERTEX
8

10
0
20
0
30
0
70
128
71
309
72
308
73
306
0
VERTEX
8

10
0
20
0
30
0
70
128
71
308
72
307
73
306
0
VERTEX
8

10
0
20
0
30
0
70
128
71
311
72
315
73
310
0
VERTEX
8

10
0
20
0
30
0
70
128
71
311
72
312
73
315
0
VERTEX
8

10
0
20
0
30
0
70
128
71
312
72
314
73
315
0
VERTEX
8

10
0
20
0
30
0
70
128
71
312
72
313
73
314
0
VERTEX
8

10
0
20
0
30
0
70
128
71
317
72
321
73
316
0
VERTEX
8

10
0
20
0
30
0
70
128
71
317
72
318
73
321
0
VERTEX
8

10
0
20
0
30
0
70
128
71
318
72
320
73
321
0
VERTEX
8

10
0
20
0
30
0
70
128
71
318
72
319
73
320
0
VERTEX
8

10
0
20
0
30
0
70
128
71
322
72
323
73
-326
0
VERTEX
8

10
0
20
0
30
0
70
128
71
-322
72
326
73
325
0
VERTEX
8

10
0
20
0
30
0
70
128
71
323
72
324
73
-327
0
VERTEX
8

10
0
20
0
30
0
70
128
71
-323
72
327
73
326
0
VERTEX
8

10
0
20
0
30
0
70
128
71
324
72
322
73
-325
0
VERTEX
8

10
0
20
0
30
0
70
128
71
-324
72
325
73
327
0
VERTEX
8

10
0
20
0
30
0
70
128
71
325
72
326
73
-329
0
VERTEX
8

10
0
20
0
30
0
70
128
71
-325
72
329
73
328
0
VERTEX
8

10
0
20
0
30
0
70
128
71
326
72
327
73
-330
0
VERTEX
8

10
0
20
0
30
0
70
128
71
-326
72
330
73
329
0
VERTEX
8

10
0
20
0
30
0
70
128
71
327
72
325
73
-328
0
VERTEX
8

10
0
20
0
30
0
70
128
71
-327
72
328
73
330
0
VERTEX
8

10
0
20
0
30
0
70
128
71
328
72
329
73
-332
0
VERTEX
8

10
0
20
0
30
0
70
128
71
-328
72
332
73
331
0
VERTEX
8

10
0
20
0
30
0
70
128
71
329
72
330
73
-333
0
VERTEX
8

10
0
20
0
30
0
70
128
71
-329
72
333
73
332
0
VERTEX
8

10
0
20
0
30
0
70
128
71
330
72
328
73
-331
0
VERTEX
8

10
0
20
0
30
0
70
128
71
-330
72
331
73
333
0
VERTEX
8

10
0
20
0
30
0
70
128
71
331
72
332
73
-335
0
VERTEX
8

10
0
20
0
30
0
70
128
71
-331
72
335
73
334
0
VERTEX
8

10
0
20
0
30
0
70
128
71
332
72
333
73
-336
0
VERTEX
8

10
0
20
0
30
0
70
128
71
-332
72
336
73
335
0
VERTEX
8

10
0
20
0
30
0
70
128
71
333
72
331
73
-334
0
VERTEX
8

10
0
20
0
30
0
70
128
71
-333
72
334
73
336
0
VERTEX
8

10
0
20
0
30
0
70
128
71
334
72
335
73
-338
0
VERTEX
8

10
0
20
0
30
0
70
128
71
-334
72
338
73
337
0
VERTEX
8

10
0
20
0
30
0
70
128
71
335
72
336
73
-339
0
VERTEX
8

10
0
20
0
30
0
70
128
71
-335
72
339
73
338
0
VERTEX
8

10
0
20
0
30
0
70
128
71
336
72
334
73
-337
0
VERTEX
8

10
0
20
0
30
0
70
128
71
-336
72
337
73
339
0
VERTEX
8

10
0
20
0
30
0
70
128
71
337
72
338
73
-341
0
VERTEX
8

10
0
20
0
30
0
70
128
71
-337
72
341
73
340
0
VERTEX
8

10
0
20
0
30
0
70
128
71
338
72
339
73
-342
0
VERTEX
8

10
0
20
0
30
0
70
128
71
-338
72
342
73
341
0
VERTEX
8

10
0
20
0
30
0
70
128
71
339
72
337
73
-340
0
VERTEX
8

10
0
20
0
30
0
70
128
71
-339
72
340
73
342
0
VERTEX
8

10
0
20
0
30
0
70
128
71
340
72
341
73
-344
0
VERTEX
8

10
0
20
0
30
0
70
128
71
-340
72
344
73
343
0
VERTEX
8

10
0
20
0
30
0
70
128
71
341
72
342
73
-345
0
VERTEX
8

10
0
20
0
30
0
70
128
71
-341
72
345
73
344
0
VERTEX
8

10
0
20
0
30
0
70
128
71
342
72
340
73
-343
0
VERTEX
8

10
0
20
0
30
0
70
128
71
-342
72
343
73
345
0
VERTEX
8

10
0
20
0
30
0
70
128
71
343
72
344
73
-347
0
VERTEX
8

10
0
20
0
30
0
70
128
71
-343
72
347
73
346
0
VERTEX
8

10
0
20
0
30
0
70
128
71
344
72
345
73
-348
0
VERTEX
8

10
0
20
0
30
0
70
128
71
-344
72
348
73
347
0
VERTEX
8

10
0
20
0
30
0
70
128
71
345
72
343
73
-346
0
VERTEX
8

10
0
20
0
30
0
70
128
71
-345
72
346
73
348
0
VERTEX
8

10
0
20
0
30
0
70
128
71
350
72
354
73
349
0
VERTEX
8

10
0
20
0
30
0
70
128
71
350
72
351
73
354
0
VERTEX
8

10
0
20
0
30
0
70
128
71
351
72
353
73
354
0
VERTEX
8

10
0
20
0
30
0
70
128
71
351
72
352
73
353
0
VERTEX
8

10
0
20
0
30
0
70
128
71
356
72
360
73
355
0
VERTEX
8

10
0
20
0
30
0
70
128
71
356
72
357
73
360
0
VERTEX
8

10
0
20
0
30
0
70
128
71
357
72
359
73
360
0
VERTEX
8

10
0
20
0
30
0
70
128
71
357
72
358
73
359
0
VERTEX
8

10
0
20
0
30
0
70
128
71
362
72
366
73
361
0
VERTEX
8

10
0
20
0
30
0
70
128
71
362
72
363
73
366
0
VERTEX
8

10
0
20
0
30
0
70
128
71
363
72
365
73
366
0
VERTEX
8

10
0
20
0
30
0
70
128
71
363
72
364
73
365
0
VERTEX
8

10
0
20
0
30
0
70
128
71
368
72
372
73
367
0
VERTEX
8

10
0
20
0
30
0
70
128
71
368
72
369
73
372
0
VERTEX
8

10
0
20
0
30
0
70
128
71
369
72
371
73
372
0
VERTEX
8

10
0
20
0
30
0
70
128
71
369
72
370
73
371
0
VERTEX
8

10
0
20
0
30
0
70
128
71
374
72
378
73
373
0
VERTEX
8

10
0
20
0
30
0
70
128
71
374
72
375
73
378
0
VERTEX
8

10
0
20
0
30
0
70
128
71
375
72
377
73
378
0
VERTEX
8

10
0
20
0
30
0
70
128
71
375
72
376
73
377
0
VERTEX
8

10
0
20
0
30
0
70
128
71
379
72
384
73
380
0
VERTEX
8

10
0
20
0
30
0
70
128
71
384
72
381
73
380
0
VERTEX
8

10
0
20
0
30
0
70
128
71
384
72
383
73
381
0
VERTEX
8

10
0
20
0
30
0
70
128
71
383
72
382
73
381
0
VERTEX
8

10
0
20
0
30
0
70
128
71
385
72
390
73
386
0
VERTEX
8

10
0
20
0
30
0
70
128
71
390
72
387
73
386
0
VERTEX
8

10
0
20
0
30
0
70
128
71
390
72
389
73
387
0
VERTEX
8

10
0
20
0
30
0
70
128
71
389
72
388
73
387
0
VERTEX
8

10
0
20
0
30
0
70
128
71
391
72
396
73
392
0
VERTEX
8

10
0
20
0
30
0
70
128
71
396
72
393
73
392
0
VERTEX
8

10
0
20
0
30
0
70
128
71
396
72
395
73
393
0
VERTEX
8

10
0
20
0
30
0
70
128
71
395
72
394
73
393
0
VERTEX
8

10
0
20
0
30
0
70
128
71
397
72
402
73
398
0
VERTEX
8

10
0
20
0
30
0
70
128
71
402
72
399
73
398
0
VERTEX
8

10
0
20
0
30
0
70
128
71
402
72
401
73
399
0
VERTEX
8

10
0
20
0
30
0
70
128
71
401
72
400
73
399
0
VERTEX
8

10
0
20
0
30
0
70
128
71
403
72
408
73
404
0
VERTEX
8

10
0
20
0
30
0
70
128
71
408
72
405
73
404
0
VERTEX
8

10
0
20
0
30
0
70
128
71
408
72
407
73
405
0
VERTEX
8

10
0
20
0
30
0
70
128
71
407
72
406
73
405
0
VERTEX
8

10
0
20
0
30
0
70
128
71
409
72
414
73
410
0
VERTEX
8

10
0
20
0
30
0
70
128
71
414
72
411
73
410
0
VERTEX
8

10
0
20
0
30
0
70
128
71
414
72
413
73
411
0
VERTEX
8

10
0
20
0
30
0
70
128
71
413
72
412
73
411
0
VERTEX
8

10
0
20
0
30
0
70
128
71
415
72
420
73
416
0
VERTEX
8

10
0
20
0
30
0
70
128
71
420
72
417
73
416
0
VERTEX
8

10
0
20
0
30
0
70
128
71
420
72
419
73
417
0
VERTEX
8

10
0
20
0
30
0
70
128
71
419
72
418
73
417
0
VERTEX
8

10
0
20
0
30
0
70
128
71
422
72
426
73
421
0
VERTEX
8

10
0
20
0
30
0
70
128
71
422
72
423
73
426
0
VERTEX
8

10
0
20
0
30
0
70
128
71
423
72
425
73
426
0
VERTEX
8

10
0
20
0
30
0
70
128
71
423
72
424
73
425
0
VERTEX
8

10
0
20
0
30
0
70
128
71
428
72
432
73
427
0
VERTEX
8

10
0
20
0
30
0
70
128
71
428
72
429
73
432
0
VERTEX
8

10
0
20
0
30
0
70
128
71
429
72
431
73
432
0
VERTEX
8

10
0
20
0
30
0
70
128
71
429
72
430
73
431
0
VERTEX
8

10
0
20
0
30
0
70
128
71
433
72
434
73
-437
0
VERTEX
8

10
0
20
0
30
0
70
128
71
-433
72
437
73
436
0
VERTEX
8

10
0
20
0
30
0
70
128
71
434
72
435
73
-438
0
VERTEX
8

10
0
20
0
30
0
70
128
71
-434
72
438
73
437
0
VERTEX
8

10
0
20
0
30
0
70
128
71
435
72
433
73
-436
0
VERTEX
8

10
0
20
0
30
0
70
128
71
-435
72
436
73
438
0
VERTEX
8

10
0
20
0
30
0
70
128
71
436
72
437
73
-440
0
VERTEX
8

10
0
20
0
30
0
70
128
71
-436
72
440
73
439
0
VERTEX
8

10
0
20
0
30
0
70
128
71
437
72
438
73
-441
0
VERTEX
8

10
0
20
0
30
0
70
128
71
-437
72
441
73
440
0
VERTEX
8

10
0
20
0
30
0
70
128
71
438
72
436
73
-439
0
VERTEX
8

10
0
20
0
30
0
70
128
71
-438
72
439
73
441
0
VERTEX
8

10
0
20
0
30
0
70
128
71
439
72
440
73
-443
0
VERTEX
8

10
0
20
0
30
0
70
128
71
-439
72
443
73
442
0
VERTEX
8

10
0
20
0
30
0
70
128
71
440
72
441
73
-444
0
VERTEX
8

10
0
20
0
30
0
70
128
71
-440
72
444
73
443
0
VERTEX
8

10
0
20
0
30
0
70
128
71
441
72
439
73
-442
0
VERTEX
8

10
0
20
0
30
0
70
128
71
-441
72
442
73
444
0
VERTEX
8

10
0
20
0
30
0
70
128
71
442
72
443
73
-446
0
VERTEX
8

10
0
20
0
30
0
70
128
71
-442
72
446
73
445
0
VERTEX
8

10
0
20
0
30
0
70
128
71
443
72
444
73
-447
0
VERTEX
8

10
0
20
0
30
0
70
128
71
-443
72
447
73
446
0
VERTEX
8

10
0
20
0
30
0
70
128
71
444
72
442
73
-445
0
VERTEX
8

10
0
20
0
30
0
70
128
71
-444
72
445
73
447
0
VERTEX
8

10
0
20
0
30
0
70
128
71
445
72
446
73
-449
0
VERTEX
8

10
0
20
0
30
0
70
128
71
-445
72
449
73
448
0
VERTEX
8

10
0
20
0
30
0
70
128
71
446
72
447
73
-450
0
VERTEX
8

10
0
20
0
30
0
70
128
71
-446
72
450
73
449
0
VERTEX
8

10
0
20
0
30
0
70
128
71
447
72
445
73
-448
0
VERTEX
8

10
0
20
0
30
0
70
128
71
-447
72
448
73
450
0
VERTEX
8

10
0
20
0
30
0
70
128
71
448
72
449
73
-452
0
VERTEX
8

10
0
20
0
30
0
70
128
71
-448
72
452
73
451
0
VERTEX
8

10
0
20
0
30
0
70
128
71
449
72
450
73
-453
0
VERTEX
8

10
0
20
0
30
0
70
128
71
-449
72
453
73
452
0
VERTEX
8

10
0
20
0
30
0
70
128
71
450
72
448
73
-451
0
VERTEX
8

10
0
20
0
30
0
70
128
71
-450
72
451
73
453
0
VERTEX
8

10
0
20
0
30
0
70
128
71
451
72
452
73
-455
0
VERTEX
8

10
0
20
0
30
0
70
128
71
-451
72
455
73
454
0
VERTEX
8

10
0
20
0
30
0
70
128
71
452
72
453
73
-456
0
VERTEX
8

10
0
20
0
30
0
70
128
71
-452
72
456
73
455
0
VERTEX
8

10
0
20
0
30
0
70
128
71
453
72
451
73
-454
0
VERTEX
8

10
0
20
0
30
0
70
128
71
-453
72
454
73
456
0
VERTEX
8

10
0
20
0
30
0
70
128
71
454
72
455
73
-458
0
VERTEX
8

10
0
20
0
30
0
70
128
71
-454
72
458
73
457
0
VERTEX
8

10
0
20
0
30
0
70
128
71
455
72
456
73
-459
0
VERTEX
8

10
0
20
0
30
0
70
128
71
-455
72
459
73
458
0
VERTEX
8

10
0
20
0
30
0
70
128
71
456
72
454
73
-457
0
VERTEX
8

10
0
20
0
30
0
70
128
71
-456
72
457
73
459
0
VERTEX
8

10
0
20
0
30
0
70
128
71
461
72
465
73
460
0
VERTEX
8

10
0
20
0
30
0
70
128
71
461
72
462
73
465
0
VERTEX
8

10
0
20
0
30
0
70
128
71
462
72
464
73
465
0
VERTEX
8

10
0
20
0
30
0
70
128
71
462
72
463
73
464
0
VERTEX
8

10
0
20
0
30
0
70
128
71
467
72
471
73
466
0
VERTEX
8

10
0
20
0
30
0
70
128
71
467
72
468
73
471
0
VERTEX
8

10
0
20
0
30
0
70
128
71
468
72
470
73
471
0
VERTEX
8

10
0
20
0
30
0
70
128
71
468
72
469
73
470
0
VERTEX
8

10
0
20
0
30
0
70
128
71
473
72
477
73
472
0
VERTEX
8

10
0
20
0
30
0
70
128
71
473
72
474
73
477
0
VERTEX
8

10
0
20
0
30
0
70
128
71
474
72
476
73
477
0
VERTEX
8

10
0
20
0
30
0
70
128
71
474
72
475
73
476
0
VERTEX
8

10
0
20
0
30
0
70
128
71
479
72
483
73
478
0
VERTEX
8

10
0
20
0
30
0
70
128
71
479
72
480
73
483
0
VERTEX
8

10
0
20
0
30
0
70
128
71
480
72
482
73
483
0
VERTEX
8

10
0
20
0
30
0
70
128
71
480
72
481
73
482
0
VERTEX
8

10
0
20
0
30
0
70
128
71
485
72
489
73
484
0
VERTEX
8

10
0
20
0
30
0
70
128
71
485
72
486
73
489
0
VERTEX
8

10
0
20
0
30
0
70
128
71
486
72
488
73
489
0
VERTEX
8

10
0
20
0
30
0
70
128
71
486
72
487
73
488
0
VERTEX
8

10
0
20
0
30
0
70
128
71
490
72
495
73
491
0
VERTEX
8

10
0
20
0
30
0
70
128
71
495
72
492
73
491
0
VERTEX
8

10
0
20
0
30
0
70
128
71
495
72
494
73
492
0
VERTEX
8

10
0
20
0
30
0
70
128
71
494
72
493
73
492
0
VERTEX
8

10
0
20
0
30
0
70
128
71
496
72
501
73
497
0
VERTEX
8

10
0
20
0
30
0
70
128
71
501
72
498
73
497
0
VERTEX
8

10
0
20
0
30
0
70
128
71
501
72
500
73
498
0
VERTEX
8

10
0
20
0
30
0
70
128
71
500
72
499
73
498
0
VERTEX
8

10
0
20
0
30
0
70
128
71
502
72
507
73
503
0
VERTEX
8

10
0
20
0
30
0
70
128
71
507
72
504
73
503
0
VERTEX
8

10
0
20
0
30
0
70
128
71
507
72
506
73
504
0
VERTEX
8

10
0
20
0
30
0
70
128
71
506
72
505
73
504
0
VERTEX
8

10
0
20
0
30
0
70
128
71
508
72
513
73
509
0
VERTEX
8

10
0
20
0
30
0
70
128
71
513
72
510
73
509
0
VERTEX
8

10
0
20
0
30
0
70
128
71
513
72
512
73
510
0
VERTEX
8

10
0
20
0
30
0
70
128
71
512
72
511
73
510
0
VERTEX
8

10
0
20
0
30
0
70
128
71
514
72
519
73
515
0
VERTEX
8

10
0
20
0
30
0
70
128
71
519
72
516
73
515
0
VERTEX
8

10
0
20
0
30
0
70
128
71
519
72
518
73
516
0
VERTEX
8

10
0
20
0
30
0
70
128
71
518
72
517
73
516
0
VERTEX
8

10
0
20
0
30
0
70
128
71
520
72
525
73
521
0
VERTEX
8

10
0
20
0
30
0
70
128
71
525
72
522
73
521
0
VERTEX
8

10
0
20
0
30
0
70
128
71
525
72
524
73
522
0
VERTEX
8

10
0
20
0
30
0
70
128
71
524
72
523
73
522
0
VERTEX
8

10
0
20
0
30
0
70
128
71
526
72
531
73
527
0
VERTEX
8

10
0
20
0
30
0
70
128
71
531
72
528
73
527
0
VERTEX
8

10
0
20
0
30
0
70
128
71
531
72
530
73
528
0
VERTEX
8

10
0
20
0
30
0
70
128
71
530
72
529
73
528
0
VERTEX
8

10
0
20
0
30
0
70
128
71
533
72
537
73
532
0
VERTEX
8

10
0
20
0
30
0
70
128
71
533
72
534
73
537
0
VERTEX
8

10
0
20
0
30
0
70
128
71
534
72
536
73
537
0
VERTEX
8

10
0
20
0
30
0
70
128
71
534
72
535
73
536
0
VERTEX
8

10
0
20
0
30
0
70
128
71
539
72
543
73
538
0
VERTEX
8

10
0
20
0
30
0
70
128
71
539
72
540
73
543
0
VERTEX
8

10
0
20
0
30
0
70
128
71
540
72
542
73
543
0
VERTEX
8

10
0
20
0
30
0
70
128
71
540
72
541
73
542
0
VERTEX
8

10
0
20
0
30
0
70
128
71
544
72
545
73
-548
0
VERTEX
8

10
0
20
0
30
0
70
128
71
-544
72
548
73
547
0
VERTEX
8

10
0
20
0
30
0
70
128
71
545
72
546
73
-549
0
VERTEX
8

10
0
20
0
30
0
70
128
71
-545
72
549
73
548
0
VERTEX
8

10
0
20
0
30
0
70
128
71
546
72
544
73
-547
0
VERTEX
8

10
0
20
0
30
0
70
128
71
-546
72
547
73
549
0
VERTEX
8

10
0
20
0
30
0
70
128
71
547
72
548
73
-551
0
VERTEX
8

10
0
20
0
30
0
70
128
71
-547
72
551
73
550
0
VERTEX
8

10
0
20
0
30
0
70
128
71
548
72
549
73
-552
0
VERTEX
8

10
0
20
0
30
0
70
128
71
-548
72
552
73
551
0
VERTEX
8

10
0
20
0
30
0
70
128
71
549
72
547
73
-550
0
VERTEX
8

10
0
20
0
30
0
70
128
71
-549
72
550
73
552
0
VERTEX
8

10
0
20
0
30
0
70
128
71
550
72
551
73
-554
0
VERTEX
8

10
0
20
0
30
0
70
128
71
-550
72
554
73
553
0
VERTEX
8

10
0
20
0
30
0
70
128
71
551
72
552
73
-555
0
VERTEX
8

10
0
20
0
30
0
70
128
71
-551
72
555
73
554
0
VERTEX
8

10
0
20
0
30
0
70
128
71
552
72
550
73
-553
0
VERTEX
8

10
0
20
0
30
0
70
128
71
-552
72
553
73
555
0
VERTEX
8

10
0
20
0
30
0
70
128
71
553
72
554
73
-557
0
VERTEX
8

10
0
20
0
30
0
70
128
71
-553
72
557
73
556
0
VERTEX
8

10
0
20
0
30
0
70
128
71
554
72
555
73
-558
0
VERTEX
8

10
0
20
0
30
0
70
128
71
-554
72
558
73
557
0
VERTEX
8

10
0
20
0
30
0
70
128
71
555
72
553
73
-556
0
VERTEX
8

10
0
20
0
30
0
70
128
71
-555
72
556
73
558
0
VERTEX
8

10
0
20
0
30
0
70
128
71
556
72
557
73
-560
0
VERTEX
8

10
0
20
0
30
0
70
128
71
-556
72
560
73
559
0
VERTEX
8

10
0
20
0
30
0
70
128
71
557
72
558
73
-561
0
VERTEX
8

10
0
20
0
30
0
70
128
71
-557
72
561
73
560
0
VERTEX
8

10
0
20
0
30
0
70
128
71
558
72
556
73
-559
0
VERTEX
8

10
0
20
0
30
0
70
128
71
-558
72
559
73
561
0
VERTEX
8

10
0
20
0
30
0
70
128
71
559
72
560
73
-563
0
VERTEX
8

10
0
20
0
30
0
70
128
71
-559
72
563
73
562
0
VERTEX
8

10
0
20
0
30
0
70
128
71
560
72
561
73
-564
0
VERTEX
8

10
0
20
0
30
0
70
128
71
-560
72
564
73
563
0
VERTEX
8

10
0
20
0
30
0
70
128
71
561
72
559
73
-562
0
VERTEX
8

10
0
20
0
30
0
70
128
71
-561
72
562
73
564
0
VERTEX
8

10
0
20
0
30
0
70
128
71
562
72
563
73
-566
0
VERTEX
8

10
0
20
0
30
0
70
128
71
-562
72
566
73
565
0
VERTEX
8

10
0
20
0
30
0
70
128
71
563
72
564
73
-567
0
VERTEX
8

10
0
20
0
30
0
70
128
71
-563
72
567
73
566
0
VERTEX
8

10
0
20
0
30
0
70
128
71
564
72
562
73
-565
0
VERTEX
8

10
0
20
0
30
0
70
128
71
-564
72
565
73
567
0
VERTEX
8

10
0
20
0
30
0
70
128
71
565
72
566
73
-569
0
VERTEX
8

10
0
20
0
30
0
70
128
71
-565
72
569
73
568
0
VERTEX
8

10
0
20
0
30
0
70
128
71
566
72
567
73
-570
0
VERTEX
8

10
0
20
0
30
0
70
128
71
-566
72
570
73
569
0
VERTEX
8

10
0
20
0
30
0
70
128
71
567
72
565
73
-568
0
VERTEX
8

10
0
20
0
30
0
70
128
71
-567
72
568
73
570
0
VERTEX
8

10
0
20
0
30
0
70
128
71
572
72
576
73
571
0
VERTEX
8

10
0
20
0
30
0
70
128
71
572
72
573
73
576
0
VERTEX
8

10
0
20
0
30
0
70
128
71
573
72
575
73
576
0
VERTEX
8

10
0
20
0
30
0
70
128
71
573
72
574
73
575
0
VERTEX
8

10
0
20
0
30
0
70
128
71
578
72
582
73
577
0
VERTEX
8

10
0
20
0
30
0
70
128
71
578
72
579
73
582
0
VERTEX
8

10
0
20
0
30
0
70
128
71
579
72
581
73
582
0
VERTEX
8

10
0
20
0
30
0
70
128
71
579
72
580
73
581
0
VERTEX
8

10
0
20
0
30
0
70
128
71
584
72
588
73
583
0
VERTEX
8

10
0
20
0
30
0
70
128
71
584
72
585
73
588
0
VERTEX
8

10
0
20
0
30
0
70
128
71
585
72
587
73
588
0
VERTEX
8

10
0
20
0
30
0
70
128
71
585
72
586
73
587
0
VERTEX
8

10
0
20
0
30
0
70
128
71
590
72
594
73
589
0
VERTEX
8

10
0
20
0
30
0
70
128
71
590
72
591
73
594
0
VERTEX
8

10
0
20
0
30
0
70
128
71
591
72
593
73
594
0
VERTEX
8

10
0
20
0
30
0
70
128
71
591
72
592
73
593
0
VERTEX
8

10
0
20
0
30
0
70
128
71
596
72
600
73
595
0
VERTEX
8

10
0
20
0
30
0
70
128
71
596
72
597
73
600
0
VERTEX
8

10
0
20
0
30
0
70
128
71
597
72
599
73
600
0
VERTEX
8

10
0
20
0
30
0
70
128
71
597
72
598
73
599
0
VERTEX
8

10
0
20
0
30
0
70
128
71
601
72
606
73
602
0
VERTEX
8

10
0
20
0
30
0
70
128
71
606
72
603
73
602
0
VERTEX
8

10
0
20
0
30
0
70
128
71
606
72
605
73
603
0
VERTEX
8

10
0
20
0
30
0
70
128
71
605
72
604
73
603
0
VERTEX
8

10
0
20
0
30
0
70
128
71
607
72
612
73
608
0
VERTEX
8

10
0
20
0
30
0
70
128
71
612
72
609
73
608
0
VERTEX
8

10
0
20
0
30
0
70
128
71
612
72
611
73
609
0
VERTEX
8

10
0
20
0
30
0
70
128
71
611
72
610
73
609
0
VERTEX
8

10
0
20
0
30
0
70
128
71
613
72
618
73
614
0
VERTEX
8

10
0
20
0
30
0
70
128
71
618
72
615
73
614
0
VERTEX
8

10
0
20
0
30
0
70
128
71
618
72
617
73
615
0
VERTEX
8

10
0
20
0
30
0
70
128
71
617
72
616
73
615
0
VERTEX
8

10
0
20
0
30
0
70
128
71
619
72
624
73
620
0
VERTEX
8

10
0
20
0
30
0
70
128
71
624
72
621
73
620
0
VERTEX
8

10
0
20
0
30
0
70
128
71
624
72
623
73
621
0
VERTEX
8

10
0
20
0
30
0
70
128
71
623
72
622
73
621
0
VERTEX
8

10
0
20
0
30
0
70
128
71
625
72
630
73
626
0
VERTEX
8

10
0
20
0
30
0
70
128
71
630
72
627
73
626
0
VERTEX
8

10
0
20
0
30
0
70
128
71
630
72
629
73
627
0
VERTEX
8

10
0
20
0
30
0
70
128
71
629
72
628
73
627
0
VERTEX
8

10
0
20
0
30
0
70
128
71
631
72
636
73
632
0
VERTEX
8

10
0
20
0
30
0
70
128
71
636
72
633
73
632
0
VERTEX
8

10
0
20
0
30
0
70
128
71
636
72
635
73
633
0
VERTEX
8

10
0
20
0
30
0
70
128
71
635
72
634
73
633
0
VERTEX
8

10
0
20
0
30
0
70
128
71
637
72
642
73
638
0
VERTEX
8

10
0
20
0
30
0
70
128
71
642
72
639
73
638
0
VERTEX
8

10
0
20
0
30
0
70
128
71
642
72
641
73
639
0
VERTEX
8

10
0
20
0
30
0
70
128
71
641
72
640
73
639
0
VERTEX
8

10
0
20
0
30
0
70
128
71
644
72
648
73
643
0
VERTEX
8

10
0
20
0
30
0
70
128
71
644
72
645
73
648
0
VERTEX
8

10
0
20
0
30
0
70
128
71
645
72
647
73
648
0
VERTEX
8

10
0
20
0
30
0
70
128
71
645
72
646
73
647
0
VERTEX
8

10
0
20
0
30
0
70
128
71
650
72
654
73
649
0
VERTEX
8

10
0
20
0
30
0
70
128
71
650
72
651
73
654
0
VERTEX
8

10
0
20
0
30
0
70
128
71
651
72
653
73
654
0
VERTEX
8

10
0
20
0
30
0
70
128
71
651
72
652
73
653
0
VERTEX
8

10
0
20
0
30
0
70
128
71
655
72
656
73
-659
0
VERTEX
8

10
0
20
0
30
0
70
128
71
-655
72
659
73
658
0
VERTEX
8

10
0
20
0
30
0
70
128
71
656
72
657
73
-660
0
VERTEX
8

10
0
20
0
30
0
70
128
71
-656
72
660
73
659
0
VERTEX
8

10
0
20
0
30
0
70
128
71
657
72
655
73
-658
0
VERTEX
8

10
0
20
0
30
0
70
128
71
-657
72
658
73
660
0
VERTEX
8

10
0
20
0
30
0
70
128
71
658
72
659
73
-662
0
VERTEX
8

10
0
20
0
30
0
70
128
71
-658
72
662
73
661
0
VERTEX
8

10
0
20
0
30
0
70
128
71
659
72
660
73
-663
0
VERTEX
8

10
0
20
0
30
0
70
128
71
-659
72
663
73
662
0
VERTEX
8

10
0
20
0
30
0
70
128
71
660
72
658
73
-661
0
VERTEX
8

10
0
20
0
30
0
70
128
71
-660
72
661
73
663
0
VERTEX
8

10
0
20
0
30
0
70
128
71
661
72
662
73
-665
0
VERTEX
8

10
0
20
0
30
0
70
128
71
-661
72
665
73
664
0
VERTEX
8

10
0
20
0
30
0
70
128
71
662
72
663
73
-666
0
VERTEX
8

10
0
20
0
30
0
70
128
71
-662
72
666
73
665
0
VERTEX
8

10
0
20
0
30
0
70
128
71
663
72
661
73
-664
0
VERTEX
8

10
0
20
0
30
0
70
128
71
-663
72
664
73
666
0
VERTEX
8

10
0
20
0
30
0
70
128
71
664
72
665
73
-668
0
VERTEX
8

10
0
20
0
30
0
70
128
71
-664
72
668
73
667
0
VERTEX
8

10
0
20
0
30
0
70
128
71
665
72
666
73
-669
0
VERTEX
8

10
0
20
0
30
0
70
128
71
-665
72
669
73
668
0
VERTEX
8

10
0
20
0
30
0
70
128
71
666
72
664
73
-667
0
VERTEX
8

10
0
20
0
30
0
70
128
71
-666
72
667
73
669
0
VERTEX
8

10
0
20
0
30
0
70
128
71
667
72
668
73
-671
0
VERTEX
8

10
0
20
0
30
0
70
128
71
-667
72
671
73
670
0
VERTEX
8

10
0
20
0
30
0
70
128
71
668
72
669
73
-672
0
VERTEX
8

10
0
20
0
30
0
70
128
71
-668
72
672
73
671
0
VERTEX
8

10
0
20
0
30
0
70
128
71
669
72
667
73
-670
0
VERTEX
8

10
0
20
0
30
0
70
128
71
-669
72
670
73
672
0
VERTEX
8

10
0
20
0
30
0
70
128
71
670
72
671
73
-674
0
VERTEX
8

10
0
20
0
30
0
70
128
71
-670
72
674
73
673
0
VERTEX
8

10
0
20
0
30
0
70
128
71
671
72
672
73
-675
0
VERTEX
8

10
0
20
0
30
0
70
128
71
-671
72
675
73
674
0
VERTEX
8

10
0
20
0
30
0
70
128
71
672
72
670
73
-673
0
VERTEX
8

10
0
20
0
30
0
70
128
71
-672
72
673
73
675
0
VERTEX
8

10
0
20
0
30
0
70
128
71
673
72
674
73
-677
0
VERTEX
8

10
0
20
0
30
0
70
128
71
-673
72
677
73
676
0
VERTEX
8

10
0
20
0
30
0
70
128
71
674
72
675
73
-678
0
VERTEX
8

10
0
20
0
30
0
70
128
71
-674
72
678
73
677
0
VERTEX
8

10
0
20
0
30
0
70
128
71
675
72
673
73
-676
0
VERTEX
8

10
0
20
0
30
0
70
128
71
-675
72
676
73
678
0
VERTEX
8

10
0
20
0
30
0
70
128
71
676
72
677
73
-680
0
VERTEX
8

10
0
20
0
30
0
70
128
71
-676
72
680
73
679
0
VERTEX
8

10
0
20
0
30
0
70
128
71
677
72
678
73
-681
0
VERTEX
8

10
0
20
0
30
0
70
128
71
-677
72
681
73
680
0
VERTEX
8

10
0
20
0
30
0
70
128
71
678
72
676
73
-679
0
VERTEX
8

10
0
20
0
30
0
70
128
71
-678
72
679
73
681
0
VERTEX
8

10
0
20
0
30
0
70
128
71
683
72
687
73
682
0
VERTEX
8

10
0
20
0
30
0
70
128
71
683
72
684
73
687
0
VERTEX
8

10
0
20
0
30
0
70
128
71
684
72
686
73
687
0
VERTEX
8

10
0
20
0
30
0
70
128
71
684
72
685
73
686
0
VERTEX
8

10
0
20
0
30
0
70
128
71
689
72
693
73
688
0
VERTEX
8

10
0
20
0
30
0
70
128
71
689
72
690
73
693
0
VERTEX
8

10
0
20
0
30
0
70
128
71
690
72
692
73
693
0
VERTEX
8

10
0
20
0
30
0
70
128
71
690
72
691
73
692
0
VERTEX
8

10
0
20
0
30
0
70
128
71
695
72
699
73
694
0
VERTEX
8

10
0
20
0
30
0
70
128
71
695
72
696
73
699
0
VERTEX
8

10
0
20
0
30
0
70
128
71
696
72
698
73
699
0
VERTEX
8

10
0
20
0
30
0
70
128
71
696
72
697
73
698
0
VERTEX
8

10
0
20
0
30
0
70
128
71
701
72
705
73
700
0
VERTEX
8

10
0
20
0
30
0
70
128
71
701
72
702
73
705
0
VERTEX
8

10
0
20
0
30
0
70
128
71
702
72
704
73
705
0
VERTEX
8

10
0
20
0
30
0
70
128
71
702
72
703
73
704
0
VERTEX
8

10
0
20
0
30
0
70
128
71
707
72
711
73
706
0
VERTEX
8

10
0
20
0
30
0
70
128
71
707
72
708
73
711
0
VERTEX
8

10
0
20
0
30
0
70
128
71
708
72
710
73
711
0
VERTEX
8

10
0
20
0
30
0
70
128
71
708
72
709
73
710
0
VERTEX
8

10
0
20
0
30
0
70
128
71
712
72
717
73
713
0
VERTEX
8

10
0
20
0
30
0
70
128
71
717
72
714
73
713
0
VERTEX
8

10
0
20
0
30
0
70
128
71
717
72
716
73
714
0
VERTEX
8

10
0
20
0
30
0
70
128
71
716
72
715
73
714
0
VERTEX
8

10
0
20
0
30
0
70
128
71
718
72
723
73
719
0
VERTEX
8

10
0
20
0
30
0
70
128
71
723
72
720
73
719
0
VERTEX
8

10
0
20
0
30
0
70
128
71
723
72
722
73
720
0
VERTEX
8

10
0
20
0
30
0
70
128
71
722
72
721
73
720
0
VERTEX
8

10
0
20
0
30
0
70
128
71
724
72
729
73
725
0
VERTEX
8

10
0
20
0
30
0
70
128
71
729
72
726
73
725
0
VERTEX
8

10
0
20
0
30
0
70
128
71
729
72
728
73
726
0
VERTEX
8

10
0
20
0
30
0
70
128
71
728
72
727
73
726
0
VERTEX
8

10
0
20
0
30
0
70
128
71
730
72
735
73
731
0
VERTEX
8

10
0
20
0
30
0
70
128
71
735
72
732
73
731
0
VERTEX
8

10
0
20
0
30
0
70
128
71
735
72
734
73
732
0
VERTEX
8

10
0
20
0
30
0
70
128
71
734
72
733
73
732
0
VERTEX
8

10
0
20
0
30
0
70
128
71
736
72
741
73
737
0
VERTEX
8

10
0
20
0
30
0
70
128
71
741
72
738
73
737
0
VERTEX
8

10
0
20
0
30
0
70
128
71
741
72
740
73
738
0
VERTEX
8

10
0
20
0
30
0
70
128
71
740
72
739
73
738
0
VERTEX
8

10
0
20
0
30
0
70
128
71
742
72
747
73
743
0
VERTEX
8

10
0
20
0
30
0
70
128
71
747
72
744
73
743
0
VERTEX
8

10
0
20
0
30
0
70
128
71
747
72
746
73
744
0
VERTEX
8

10
0
20
0
30
0
70
128
71
746
72
745
73
744
0
VERTEX
8

10
0
20
0
30
0
70
128
71
748
72
753
73
749
0
VERTEX
8

10
0
20
0
30
0
70
128
71
753
72
750
73
749
0
VERTEX
8

10
0
20
0
30
0
70
128
71
753
72
752
73
750
0
VERTEX
8

10
0
20
0
30
0
70
128
71
752
72
751
73
750
0
VERTEX
8

10
0
20
0
30
0
70
128
71
755
72
759
73
754
0
VERTEX
8

10
0
20
0
30
0
70
128
71
755
72
756
73
759
0
VERTEX
8

10
0
20
0
30
0
70
128
71
756
72
758
73
759
0
VERTEX
8

10
0
20
0
30
0
70
128
71
756
72
757
73
758
0
VERTEX
8

10
0
20
0
30
0
70
128
71
761
72
765
73
760
0
VERTEX
8

10
0
20
0
30
0
70
128
71
761
72
762
73
765
0
VERTEX
8

10
0
20
0
30
0
70
128
71
762
72
764
73
765
0
VERTEX
8

10
0
20
0
30
0
70
128
71
762
72
763
73
764
0
VERTEX
8

10
0
20
0
30
0
70
128
71
766
72
767
73
-770
0
VERTEX
8

10
0
20
0
30
0
70
128
71
-766
72
770
73
769
0
VERTEX
8

10
0
20
0
30
0
70
128
71
767
72
768
73
-771
0
VERTEX
8

10
0
20
0
30
0
70
128
71
-767
72
771
73
770
0
VERTEX
8

10
0
20
0
30
0
70
128
71
768
72
766
73
-769
0
VERTEX
8

10
0
20
0
30
0
70
128
71
-768
72
769
73
771
0
VERTEX
8

10
0
20
0
30
0
70
128
71
769
72
770
73
-773
0
VERTEX
8

10
0
20
0
30
0
70
128
71
-769
72
773
73
772
0
VERTEX
8

10
0
20
0
30
0
70
128
71
770
72
771
73
-774
0
VERTEX
8

10
0
20
0
30
0
70
128
71
-770
72
774
73
773
0
VERTEX
8

10
0
20
0
30
0
70
128
71
771
72
769
73
-772
0
VERTEX
8

10
0
20
0
30
0
70
128
71
-771
72
772
73
774
0
VERTEX
8

10
0
20
0
30
0
70
128
71
772
72
773
73
-776
0
VERTEX
8

10
0
20
0
30
0
70
128
71
-772
72
776
73
775
0
VERTEX
8

10
0
20
0
30
0
70
128
71
773
72
774
73
-777
0
VERTEX
8

10
0
20
0
30
0
70
128
71
-773
72
777
73
776
0
VERTEX
8

10
0
20
0
30
0
70
128
71
774
72
772
73
-775
0
VERTEX
8

10
0
20
0
30
0
70
128
71
-774
72
775
73
777
0
VERTEX
8

10
0
20
0
30
0
70
128
71
775
72
776
73
-779
0
VERTEX
8

10
0
20
0
30
0
70
128
71
-775
72
779
73
778
0
VERTEX
8

10
0
20
0
30
0
70
128
71
776
72
777
73
-780
0
VERTEX
8

10
0
20
0
30
0
70
128
71
-776
72
780
73
779
0
VERTEX
8

10
0
20
0
30
0
70
128
71
777
72
775
73
-778
0
VERTEX
8

10
0
20
0
30
0
70
128
71
-777
72
778
73
780
0
VERTEX
8

10
0
20
0
30
0
70
128
71
778
72
779
73
-782
0
VERTEX
8

10
0
20
0
30
0
70
128
71
-778
72
782
73
781
0
VERTEX
8

10
0
20
0
30
0
70
128
71
779
72
780
73
-783
0
VERTEX
8

10
0
20
0
30
0
70
128
71
-779
72
783
73
782
0
VERTEX
8

10
0
20
0
30
0
70
128
71
780
72
778
73
-781
0
VERTEX
8

10
0
20
0
30
0
70
128
71
-780
72
781
73
783
0
VERTEX
8

10
0
20
0
30
0
70
128
71
781
72
782
73
-785
0
VERTEX
8

10
0
20
0
30
0
70
128
71
-781
72
785
73
784
0
VERTEX
8

10
0
20
0
30
0
70
128
71
782
72
783
73
-786
0
VERTEX
8

10
0
20
0
30
0
70
128
71
-782
72
786
73
785
0
VERTEX
8

10
0
20
0
30
0
70
128
71
783
72
781
73
-784
0
VERTEX
8

10
0
20
0
30
0
70
128
71
-783
72
784
73
786
0
VERTEX
8

10
0
20
0
30
0
70
128
71
784
72
785
73
-788
0
VERTEX
8

10
0
20
0
30
0
70
128
71
-784
72
788
73
787
0
VERTEX
8

10
0
20
0
30
0
70
128
71
785
72
786
73
-789
0
VERTEX
8

10
0
20
0
30
0
70
128
71
-785
72
789
73
788
0
VERTEX
8

10
0
20
0
30
0
70
128
71
786
72
784
73
-787
0
VERTEX
8

10
0
20
0
30
0
70
128
71
-786
72
787
73
789
0
VERTEX
8

10
0
20
0
30
0
70
128
71
787
72
788
73
-791
0
VERTEX
8

10
0
20
0
30
0
70
128
71
-787
72
791
73
790
0
VERTEX
8

10
0
20
0
30
0
70
128
71
788
72
789
73
-792
0
VERTEX
8

10
0
20
0
30
0
70
128
71
-788
72
792
73
791
0
VERTEX
8

10
0
20
0
30
0
70
128
71
789
72
787
73
-790
0
VERTEX
8

10
0
20
0
30
0
70
128
71
-789
72
790
73
792
0
VERTEX
8

10
0
20
0
30
0
70
128
71
794
72
798
73
793
0
VERTEX
8

10
0
20
0
30
0
70
128
71
794
72
795
73
798
0
VERTEX
8

10
0
20
0
30
0
70
128
71
795
72
797
73
798
0
VERTEX
8

10
0
20
0
30
0
70
128
71
795
72
796
73
797
0
VERTEX
8

10
0
20
0
30
0
70
128
71
800
72
804
73
799
0
VERTEX
8

10
0
20
0
30
0
70
128
71
800
72
801
73
804
0
VERTEX
8

10
0
20
0
30
0
70
128
71
801
72
803
73
804
0
VERTEX
8

10
0
20
0
30
0
70
128
71
801
72
802
73
803
0
VERTEX
8

10
0
20
0
30
0
70
128
71
806
72
810
73
805
0
VERTEX
8

10
0
20
0
30
0
70
128
71
806
72
807
73
810
0
VERTEX
8

10
0
20
0
30
0
70
128
71
807
72
809
73
810
0
VERTEX
8

10
0
20
0
30
0
70
128
71
807
72
808
73
809
0
VERTEX
8

10
0
20
0
30
0
70
128
71
812
72
816
73
811
0
VERTEX
8

10
0
20
0
30
0
70
128
71
812
72
813
73
816
0
VERTEX
8

10
0
20
0
30
0
70
128
71
813
72
815
73
816
0
VERTEX
8

10
0
20
0
30
0
70
128
71
813
72
814
73
815
0
VERTEX
8

10
0
20
0
30
0
70
128
71
818
72
822
73
817
0
VERTEX
8

10
0
20
0
30
0
70
128
71
818
72
819
73
822
0
VERTEX
8

10
0
20
0
30
0
70
128
71
819
72
821
73
822
0
VERTEX
8

10
0
20
0
30
0
70
128
71
819
72
820
73
821
0
VERTEX
8

10
0
20
0
30
0
70
128
71
823
72
828
73
824
0
VERTEX
8

10
0
20
0
30
0
70
128
71
828
72
825
73
824
0
VERTEX
8

10
0
20
0
30
0
70
128
71
828
72
827
73
825
0
VERTEX
8

10
0
20
0
30
0
70
128
71
827
72
826
73
825
0
VERTEX
8

10
0
20
0
30
0
70
128
71
829
72
834
73
830
0
VERTEX
8

10
0
20
0
30
0
70
128
71
834
72
831
73
830
0
VERTEX
8

10
0
20
0
30
0
70
128
71
834
72
833
73
831
0
VERTEX
8

10
0
20
0
30
0
70
128
71
833
72
832
73
831
0
VERTEX
8

10
0
20
0
30
0
70
128
71
835
72
840
73
836
0
VERTEX
8

10
0
20
0
30
0
70
128
71
840
72
837
73
836
0
VERTEX
8

10
0
20
0
30
0
70
128
71
840
72
839
73
837
0
VERTEX
8

10
0
20
0
30
0
70
128
71
839
72
838
73
837
0
VERTEX
8

10
0
20
0
30
0
70
128
71
841
72
846
73
842
0
VERTEX
8

10
0
20
0
30
0
70
128
71
846
72
843
73
842
0
VERTEX
8

10
0
20
0
30
0
70
128
71
846
72
845
73
843
0
VERTEX
8

10
0
20
0
30
0
70
128
71
845
72
844
73
843
0
VERTEX
8

10
0
20
0
30
0
70
128
71
847
72
852
73
848
0
VERTEX
8

10
0
20
0
30
0
70
128
71
852
72
849
73
848
0
VERTEX
8

10
0
20
0
30
0
70
128
71
852
72
851
73
849
0
VERTEX
8

10
0
20
0
30
0
70
128
71
851
72
850
73
849
0
VERTEX
8

10
0
20
0
30
0
70
128
71
853
72
858
73
854
0
VERTEX
8

10
0
20
0
30
0
70
128
71
858
72
855
73
854
0
VERTEX
8

10
0
20
0
30
0
70
128
71
858
72
857
73
855
0
VERTEX
8

10
0
20
0
30
0
70
128
71
857
72
856
73
855
0
VERTEX
8

10
0
20
0
30
0
70
128
71
859
72
864
73
860
0
VERTEX
8

10
0
20
0
30
0
70
128
71
864
72
861
73
860
0
VERTEX
8

10
0
20
0
30
0
70
128
71
864
72
863
73
861
0
VERTEX
8

10
0
20
0
30
0
70
128
71
863
72
862
73
861
0
VERTEX
8

10
0
20
0
30
0
70
128
71
866
72
870
73
865
0
VERTEX
8

10
0
20
0
30
0
70
128
71
866
72
867
73
870
0
VERTEX
8

10
0
20
0
30
0
70
128
71
867
72
869
73
870
0
VERTEX
8

10
0
20
0
30
0
70
128
71
867
72
868
73
869
0
VERTEX
8

10
0
20
0
30
0
70
128
71
872
72
876
73
871
0
VERTEX
8

10
0
20
0
30
0
70
128
71
872
72
873
73
876
0
VERTEX
8

10
0
20
0
30
0
70
128
71
873
72
875
73
876
0
VERTEX
8

10
0
20
0
30
0
70
128
71
873
72
874
73
875
0
VERTEX
8

10
0
20
0
30
0
70
128
71
877
72
878
73
-881
0
VERTEX
8

10
0
20
0
30
0
70
128
71
-877
72
881
73
880
0
VERTEX
8

10
0
20
0
30
0
70
128
71
878
72
879
73
-882
0
VERTEX
8

10
0
20
0
30
0
70
128
71
-878
72
882
73
881
0
VERTEX
8

10
0
20
0
30
0
70
128
71
879
72
877
73
-880
0
VERTEX
8

10
0
20
0
30
0
70
128
71
-879
72
880
73
882
0
VERTEX
8

10
0
20
0
30
0
70
128
71
880
72
881
73
-884
0
VERTEX
8

10
0
20
0
30
0
70
128
71
-880
72
884
73
883
0
VERTEX
8

10
0
20
0
30
0
70
128
71
881
72
882
73
-885
0
VERTEX
8

10
0
20
0
30
0
70
128
71
-881
72
885
73
884
0
VERTEX
8

10
0
20
0
30
0
70
128
71
882
72
880
73
-883
0
VERTEX
8

10
0
20
0
30
0
70
128
71
-882
72
883
73
885
0
VERTEX
8

10
0
20
0
30
0
70
128
71
883
72
884
73
-887
0
VERTEX
8

10
0
20
0
30
0
70
128
71
-883
72
887
73
886
0
VERTEX
8

10
0
20
0
30
0
70
128
71
884
72
885
73
-888
0
VERTEX
8

10
0
20
0
30
0
70
128
71
-884
72
888
73
887
0
VERTEX
8

10
0
20
0
30
0
70
128
71
885
72
883
73
-886
0
VERTEX
8

10
0
20
0
30
0
70
128
71
-885
72
886
73
888
0
VERTEX
8

10
0
20
0
30
0
70
128
71
886
72
887
73
-890
0
VERTEX
8

10
0
20
0
30
0
70
128
71
-886
72
890
73
889
0
VERTEX
8

10
0
20
0
30
0
70
128
71
887
72
888
73
-891
0
VERTEX
8

10
0
20
0
30
0
70
128
71
-887
72
891
73
890
0
VERTEX
8

10
0
20
0
30
0
70
128
71
888
72
886
73
-889
0
VERTEX
8

10
0
20
0
30
0
70
128
71
-888
72
889
73
891
0
VERTEX
8

10
0
20
0
30
0
70
128
71
889
72
890
73
-893
0
VERTEX
8

10
0
20
0
30
0
70
128
71
-889
72
893
73
892
0
VERTEX
8

10
0
20
0
30
0
70
128
71
890
72
891
73
-894
0
VERTEX
8

10
0
20
0
30
0
70
128
71
-890
72
894
73
893
0
VERTEX
8

10
0
20
0
30
0
70
128
71
891
72
889
73
-892
0
VERTEX
8

10
0
20
0
30
0
70
128
71
-891
72
892
73
894
0
VERTEX
8

10
0
20
0
30
0
70
128
71
892
72
893
73
-896
0
VERTEX
8

10
0
20
0
30
0
70
128
71
-892
72
896
73
895
0
VERTEX
8

10
0
20
0
30
0
70
128
71
893
72
894
73
-897
0
VERTEX
8

10
0
20
0
30
0
70
128
71
-893
72
897
73
896
0
VERTEX
8

10
0
20
0
30
0
70
128
71
894
72
892
73
-895
0
VERTEX
8

10
0
20
0
30
0
70
128
71
-894
72
895
73
897
0
VERTEX
8

10
0
20
0
30
0
70
128
71
895
72
896
73
-899
0
VERTEX
8

10
0
20
0
30
0
70
128
71
-895
72
899
73
898
0
VERTEX
8

10
0
20
0
30
0
70
128
71
896
72
897
73
-900
0
VERTEX
8

10
0
20
0
30
0
70
128
71
-896
72
900
73
899
0
VERTEX
8

10
0
20
0
30
0
70
128
71
897
72
895
73
-898
0
VERTEX
8

10
0
20
0
30
0
70
128
71
-897
72
898
73
900
0
VERTEX
8

10
0
20
0
30
0
70
128
71
898
72
899
73
-902
0
VERTEX
8

10
0
20
0
30
0
70
128
71
-898
72
902
73
901
0
VERTEX
8

10
0
20
0
30
0
70
128
71
899
72
900
73
-903
0
VERTEX
8

10
0
20
0
30
0
70
128
71
-899
72
903
73
902
0
VERTEX
8

10
0
20
0
30
0
70
128
71
900
72
898
73
-901
0
VERTEX
8

10
0
20
0
30
0
70
128
71
-900
72
901
73
903
0
VERTEX
8

10
0
20
0
30
0
70
128
71
905
72
909
73
904
0
VERTEX
8

10
0
20
0
30
0
70
128
71
905
72
906
73
909
0
VERTEX
8

10
0
20
0
30
0
70
128
71
906
72
908
73
909
0
VERTEX
8

10
0
20
0
30
0
70
128
71
906
72
907
73
908
0
VERTEX
8

10
0
20
0
30
0
70
128
71
911
72
915
73
910
0
VERTEX
8

10
0
20
0
30
0
70
128
71
911
72
912
73
915
0
VERTEX
8

10
0
20
0
30
0
70
128
71
912
72
914
73
915
0
VERTEX
8

10
0
20
0
30
0
70
128
71
912
72
913
73
914
0
VERTEX
8

10
0
20
0
30
0
70
128
71
917
72
921
73
916
0
VERTEX
8

10
0
20
0
30
0
70
128
71
917
72
918
73
921
0
VERTEX
8

10
0
20
0
30
0
70
128
71
918
72
920
73
921
0
VERTEX
8

10
0
20
0
30
0
70
128
71
918
72
919
73
920
0
VERTEX
8

10
0
20
0
30
0
70
128
71
923
72
927
73
922
0
VERTEX
8

10
0
20
0
30
0
70
128
71
923
72
924
73
927
0
VERTEX
8

10
0
20
0
30
0
70
128
71
924
72
926
73
927
0
VERTEX
8

10
0
20
0
30
0
70
128
71
924
72
925
73
926
0
VERTEX
8

10
0
20
0
30
0
70
128
71
929
72
933
73
928
0
VERTEX
8

10
0
20
0
30
0
70
128
71
929
72
930
73
933
0
VERTEX
8

10
0
20
0
30
0
70
128
71
930
72
932
73
933
0
VERTEX
8

10
0
20
0
30
0
70
128
71
930
72
931
73
932
0
VERTEX
8

10
0
20
0
30
0
70
128
71
934
72
939
73
935
0
VERTEX
8

10
0
20
0
30
0
70
128
71
939
72
936
73
935
0
VERTEX
8

10
0
20
0
30
0
70
128
71
939
72
938
73
936
0
VERTEX
8

10
0
20
0
30
0
70
128
71
938
72
937
73
936
0
VERTEX
8

10
0
20
0
30
0
70
128
71
940
72
945
73
941
0
VERTEX
8

10
0
20
0
30
0
70
128
71
945
72
942
73
941
0
VERTEX
8

10
0
20
0
30
0
70
128
71
945
72
944
73
942
0
VERTEX
8

10
0
20
0
30
0
70
128
71
944
72
943
73
942
0
VERTEX
8

10
0
20
0
30
0
70
128
71
946
72
951
73
947
0
VERTEX
8

10
0
20
0
30
0
70
128
71
951
72
948
73
947
0
VERTEX
8

10
0
20
0
30
0
70
128
71
951
72
950
73
948
0
VERTEX
8

10
0
20
0
30
0
70
128
71
950
72
949
73
948
0
VERTEX
8

10
0
20
0
30
0
70
128
71
952
72
957
73
953
0
VERTEX
8

10
0
20
0
30
0
70
128
71
957
72
954
73
953
0
VERTEX
8

10
0
20
0
30
0
70
128
71
957
72
956
73
954
0
VERTEX
8

10
0
20
0
30
0
70
128
71
956
72
955
73
954
0
VERTEX
8

10
0
20
0
30
0
70
128
71
958
72
963
73
959
0
VERTEX
8

10
0
20
0
30
0
70
128
71
963
72
960
73
959
0
VERTEX
8

10
0
20
0
30
0
70
128
71
963
72
962
73
960
0
VERTEX
8

10
0
20
0
30
0
70
128
71
962
72
961
73
960
0
VERTEX
8

10
0
20
0
30
0
70
128
71
964
72
969
73
965
0
VERTEX
8

10
0
20
0
30
0
70
128
71
969
72
966
73
965
0
VERTEX
8

10
0
20
0
30
0
70
128
71
969
72
968
73
966
0
VERTEX
8

10
0
20
0
30
0
70
128
71
968
72
967
73
966
0
VERTEX
8

10
0
20
0
30
0
70
128
71
970
72
975
73
971
0
VERTEX
8

10
0
20
0
30
0
70
128
71
975
72
972
73
971
0
VERTEX
8

10
0
20
0
30
0
70
128
71
975
72
974
73
972
0
VERTEX
8

10
0
20
0
30
0
70
128
71
974
72
973
73
972
0
VERTEX
8

10
0
20
0
30
0
70
128
71
977
72
981
73
976
0
VERTEX
8

10
0
20
0
30
0
70
128
71
977
72
978
73
981
0
VERTEX
8

10
0
20
0
30
0
70
128
71
978
72
980
73
981
0
VERTEX
8

10
0
20
0
30
0
70
128
71
978
72
979
73
980
0
VERTEX
8

10
0
20
0
30
0
70
128
71
983
72
987
73
982
0
VERTEX
8

10
0
20
0
30
0
70
128
71
983
72
984
73
987
0
VERTEX
8

10
0
20
0
30
0
70
128
71
984
72
986
73
987
0
VERTEX
8

10
0
20
0
30
0
70
128
71
984
72
985
73
986
0
VERTEX
8

10
0
20
0
30
0
70
128
71
988
72
989
73
-992
0
VERTEX
8

10
0
20
0
30
0
70
128
71
-988
72
992
73
991
0
VERTEX
8

10
0
20
0
30
0
70
128
71
989
72
990
73
-993
0
VERTEX
8

10
0
20
0
30
0
70
128
71
-989
72
993
73
992
0
VERTEX
8

10
0
20
0
30
0
70
128
71
990
72
988
73
-991
0
VERTEX
8

10
0
20
0
30
0
70
128
71
-990
72
991
73
993
0
VERTEX
8

10
0
20
0
30
0
70
128
71
991
72
992
73
-995
0
VERTEX
8

10
0
20
0
30
0
70
128
71
-991
72
995
73
994
0
VERTEX
8

10
0
20
0
30
0
70
128
71
992
72
993
73
-996
0
VERTEX
8

10
0
20
0
30
0
70
128
71
-992
72
996
73
995
0
VERTEX
8

10
0
20
0
30
0
70
128
71
993
72
991
73
-994
0
VERTEX
8

10
0
20
0
30
0
70
128
71
-993
72
994
73
996
0
VERTEX
8

10
0
20
0
30
0
70
128
71
994
72
995
73
-998
0
VERTEX
8

10
0
20
0
30
0
70
128
71
-994
72
998
73
997
0
VERTEX
8

10
0
20
0
30
0
70
128
71
995
72
996
73
-999
0
VERTEX
8

10
0
20
0
30
0
70
128
71
-995
72
999
73
998
0
VERTEX
8

10
0
20
0
30
0
70
128
71
996
72
994
73
-997
0
VERTEX
8

10
0
20
0
30
0
70
128
71
-996
72
997
73
999
0
VERTEX
8

10
0
20
0
30
0
70
128
71
997
72
998
73
-1001
0
VERTEX
8

10
0
20
0
30
0
70
128
71
-997
72
1001
73
1000
0
VERTEX
8

10
0
20
0
30
0
70
128
71
998
72
999
73
-1002
0
VERTEX
8

10
0
20
0
30
0
70
128
71
-998
72
1002
73
1001
0
VERTEX
8

10
0
20
0
30
0
70
128
71
999
72
997
73
-1000
0
VERTEX
8

10
0
20
0
30
0
70
128
71
-999
72
1000
73
1002
0
VERTEX
8

10
0
20
0
30
0
70
128
71
1000
72
1001
73
-1004
0
VERTEX
8

10
0
20
0
30
0
70
128
71
-1000
72
1004
73
1003
0
VERTEX
8

10
0
20
0
30
0
70
128
71
1001
72
1002
73
-1005
0
VERTEX
8

10
0
20
0
30
0
70
128
71
-1001
72
1005
73
1004
0
VERTEX
8

10
0
20
0
30
0
70
128
71
1002
72
1000
73
-1003
0
VERTEX
8

10
0
20
0
30
0
70
128
71
-1002
72
1003
73
1005
0
VERTEX
8

10
0
20
0
30
0
70
128
71
1003
72
1004
73
-1007
0
VERTEX
8

10
0
20
0
30
0
70
128
71
-1003
72
1007
73
1006
0
VERTEX
8

10
0
20
0
30
0
70
128
71
1004
72
1005
73
-1008
0
VERTEX
8

10
0
20
0
30
0
70
128
71
-1004
72
1008
73
1007
0
VERTEX
8

10
0
20
0
30
0
70
128
71
1005
72
1003
73
-1006
0
VERTEX
8

10
0
20
0
30
0
70
128
71
-1005
72
1006
73
1008
0
VERTEX
8

10
0
20
0
30
0
70
128
71
1006
72
1007
73
-1010
0
VERTEX
8

10
0
20
0
30
0
70
128
71
-1006
72
1010
73
1009
0
VERTEX
8

10
0
20
0
30
0
70
128
71
1007
72
1008
73
-1011
0
VERTEX
8

10
0
20
0
30
0
70
128
71
-1007
72
1011
73
1010
0
VERTEX
8

10
0
20
0
30
0
70
128
71
1008
72
1006
73
-1009
0
VERTEX
8

10
0
20
0
30
0
70
128
71
-1008
72
1009
73
1011
0
VERTEX
8

10
0
20
0
30
0
70
128
71
1009
72
1010
73
-1013
0
VERTEX
8

10
0
20
0
30
0
70
128
71
-1009
72
1013
73
1012
0
VERTEX
8

10
0
20
0
30
0
70
128
71
1010
72
1011
73
-1014
0
VERTEX
8

10
0
20
0
30
0
70
128
71
-1010
72
1014
73
1013
0
VERTEX
8

10
0
20
0
30
0
70
128
71
1011
72
1009
73
-1012
0
VERTEX
8

10
0
20
0
30
0
70
128
71
-1011
72
1012
73
1014
0
VERTEX
8

10
0
20
0
30
0
70
128
71
1016
72
1020
73
1015
0
VERTEX
8

10
0
20
0
30
0
70
128
71
1016
72
1017
73
1020
0
VERTEX
8

10
0
20
0
30
0
70
128
71
1017
72
1019
73
1020
0
VERTEX
8

10
0
20
0
30
0
70
128
71
1017
72
1018
73
1019
0
VERTEX
8

10
0
20
0
30
0
70
128
71
1022
72
1026
73
1021
0
VERTEX
8

10
0
20
0
30
0
70
128
71
1022
72
1023
73
1026
0
VERTEX
8

10
0
20
0
30
0
70
128
71
1023
72
1025
73
1026
0
VERTEX
8

10
0
20
0
30
0
70
128
71
1023
72
1024
73
1025
0
VERTEX
8

10
0
20
0
30
0
70
128
71
1028
72
1032
73
1027
0
VERTEX
8

10
0
20
0
30
0
70
128
71
1028
72
1029
73
1032
0
VERTEX
8

10
0
20
0
30
0
70
128
71
1029
72
1031
73
1032
0
VERTEX
8

10
0
20
0
30
0
70
128
71
1029
72
1030
73
1031
0
VERTEX
8

10
0
20
0
30
0
70
128
71
1034
72
1038
73
1033
0
VERTEX
8

10
0
20
0
30
0
70
128
71
1034
72
1035
73
1038
0
VERTEX
8

10
0
20
0
30
0
70
128
71
1035
72
1037
73
1038
0
VERTEX
8

10
0
20
0
30
0
70
128
71
1035
72
1036
73
1037
0
VERTEX
8

10
0
20
0
30
0
70
128
71
1040
72
1044
73
1039
0
VERTEX
8

10
0
20
0
30
0
70
128
71
1040
72
1041
73
1044
0
VERTEX
8

10
0
20
0
30
0
70
128
71
1041
72
1043
73
1044
0
VERTEX
8

10
0
20
0
30
0
70
128
71
1041
72
1042
73
1043
0
VERTEX
8

10
0
20
0
30
0
70
128
71
1045
72
1050
73
1046
0
VERTEX
8

10
0
20
0
30
0
70
128
71
1050
72
1047
73
1046
0
VERTEX
8

10
0
20
0
30
0
70
128
71
1050
72
1049
73
1047
0
VERTEX
8

10
0
20
0
30
0
70
128
71
1049
72
1048
73
1047
0
VERTEX
8

10
0
20
0
30
0
70
128
71
1051
72
1056
73
1052
0
VERTEX
8

10
0
20
0
30
0
70
128
71
1056
72
1053
73
1052
0
VERTEX
8

10
0
20
0
30
0
70
128
71
1056
72
1055
73
1053
0
VERTEX
8

10
0
20
0
30
0
70
128
71
1055
72
1054
73
1053
0
VERTEX
8

10
0
20
0
30
0
70
128
71
1057
72
1062
73
1058
0
VERTEX
8

10
0
20
0
30
0
70
128
71
1062
72
1059
73
1058
0
VERTEX
8

10
0
20
0
30
0
70
128
71
1062
72
1061
73
1059
0
VERTEX
8

10
0
20
0
30
0
70
128
71
1061
72
1060
73
1059
0
VERTEX
8

10
0
20
0
30
0
70
128
71
1063
72
1068
73
1064
0
VERTEX
8

10
0
20
0
30
0
70
128
71
1068
72
1065
73
1064
0
VERTEX
8

10
0
20
0
30
0
70
128
71
1068
72
1067
73
1065
0
VERTEX
8

10
0
20
0
30
0
70
128
71
1067
72
1066
73
1065
0
VERTEX
8

10
0
20
0
30
0
70
128
71
1069
72
1074
73
1070
0
VERTEX
8

10
0
20
0
30
0
70
128
71
1074
72
1071
73
1070
0
VERTEX
8

10
0
20
0
30
0
70
128
71
1074
72
1073
73
1071
0
VERTEX
8

10
0
20
0
30
0
70
128
71
1073
72
1072
73
1071
0
VERTEX
8

10
0
20
0
30
0
70
128
71
1075
72
1080
73
1076
0
VERTEX
8

10
0
20
0
30
0
70
128
71
1080
72
1077
73
1076
0
VERTEX
8

10
0
20
0
30
0
70
128
71
1080
72
1079
73
1077
0
VERTEX
8

10
0
20
0
30
0
70
128
71
1079
72
1078
73
1077
0
VERTEX
8

10
0
20
0
30
0
70
128
71
1081
72
1086
73
1082
0
VERTEX
8

10
0
20
0
30
0
70
128
71
1086
72
1083
73
1082
0
VERTEX
8

10
0
20
0
30
0
70
128
71
1086
72
1085
73
1083
0
VERTEX
8

10
0
20
0
30
0
70
128
71
1085
72
1084
73
1083
0
VERTEX
8

10
0
20
0
30
0
70
128
71
1088
72
1092
73
1087
0
VERTEX
8

10
0
20
0
30
0
70
128
71
1088
72
1089
73
1092
0
VERTEX
8

10
0
20
0
30
0
70
128
71
1089
72
1091
73
1092
0
VERTEX
8

10
0
20
0
30
0
70
128
71
1089
72
1090
73
1091
0
VERTEX
8

10
0
20
0
30
0
70
128
71
1094
72
1098
73
1093
0
VERTEX
8

10
0
20
0
30
0
70
128
71
1094
72
1095
73
1098
0
VERTEX
8

10
0
20
0
30
0
70
128
71
1095
72
1097
73
1098
0
VERTEX
8

10
0
20
0
30
0
70
128
71
1095
72
1096
73
1097
0
VERTEX
8

10
0
20
0
30
0
70
128
71
1099
72
1100
73
-1103
0
VERTEX
8

10
0
20
0
30
0
70
128
71
-1099
72
1103
73
1102
0
VERTEX
8

10
0
20
0
30
0
70
128
71
1100
72
1101
73
-1104
0
VERTEX
8

10
0
20
0
30
0
70
128
71
-1100
72
1104
73
1103
0
VERTEX
8

10
0
20
0
30
0
70
128
71
1101
72
1099
73
-1102
0
VERTEX
8

10
0
20
0
30
0
70
128
71
-1101
72
1102
73
1104
0
VERTEX
8

10
0
20
0
30
0
70
128
71
1102
72
1103
73
-1106
0
VERTEX
8

10
0
20
0
30
0
70
128
71
-1102
72
1106
73
1105
0
VERTEX
8

10
0
20
0
30
0
70
128
71
1103
72
1104
73
-1107
0
VERTEX
8

10
0
20
0
30
0
70
128
71
-1103
72
1107
73
1106
0
VERTEX
8

10
0
20
0
30
0
70
128
71
1104
72
1102
73
-1105
0
VERTEX
8

10
0
20
0
30
0
70
128
71
-1104
72
1105
73
1107
0
VERTEX
8

10
0
20
0
30
0
70
128
71
1105
72
1106
73
-1109
0
VERTEX
8

10
0
20
0
30
0
70
128
71
-1105
72
1109
73
1108
0
VERTEX
8

10
0
20
0
30
0
70
128
71
1106
72
1107
73
-1110
0
VERTEX
8

10
0
20
0
30
0
70
128
71
-1106
72
1110
73
1109
0
VERTEX
8

10
0
20
0
30
0
70
128
71
1107
72
1105
73
-1108
0
VERTEX
8

10
0
20
0
30
0
70
128
71
-1107
72
1108
73
1110
0
VERTEX
8

10
0
20
0
30
0
70
128
71
1108
72
1109
73
-1112
0
VERTEX
8

10
0
20
0
30
0
70
128
71
-1108
72
1112
73
1111
0
VERTEX
8

10
0
20
0
30
0
70
128
71
1109
72
1110
73
-1113
0
VERTEX
8

10
0
20
0
30
0
70
128
71
-1109
72
1113
73
1112
0
VERTEX
8

10
0
20
0
30
0
70
128
71
1110
72
1108
73
-1111
0
VERTEX
8

10
0
20
0
30
0
70
128
71
-1110
72
1111
73
1113
0
VERTEX
8

10
0
20
0
30
0
70
128
71
1111
72
1112
73
-1115
0
VERTEX
8

10
0
20
0
30
0
70
128
71
-1111
72
1115
73
1114
0
VERTEX
8

10
0
20
0
30
0
70
128
71
1112
72
1113
73
-1116
0
VERTEX
8

10
0
20
0
30
0
70
128
71
-1112
72
1116
73
1115
0
VERTEX
8

10
0
20
0
30
0
70
128
71
1113
72
1111
73
-1114
0
VERTEX
8

10
0
20
0
30
0
70
128
71
-1113
72
1114
73
1116
0
VERTEX
8

10
0
20
0
30
0
70
128
71
1114
72
1115
73
-1118
0
VERTEX
8

10
0
20
0
30
0
70
128
71
-1114
72
1118
73
1117
0
VERTEX
8

10
0
20
0
30
0
70
128
71
1115
72
1116
73
-1119
0
VERTEX
8

10
0
20
0
30
0
70
128
71
-1115
72
1119
73
1118
0
VERTEX
8

10
0
20
0
30
0
70
128
71
1116
72
1114
73
-1117
0
VERTEX
8

10
0
20
0
30
0
70
128
71
-1116
72
1117
73
1119
0
VERTEX
8

10
0
20
0
30
0
70
128
71
1117
72
1118
73
-1121
0
VERTEX
8

10
0
20
0
30
0
70
128
71
-1117
72
1121
73
1120
0
VERTEX
8

10
0
20
0
30
0
70
128
71
1118
72
1119
73
-1122
0
VERTEX
8

10
0
20
0
30
0
70
128
71
-1118
72
1122
73
1121
0
VERTEX
8

10
0
20
0
30
0
70
128
71
1119
72
1117
73
-1120
0
VERTEX
8

10
0
20
0
30
0
70
128
71
-1119
72
1120
73
1122
0
VERTEX
8

10
0
20
0
30
0
70
128
71
1120
72
1121
73
-1124
0
VERTEX
8

10
0
20
0
30
0
70
128
71
-1120
72
1124
73
1123
0
VERTEX
8

10
0
20
0
30
0
70
128
71
1121
72
1122
73
-1125
0
VERTEX
8

10
0
20
0
30
0
70
128
71
-1121
72
1125
73
1124
0
VERTEX
8

10
0
20
0
30
0
70
128
71
1122
72
1120
73
-1123
0
VERTEX
8

10
0
20
0
30
0
70
128
71
-1122
72
1123
73
1125
0
VERTEX
8

10
0
20
0
30
0
70
128
71
1127
72
1131
73
1126
0
VERTEX
8

10
0
20
0
30
0
70
128
71
1127
72
1128
73
1131
0
VERTEX
8

10
0
20
0
30
0
70
128
71
1128
72
1130
73
1131
0
VERTEX
8

10
0
20
0
30
0
70
128
71
1128
72
1129
73
1130
0
VERTEX
8

10
0
20
0
30
0
70
128
71
1133
72
1137
73
1132
0
VERTEX
8

10
0
20
0
30
0
70
128
71
1133
72
1134
73
1137
0
VERTEX
8

10
0
20
0
30
0
70
128
71
1134
72
1136
73
1137
0
VERTEX
8

10
0
20
0
30
0
70
128
71
1134
72
1135
73
1136
0
VERTEX
8

10
0
20
0
30
0
70
128
71
1139
72
1143
73
1138
0
VERTEX
8

10
0
20
0
30
0
70
128
71
1139
72
1140
73
1143
0
VERTEX
8

10
0
20
0
30
0
70
128
71
1140
72
1142
73
1143
0
VERTEX
8

10
0
20
0
30
0
70
128
71
1140
72
1141
73
1142
0
VERTEX
8

10
0
20
0
30
0
70
128
71
1145
72
1149
73
1144
0
VERTEX
8

10
0
20
0
30
0
70
128
71
1145
72
1146
73
1149
0
VERTEX
8

10
0
20
0
30
0
70
128
71
1146
72
1148
73
1149
0
VERTEX
8

10
0
20
0
30
0
70
128
71
1146
72
1147
73
1148
0
VERTEX
8

10
0
20
0
30
0
70
128
71
1151
72
1155
73
1150
0
VERTEX
8

10
0
20
0
30
0
70
128
71
1151
72
1152
73
1155
0
VERTEX
8

10
0
20
0
30
0
70
128
71
1152
72
1154
73
1155
0
VERTEX
8

10
0
20
0
30
0
70
128
71
1152
72
1153
73
1154
0
VERTEX
8

10
0
20
0
30
0
70
128
71
1156
72
1161
73
1157
0
VERTEX
8

10
0
20
0
30
0
70
128
71
1161
72
1158
73
1157
0
VERTEX
8

10
0
20
0
30
0
70
128
71
1161
72
1160
73
1158
0
VERTEX
8

10
0
20
0
30
0
70
128
71
1160
72
1159
73
1158
0
VERTEX
8

10
0
20
0
30
0
70
128
71
1162
72
1167
73
1163
0
VERTEX
8

10
0
20
0
30
0
70
128
71
1167
72
1164
73
1163
0
VERTEX
8

10
0
20
0
30
0
70
128
71
1167
72
1166
73
1164
0
VERTEX
8

10
0
20
0
30
0
70
128
71
1166
72
1165
73
1164
0
VERTEX
8

10
0
20
0
30
0
70
128
71
1168
72
1173
73
1169
0
VERTEX
8

10
0
20
0
30
0
70
128
71
1173
72
1170
73
1169
0
VERTEX
8

10
0
20
0
30
0
70
128
71
1173
72
1172
73
1170
0
VERTEX
8

10
0
20
0
30
0
70
128
71
1172
72
1171
73
1170
0
VERTEX
8

10
0
20
0
30
0
70
128
71
1174
72
1179
73
1175
0
VERTEX
8

10
0
20
0
30
0
70
128
71
1179
72
1176
73
1175
0
VERTEX
8

10
0
20
0
30
0
70
128
71
1179
72
1178
73
1176
0
VERTEX
8

10
0
20
0
30
0
70
128
71
1178
72
1177
73
1176
0
VERTEX
8

10
0
20
0
30
0
70
128
71
1180
72
1185
73
1181
0
VERTEX
8

10
0
20
0
30
0
70
128
71
1185
72
1182
73
1181
0
VERTEX
8

10
0
20
0
30
0
70
128
71
1185
72
1184
73
1182
0
VERTEX
8

10
0
20
0
30
0
70
128
71
1184
72
1183
73
1182
0
VERTEX
8

10
0
20
0
30
0
70
128
71
1186
72
1191
73
1187
0
VERTEX
8

10
0
20
0
30
0
70
128
71
1191
72
1188
73
1187
0
VERTEX
8

10
0
20
0
30
0
70
128
71
1191
72
1190
73
1188
0
VERTEX
8

10
0
20
0
30
0
70
128
71
1190
72
1189
73
1188
0
VERTEX
8

10
0
20
0
30
0
70
128
71
1192
72
1197
73
1193
0
VERTEX
8

10
0
20
0
30
0
70
128
71
1197
72
1194
73
1193
0
VERTEX
8

10
0
20
0
30
0
70
128
71
1197
72
1196
73
1194
0
VERTEX
8

10
0
20
0
30
0
70
128
71
1196
72
1195
73
1194
0
VERTEX
8

10
0
20
0
30
0
70
128
71
1199
72
1203
73
1198
0
VERTEX
8

10
0
20
0
30
0
70
128
71
1199
72
1200
73
1203
0
VERTEX
8

10
0
20
0
30
0
70
128
71
1200
72
1202
73
1203
0
VERTEX
8

10
0
20
0
30
0
70
128
71
1200
72
1201
73
1202
0
VERTEX
8

10
0
20
0
30
0
70
128
71
1205
72
1209
73
1204
0
VERTEX
8

10
0
20
0
30
0
70
128
71
1205
72
1206
73
1209
0
VERTEX
8

10
0
20
0
30
0
70
128
71
1206
72
1208
73
1209
0
VERTEX
8

10
0
20
0
30
0
70
128
71
1206
72
1207
73
1208
0
VERTEX
8

10
0
20
0
30
0
70
128
71
1210
72
1211
73
-1214
0
VERTEX
8

10
0
20
0
30
0
70
128
71
-1210
72
1214
73
1213
0
VERTEX
8

10
0
20
0
30
0
70
128
71
1211
72
1212
73
-1215
0
VERTEX
8

10
0
20
0
30
0
70
128
71
-1211
72
1215
73
1214
0
VERTEX
8

10
0
20
0
30
0
70
128
71
1212
72
1210
73
-1213
0
VERTEX
8

10
0
20
0
30
0
70
128
71
-1212
72
1213
73
1215
0
VERTEX
8

10
0
20
0
30
0
70
128
71
1213
72
1214
73
-1217
0
VERTEX
8

10
0
20
0
30
0
70
128
71
-1213
72
1217
73
1216
0
VERTEX
8

10
0
20
0
30
0
70
128
71
1214
72
1215
73
-1218
0
VERTEX
8

10
0
20
0
30
0
70
128
71
-1214
72
1218
73
1217
0
VERTEX
8

10
0
20
0
30
0
70
128
71
1215
72
1213
73
-1216
0
VERTEX
8

10
0
20
0
30
0
70
128
71
-1215
72
1216
73
1218
0
VERTEX
8

10
0
20
0
30
0
70
128
71
1216
72
1217
73
-1220
0
VERTEX
8

10
0
20
0
30
0
70
128
71
-1216
72
1220
73
1219
0
VERTEX
8

10
0
20
0
30
0
70
128
71
1217
72
1218
73
-1221
0
VERTEX
8

10
0
20
0
30
0
70
128
71
-1217
72
1221
73
1220
0
VERTEX
8

10
0
20
0
30
0
70
128
71
1218
72
1216
73
-1219
0
VERTEX
8

10
0
20
0
30
0
70
128
71
-1218
72
1219
73
1221
0
VERTEX
8

10
0
20
0
30
0
70
128
71
1219
72
1220
73
-1223
0
VERTEX
8

10
0
20
0
30
0
70
128
71
-1219
72
1223
73
1222
0
VERTEX
8

10
0
20
0
30
0
70
128
71
1220
72
1221
73
-1224
0
VERTEX
8

10
0
20
0
30
0
70
128
71
-1220
72
1224
73
1223
0
VERTEX
8

10
0
20
0
30
0
70
128
71
1221
72
1219
73
-1222
0
VERTEX
8

10
0
20
0
30
0
70
128
71
-1221
72
1222
73
1224
0
VERTEX
8

10
0
20
0
30
0
70
128
71
1222
72
1223
73
-1226
0
VERTEX
8

10
0
20
0
30
0
70
128
71
-1222
72
1226
73
1225
0
VERTEX
8

10
0
20
0
30
0
70
128
71
1223
72
1224
73
-1227
0
VERTEX
8

10
0
20
0
30
0
70
128
71
-1223
72
1227
73
1226
0
VERTEX
8

10
0
20
0
30
0
70
128
71
1224
72
1222
73
-1225
0
VERTEX
8

10
0
20
0
30
0
70
128
71
-1224
72
1225
73
1227
0
VERTEX
8

10
0
20
0
30
0
70
128
71
1225
72
1226
73
-1229
0
VERTEX
8

10
0
20
0
30
0
70
128
71
-1225
72
1229
73
1228
0
VERTEX
8

10
0
20
0
30
0
70
128
71
1226
72
1227
73
-1230
0
VERTEX
8

10
0
20
0
30
0
70
128
71
-1226
72
1230
73
1229
0
VERTEX
8

10
0
20
0
30
0
70
128
71
1227
72
1225
73
-1228
0
VERTEX
8

10
0
20
0
30
0
70
128
71
-1227
72
1228
73
1230
0
VERTEX
8

10
0
20
0
30
0
70
128
71
1228
72
1229
73
-1232
0
VERTEX
8

10
0
20
0
30
0
70
128
71
-1228
72
1232
73
1231
0
VERTEX
8

10
0
20
0
30
0
70
128
71
1229
72
1230
73
-1233
0
VERTEX
8

10
0
20
0
30
0
70
128
71
-1229
72
1233
73
1232
0
VERTEX
8

10
0
20
0
30
0
70
128
71
1230
72
1228
73
-1231
0
VERTEX
8

10
0
20
0
30
0
70
128
71
-1230
72
1231
73
1233
0
VERTEX
8

10
0
20
0
30
0
70
128
71
1231
72
1232
73
-1235
0
VERTEX
8

10
0
20
0
30
0
70
128
71
-1231
72
1235
73
1234
0
VERTEX
8

10
0
20
0
30
0
70
128
71
1232
72
1233
73
-1236
0
VERTEX
8

10
0
20
0
30
0
70
128
71
-1232
72
1236
73
1235
0
VERTEX
8

10
0
20
0
30
0
70
128
71
1233
72
1231
73
-1234
0
VERTEX
8

10
0
20
0
30
0
70
128
71
-1233
72
1234
73
1236
0
VERTEX
8

10
0
20
0
30
0
70
128
71
1238
72
1242
73
1237
0
VERTEX
8

10
0
20
0
30
0
70
128
71
1238
72
1239
73
1242
0
VERTEX
8

10
0
20
0
30
0
70
128
71
1239
72
1241
73
1242
0
VERTEX
8

10
0
20
0
30
0
70
128
71
1239
72
1240
73
1241
0
VERTEX
8

10
0
20
0
30
0
70
128
71
1244
72
1248
73
1243
0
VERTEX
8

10
0
20
0
30
0
70
128
71
1244
72
1245
73
1248
0
VERTEX
8

10
0
20
0
30
0
70
128
71
1245
72
1247
73
1248
0
VERTEX
8

10
0
20
0
30
0
70
128
71
1245
72
1246
73
1247
0
VERTEX
8

10
0
20
0
30
0
70
128
71
1250
72
1254
73
1249
0
VERTEX
8

10
0
20
0
30
0
70
128
71
1250
72
1251
73
1254
0
VERTEX
8

10
0
20
0
30
0
70
128
71
1251
72
1253
73
1254
0
VERTEX
8

10
0
20
0
30
0
70
128
71
1251
72
1252
73
1253
0
VERTEX
8

10
0
20
0
30
0
70
128
71
1256
72
1260
73
1255
0
VERTEX
8

10
0
20
0
30
0
70
128
71
1256
72
1257
73
1260
0
VERTEX
8

10
0
20
0
30
0
70
128
71
1257
72
1259
73
1260
0
VERTEX
8

10
0
20
0
30
0
70
128
71
1257
72
1258
73
1259
0
VERTEX
8

10
0
20
0
30
0
70
128
71
1262
72
1266
73
1261
0
VERTEX
8

10
0
20
0
30
0
70
128
71
1262
72
1263
73
1266
0
VERTEX
8

10
0
20
0
30
0
70
128
71
1263
72
1265
73
1266
0
VERTEX
8

10
0
20
0
30
0
70
128
71
1263
72
1264
73
1265
0
VERTEX
8

10
0
20
0
30
0
70
128
71
1267
72
1272
73
1268
0
VERTEX
8

10
0
20
0
30
0
70
128
71
1272
72
1269
73
1268
0
VERTEX
8

10
0
20
0
30
0
70
128
71
1272
72
1271
73
1269
0
VERTEX
8

10
0
20
0
30
0
70
128
71
1271
72
1270
73
1269
0
VERTEX
8

10
0
20
0
30
0
70
128
71
1273
72
1278
73
1274
0
VERTEX
8

10
0
20
0
30
0
70
128
71
1278
72
1275
73
1274
0
VERTEX
8

10
0
20
0
30
0
70
128
71
1278
72
1277
73
1275
0
VERTEX
8

10
0
20
0
30
0
70
128
71
1277
72
1276
73
1275
0
VERTEX
8

10
0
20
0
30
0
70
128
71
1279
72
1284
73
1280
0
VERTEX
8

10
0
20
0
30
0
70
128
71
1284
72
1281
73
1280
0
VERTEX
8

10
0
20
0
30
0
70
128
71
1284
72
1283
73
1281
0
VERTEX
8

10
0
20
0
30
0
70
128
71
1283
72
1282
73
1281
0
VERTEX
8

10
0
20
0
30
0
70
128
71
1285
72
1290
73
1286
0
VERTEX
8

10
0
20
0
30
0
70
128
71
1290
72
1287
73
1286
0
VERTEX
8

10
0
20
0
30
0
70
128
71
1290
72
1289
73
1287
0
VERTEX
8

10
0
20
0
30
0
70
128
71
1289
72
1288
73
1287
0
VERTEX
8

10
0
20
0
30
0
70
128
71
1291
72
1296
73
1292
0
VERTEX
8

10
0
20
0
30
0
70
128
71
1296
72
1293
73
1292
0
VERTEX
8

10
0
20
0
30
0
70
128
71
1296
72
1295
73
1293
0
VERTEX
8

10
0
20
0
30
0
70
128
71
1295
72
1294
73
1293
0
VERTEX
8

10
0
20
0
30
0
70
128
71
1297
72
1302
73
1298
0
VERTEX
8

10
0
20
0
30
0
70
128
71
1302
72
1299
73
1298
0
VERTEX
8

10
0
20
0
30
0
70
128
71
1302
72
1301
73
1299
0
VERTEX
8

10
0
20
0
30
0
70
128
71
1301
72
1300
73
1299
0
VERTEX
8

10
0
20
0
30
0
70
128
71
1303
72
1308
73
1304
0
VERTEX
8

10
0
20
0
30
0
70
128
71
1308
72
1305
73
1304
0
VERTEX
8

10
0
20
0
30
0
70
128
71
1308
72
1307
73
1305
0
VERTEX
8

10
0
20
0
30
0
70
128
71
1307
72
1306
73
1305
0
VERTEX
8

10
0
20
0
30
0
70
128
71
1310
72
1314
73
1309
0
VERTEX
8

10
0
20
0
30
0
70
128
71
1310
72
1311
73
1314
0
VERTEX
8

10
0
20
0
30
0
70
128
71
1311
72
1313
73
1314
0
VERTEX
8

10
0
20
0
30
0
70
128
71
1311
72
1312
73
1313
0
VERTEX
8

10
0
20
0
30
0
70
128
71
1316
72
1320
73
1315
0
VERTEX
8

10
0
20
0
30
0
70
128
71
1316
72
1317
73
1320
0
VERTEX
8

10
0
20
0
30
0
70
128
71
1317
72
1319
73
1320
0
VERTEX
8

10
0
20
0
30
0
70
128
71
1317
72
1318
73
1319
0
VERTEX
8

10
0
20
0
30
0
70
128
71
1321
72
1322
73
-1325
0
VERTEX
8

10
0
20
0
30
0
70
128
71
-1321
72
1325
73
1324
0
VERTEX
8

10
0
20
0
30
0
70
128
71
1322
72
1323
73
-1326
0
VERTEX
8

10
0
20
0
30
0
70
128
71
-1322
72
1326
73
1325
0
VERTEX
8

10
0
20
0
30
0
70
128
71
1323
72
1321
73
-1324
0
VERTEX
8

10
0
20
0
30
0
70
128
71
-1323
72
1324
73
1326
0
VERTEX
8

10
0
20
0
30
0
70
128
71
1324
72
1325
73
-1328
0
VERTEX
8

10
0
20
0
30
0
70
128
71
-1324
72
1328
73
1327
0
VERTEX
8

10
0
20
0
30
0
70
128
71
1325
72
1326
73
-1329
0
VERTEX
8

10
0
20
0
30
0
70
128
71
-1325
72
1329
73
1328
0
VERTEX
8

10
0
20
0
30
0
70
128
71
1326
72
1324
73
-1327
0
VERTEX
8

10
0
20
0
30
0
70
128
71
-1326
72
1327
73
1329
0
VERTEX
8

10
0
20
0
30
0
70
128
71
1327
72
1328
73
-1331
0
VERTEX
8

10
0
20
0
30
0
70
128
71
-1327
72
1331
73
1330
0
VERTEX
8

10
0
20
0
30
0
70
128
71
1328
72
1329
73
-1332
0
VERTEX
8

10
0
20
0
30
0
70
128
71
-1328
72
1332
73
1331
0
VERTEX
8

10
0
20
0
30
0
70
128
71
1329
72
1327
73
-1330
0
VERTEX
8

10
0
20
0
30
0
70
128
71
-1329
72
1330
73
1332
0
VERTEX
8

10
0
20
0
30
0
70
128
71
1330
72
1331
73
-1334
0
VERTEX
8

10
0
20
0
30
0
70
128
71
-1330
72
1334
73
1333
0
VERTEX
8

10
0
20
0
30
0
70
128
71
1331
72
1332
73
-1335
0
VERTEX
8

10
0
20
0
30
0
70
128
71
-1331
72
1335
73
1334
0
VERTEX
8

10
0
20
0
30
0
70
128
71
1332
72
1330
73
-1333
0
VERTEX
8

10
0
20
0
30
0
70
128
71
-1332
72
1333
73
1335
0
VERTEX
8

10
0
20
0
30
0
70
128
71
1333
72
1334
73
-1337
0
VERTEX
8

10
0
20
0
30
0
70
128
71
-1333
72
1337
73
1336
0
VERTEX
8

10
0
20
0
30
0
70
128
71
1334
72
1335
73
-1338
0
VERTEX
8

10
0
20
0
30
0
70
128
71
-1334
72
1338
73
1337
0
VERTEX
8

10
0
20
0
30
0
70
128
71
1335
72
1333
73
-1336
0
VERTEX
8

10
0
20
0
30
0
70
128
71
-1335
72
1336
73
1338
0
VERTEX
8

10
0
20
0
30
0
70
128
71
1336
72
1337
73
-1340
0
VERTEX
8

10
0
20
0
30
0
70
128
71
-1336
72
1340
73
1339
0
VERTEX
8

10
0
20
0
30
0
70
128
71
1337
72
1338
73
-1341
0
VERTEX
8

10
0
20
0
30
0
70
128
71
-1337
72
1341
73
1340
0
VERTEX
8

10
0
20
0
30
0
70
128
71
1338
72
1336
73
-1339
0
VERTEX
8

10
0
20
0
30
0
70
128
71
-1338
72
1339
73
1341
0
VERTEX
8

10
0
20
0
30
0
70
128
71
1339
72
1340
73
-1343
0
VERTEX
8

10
0
20
0
30
0
70
128
71
-1339
72
1343
73
1342
0
VERTEX
8

10
0
20
0
30
0
70
128
71
1340
72
1341
73
-1344
0
VERTEX
8

10
0
20
0
30
0
70
128
71
-1340
72
1344
73
1343
0
VERTEX
8

10
0
20
0
30
0
70
128
71
1341
72
1339
73
-1342
0
VERTEX
8

10
0
20
0
30
0
70
128
71
-1341
72
1342
73
1344
0
VERTEX
8

10
0
20
0
30
0
70
128
71
1342
72
1343
73
-1346
0
VERTEX
8

10
0
20
0
30
0
70
128
71
-1342
72
1346
73
1345
0
VERTEX
8

10
0
20
0
30
0
70
128
71
1343
72
1344
73
-1347
0
VERTEX
8

10
0
20
0
30
0
70
128
71
-1343
72
1347
73
1346
0
VERTEX
8

10
0
20
0
30
0
70
128
71
1344
72
1342
73
-1345
0
VERTEX
8

10
0
20
0
30
0
70
128
71
-1344
72
1345
73
1347
0
VERTEX
8

10
0
20
0
30
0
70
128
71
1349
72
1353
73
1348
0
VERTEX
8

10
0
20
0
30
0
70
128
71
1349
72
1350
73
1353
0
VERTEX
8

10
0
20
0
30
0
70
128
71
1350
72
1352
73
1353
0
VERTEX
8

10
0
20
0
30
0
70
128
71
1350
72
1351
73
1352
0
VERTEX
8

10
0
20
0
30
0
70
128
71
1355
72
1359
73
1354
0
VERTEX
8

10
0
20
0
30
0
70
128
71
1355
72
1356
73
1359
0
VERTEX
8

10
0
20
0
30
0
70
128
71
1356
72
1358
73
1359
0
VERTEX
8

10
0
20
0
30
0
70
128
71
1356
72
1357
73
1358
0
VERTEX
8

10
0
20
0
30
0
70
128
71
1361
72
1365
73
1360
0
VERTEX
8

10
0
20
0
30
0
70
128
71
1361
72
1362
73
1365
0
VERTEX
8

10
0
20
0
30
0
70
128
71
1362
72
1364
73
1365
0
VERTEX
8

10
0
20
0
30
0
70
128
71
1362
72
1363
73
1364
0
VERTEX
8

10
0
20
0
30
0
70
128
71
1367
72
1371
73
1366
0
VERTEX
8

10
0
20
0
30
0
70
128
71
1367
72
1368
73
1371
0
VERTEX
8

10
0
20
0
30
0
70
128
71
1368
72
1370
73
1371
0
VERTEX
8

10
0
20
0
30
0
70
128
71
1368
72
1369
73
1370
0
VERTEX
8

10
0
20
0
30
0
70
128
71
1373
72
1377
73
1372
0
VERTEX
8

10
0
20
0
30
0
70
128
71
1373
72
1374
73
1377
0
VERTEX
8

10
0
20
0
30
0
70
128
71
1374
72
1376
73
1377
0
VERTEX
8

10
0
20
0
30
0
70
128
71
1374
72
1375
73
1376
0
VERTEX
8

10
0
20
0
30
0
70
128
71
1378
72
1383
73
1379
0
VERTEX
8

10
0
20
0
30
0
70
128
71
1383
72
1380
73
1379
0
VERTEX
8

10
0
20
0
30
0
70
128
71
1383
72
1382
73
1380
0
VERTEX
8

10
0
20
0
30
0
70
128
71
1382
72
1381
73
1380
0
VERTEX
8

10
0
20
0
30
0
70
128
71
1384
72
1389
73
1385
0
VERTEX
8

10
0
20
0
30
0
70
128
71
1389
72
1386
73
1385
0
VERTEX
8

10
0
20
0
30
0
70
128
71
1389
72
1388
73
1386
0
VERTEX
8

10
0
20
0
30
0
70
128
71
1388
72
1387
73
1386
0
VERTEX
8

10
0
20
0
30
0
70
128
71
1390
72
1395
73
1391
0
VERTEX
8

10
0
20
0
30
0
70
128
71
1395
72
1392
73
1391
0
VERTEX
8

10
0
20
0
30
0
70
128
71
1395
72
1394
73
1392
0
VERTEX
8

10
0
20
0
30
0
70
128
71
1394
72
1393
73
1392
0
VERTEX
8

10
0
20
0
30
0
70
128
71
1396
72
1401
73
1397
0
VERTEX
8

10
0
20
0
30
0
70
128
71
1401
72
1398
73
1397
0
VERTEX
8

10
0
20
0
30
0
70
128
71
1401
72
1400
73
1398
0
VERTEX
8

10
0
20
0
30
0
70
128
71
1400
72
1399
73
1398
0
VERTEX
8

10
0
20
0
30
0
70
128
71
1402
72
1407
73
1403
0
VERTEX
8

10
0
20
0
30
0
70
128
71
1407
72
1404
73
1403
0
VERTEX
8

10
0
20
0
30
0
70
128
71
1407
72
1406
73
1404
0
VERTEX
8

10
0
20
0
30
0
70
128
71
1406
72
1405
73
1404
0
VERTEX
8

10
0
20
0
30
0
70
128
71
1408
72
1413
73
1409
0
VERTEX
8

10
0
20
0
30
0
70
128
71
1413
72
1410
73
1409
0
VERTEX
8

10
0
20
0
30
0
70
128
71
1413
72
1412
73
1410
0
VERTEX
8

10
0
20
0
30
0
70
128
71
1412
72
1411
73
1410
0
VERTEX
8

10
0
20
0
30
0
70
128
71
1414
72
1419
73
1415
0
VERTEX
8

10
0
20
0
30
0
70
128
71
1419
72
1416
73
1415
0
VERTEX
8

10
0
20
0
30
0
70
128
71
1419
72
1418
73
1416
0
VERTEX
8

10
0
20
0
30
0
70
128
71
1418
72
1417
73
1416
0
VERTEX
8

10
0
20
0
30
0
70
128
71
1421
72
1425
73
1420
0
VERTEX
8

10
0
20
0
30
0
70
128
71
1421
72
1422
73
1425
0
VERTEX
8

10
0
20
0
30
0
70
128
71
1422
72
1424
73
1425
0
VERTEX
8

10
0
20
0
30
0
70
128
71
1422
72
1423
73
1424
0
VERTEX
8

10
0
20
0
30
0
70
128
71
1427
72
1431
73
1426
0
VERTEX
8

10
0
20
0
30
0
70
128
71
1427
72
1428
73
1431
0
VERTEX
8

10
0
20
0
30
0
70
128
71
1428
72
1430
73
1431
0
VERTEX
8

10
0
20
0
30
0
70
128
71
1428
72
1429
73
1430
0
VERTEX
8

10
0
20
0
30
0
70
128
71
1432
72
1433
73
-1436
0
VERTEX
8

10
0
20
0
30
0
70
128
71
-1432
72
1436
73
1435
0
VERTEX
8

10
0
20
0
30
0
70
128
71
1433
72
1434
73
-1437
0
VERTEX
8

10
0
20
0
30
0
70
128
71
-1433
72
1437
73
1436
0
VERTEX
8

10
0
20
0
30
0
70
128
71
1434
72
1432
73
-1435
0
VERTEX
8

10
0
20
0
30
0
70
128
71
-1434
72
1435
73
1437
0
VERTEX
8

10
0
20
0
30
0
70
128
71
1435
72
1436
73
-1439
0
VERTEX
8

10
0
20
0
30
0
70
128
71
-1435
72
1439
73
1438
0
VERTEX
8

10
0
20
0
30
0
70
128
71
1436
72
1437
73
-1440
0
VERTEX
8

10
0
20
0
30
0
70
128
71
-1436
72
1440
73
1439
0
VERTEX
8

10
0
20
0
30
0
70
128
71
1437
72
1435
73
-1438
0
VERTEX
8

10
0
20
0
30
0
70
128
71
-1437
72
1438
73
1440
0
VERTEX
8

10
0
20
0
30
0
70
128
71
1438
72
1439
73
-1442
0
VERTEX
8

10
0
20
0
30
0
70
128
71
-1438
72
1442
73
1441
0
VERTEX
8

10
0
20
0
30
0
70
128
71
1439
72
1440
73
-1443
0
VERTEX
8

10
0
20
0
30
0
70
128
71
-1439
72
1443
73
1442
0
VERTEX
8

10
0
20
0
30
0
70
128
71
1440
72
1438
73
-1441
0
VERTEX
8

10
0
20
0
30
0
70
128
71
-1440
72
1441
73
1443
0
VERTEX
8

10
0
20
0
30
0
70
128
71
1441
72
1442
73
-1445
0
VERTEX
8

10
0
20
0
30
0
70
128
71
-1441
72
1445
73
1444
0
VERTEX
8

10
0
20
0
30
0
70
128
71
1442
72
1443
73
-1446
0
VERTEX
8

10
0
20
0
30
0
70
128
71
-1442
72
1446
73
1445
0
VERTEX
8

10
0
20
0
30
0
70
128
71
1443
72
1441
73
-1444
0
VERTEX
8

10
0
20
0
30
0
70
128
71
-1443
72
1444
73
1446
0
VERTEX
8

10
0
20
0
30
0
70
128
71
1444
72
1445
73
-1448
0
VERTEX
8

10
0
20
0
30
0
70
128
71
-1444
72
1448
73
1447
0
VERTEX
8

10
0
20
0
30
0
70
128
71
1445
72
1446
73
-1449
0
VERTEX
8

10
0
20
0
30
0
70
128
71
-1445
72
1449
73
1448
0
VERTEX
8

10
0
20
0
30
0
70
128
71
1446
72
1444
73
-1447
0
VERTEX
8

10
0
20
0
30
0
70
128
71
-1446
72
1447
73
1449
0
VERTEX
8

10
0
20
0
30
0
70
128
71
1447
72
1448
73
-1451
0
VERTEX
8

10
0
20
0
30
0
70
128
71
-1447
72
1451
73
1450
0
VERTEX
8

10
0
20
0
30
0
70
128
71
1448
72
1449
73
-1452
0
VERTEX
8

10
0
20
0
30
0
70
128
71
-1448
72
1452
73
1451
0
VERTEX
8

10
0
20
0
30
0
70
128
71
1449
72
1447
73
-1450
0
VERTEX
8

10
0
20
0
30
0
70
128
71
-1449
72
1450
73
1452
0
VERTEX
8

10
0
20
0
30
0
70
128
71
1450
72
1451
73
-1454
0
VERTEX
8

10
0
20
0
30
0
70
128
71
-1450
72
1454
73
1453
0
VERTEX
8

10
0
20
0
30
0
70
128
71
1451
72
1452
73
-1455
0
VERTEX
8

10
0
20
0
30
0
70
128
71
-1451
72
1455
73
1454
0
VERTEX
8

10
0
20
0
30
0
70
128
71
1452
72
1450
73
-1453
0
VERTEX
8

10
0
20
0
30
0
70
128
71
-1452
72
1453
73
1455
0
VERTEX
8

10
0
20
0
30
0
70
128
71
1453
72
1454
73
-1457
0
VERTEX
8

10
0
20
0
30
0
70
128
71
-1453
72
1457
73
1456
0
VERTEX
8

10
0
20
0
30
0
70
128
71
1454
72
1455
73
-1458
0
VERTEX
8

10
0
20
0
30
0
70
128
71
-1454
72
1458
73
1457
0
VERTEX
8

10
0
20
0
30
0
70
128
71
1455
72
1453
73
-1456
0
VERTEX
8

10
0
20
0
30
0
70
128
71
-1455
72
1456
73
1458
0
VERTEX
8

10
0
20
0
30
0
70
128
71
1460
72
1464
73
1459
0
VERTEX
8

10
0
20
0
30
0
70
128
71
1460
72
1461
73
1464
0
VERTEX
8

10
0
20
0
30
0
70
128
71
1461
72
1463
73
1464
0
VERTEX
8

10
0
20
0
30
0
70
128
71
1461
72
1462
73
1463
0
VERTEX
8

10
0
20
0
30
0
70
128
71
1466
72
1470
73
1465
0
VERTEX
8

10
0
20
0
30
0
70
128
71
1466
72
1467
73
1470
0
VERTEX
8

10
0
20
0
30
0
70
128
71
1467
72
1469
73
1470
0
VERTEX
8

10
0
20
0
30
0
70
128
71
1467
72
1468
73
1469
0
VERTEX
8

10
0
20
0
30
0
70
128
71
1472
72
1476
73
1471
0
VERTEX
8

10
0
20
0
30
0
70
128
71
1472
72
1473
73
1476
0
VERTEX
8

10
0
20
0
30
0
70
128
71
1473
72
1475
73
1476
0
VERTEX
8

10
0
20
0
30
0
70
128
71
1473
72
1474
73
1475
0
VERTEX
8

10
0
20
0
30
0
70
128
71
1478
72
1482
73
1477
0
VERTEX
8

10
0
20
0
30
0
70
128
71
1478
72
1479
73
1482
0
VERTEX
8

10
0
20
0
30
0
70
128
71
1479
72
1481
73
1482
0
VERTEX
8

10
0
20
0
30
0
70
128
71
1479
72
1480
73
1481
0
VERTEX
8

10
0
20
0
30
0
70
128
71
1484
72
1488
73
1483
0
VERTEX
8

10
0
20
0
30
0
70
128
71
1484
72
1485
73
1488
0
VERTEX
8

10
0
20
0
30
0
70
128
71
1485
72
1487
73
1488
0
VERTEX
8

10
0
20
0
30
0
70
128
71
1485
72
1486
73
1487
0
VERTEX
8

10
0
20
0
30
0
70
128
71
1489
72
1494
73
1490
0
VERTEX
8

10
0
20
0
30
0
70
128
71
1494
72
1491
73
1490
0
VERTEX
8

10
0
20
0
30
0
70
128
71
1494
72
1493
73
1491
0
VERTEX
8

10
0
20
0
30
0
70
128
71
1493
72
1492
73
1491
0
VERTEX
8

10
0
20
0
30
0
70
128
71
1495
72
1500
73
1496
0
VERTEX
8

10
0
20
0
30
0
70
128
71
1500
72
1497
73
1496
0
VERTEX
8

10
0
20
0
30
0
70
128
71
1500
72
1499
73
1497
0
VERTEX
8

10
0
20
0
30
0
70
128
71
1499
72
1498
73
1497
0
VERTEX
8

10
0
20
0
30
0
70
128
71
1501
72
1506
73
1502
0
VERTEX
8

10
0
20
0
30
0
70
128
71
1506
72
1503
73
1502
0
VERTEX
8

10
0
20
0
30
0
70
128
71
1506
72
1505
73
1503
0
VERTEX
8

10
0
20
0
30
0
70
128
71
1505
72
1504
73
1503
0
VERTEX
8

10
0
20
0
30
0
70
128
71
1507
72
1512
73
1508
0
VERTEX
8

10
0
20
0
30
0
70
128
71
1512
72
1509
73
1508
0
VERTEX
8

10
0
20
0
30
0
70
128
71
1512
72
1511
73
1509
0
VERTEX
8

10
0
20
0
30
0
70
128
71
1511
72
1510
73
1509
0
VERTEX
8

10
0
20
0
30
0
70
128
71
1513
72
1518
73
1514
0
VERTEX
8

10
0
20
0
30
0
70
128
71
1518
72
1515
73
1514
0
VERTEX
8

10
0
20
0
30
0
70
128
71
1518
72
1517
73
1515
0
VERTEX
8

10
0
20
0
30
0
70
128
71
1517
72
1516
73
1515
0
VERTEX
8

10
0
20
0
30
0
70
128
71
1519
72
1524
73
1520
0
VERTEX
8

10
0
20
0
30
0
70
128
71
1524
72
1521
73
1520
0
VERTEX
8

10
0
20
0
30
0
70
128
71
1524
72
1523
73
1521
0
VERTEX
8

10
0
20
0
30
0
70
128
71
1523
72
1522
73
1521
0
VERTEX
8

10
0
20
0
30
0
70
128
71
1525
72
1530
73
1526
0
VERTEX
8

10
0
20
0
30
0
70
128
71
1530
72
1527
73
1526
0
VERTEX
8

10
0
20
0
30
0
70
128
71
1530
72
1529
73
1527
0
VERTEX
8

10
0
20
0
30
0
70
128
71
1529
72
1528
73
1527
0
VERTEX
8

10
0
20
0
30
0
70
128
71
1532
72
1536
73
1531
0
VERTEX
8

10
0
20
0
30
0
70
128
71
1532
72
1533
73
1536
0
VERTEX
8

10
0
20
0
30
0
70
128
71
1533
72
1535
73
1536
0
VERTEX
8

10
0
20
0
30
0
70
128
71
1533
72
1534
73
1535
0
VERTEX
8

10
0
20
0
30
0
70
128
71
1538
72
1542
73
1537
0
VERTEX
8

10
0
20
0
30
0
70
128
71
1538
72
1539
73
1542
0
VERTEX
8

10
0
20
0
30
0
70
128
71
1539
72
1541
73
1542
0
VERTEX
8

10
0
20
0
30
0
70
128
71
1539
72
1540
73
1541
0
VERTEX
8

10
0
20
0
30
0
70
128
71
1543
72
1544
73
-1547
0
VERTEX
8

10
0
20
0
30
0
70
128
71
-1543
72
1547
73
1546
0
VERTEX
8

10
0
20
0
30
0
70
128
71
1544
72
1545
73
-1548
0
VERTEX
8

10
0
20
0
30
0
70
128
71
-1544
72
1548
73
1547
0
VERTEX
8

10
0
20
0
30
0
70
128
71
1545
72
1543
73
-1546
0
VERTEX
8

10
0
20
0
30
0
70
128
71
-1545
72
1546
73
1548
0
VERTEX
8

10
0
20
0
30
0
70
128
71
1546
72
1547
73
-1550
0
VERTEX
8

10
0
20
0
30
0
70
128
71
-1546
72
1550
73
1549
0
VERTEX
8

10
0
20
0
30
0
70
128
71
1547
72
1548
73
-1551
0
VERTEX
8

10
0
20
0
30
0
70
128
71
-1547
72
1551
73
1550
0
VERTEX
8

10
0
20
0
30
0
70
128
71
1548
72
1546
73
-1549
0
VERTEX
8

10
0
20
0
30
0
70
128
71
-1548
72
1549
73
1551
0
VERTEX
8

10
0
20
0
30
0
70
128
71
1549
72
1550
73
-1553
0
VERTEX
8

10
0
20
0
30
0
70
128
71
-1549
72
1553
73
1552
0
VERTEX
8

10
0
20
0
30
0
70
128
71
1550
72
1551
73
-1554
0
VERTEX
8

10
0
20
0
30
0
70
128
71
-1550
72
1554
73
1553
0
VERTEX
8

10
0
20
0
30
0
70
128
71
1551
72
1549
73
-1552
0
VERTEX
8

10
0
20
0
30
0
70
128
71
-1551
72
1552
73
1554
0
VERTEX
8

10
0
20
0
30
0
70
128
71
1552
72
1553
73
-1556
0
VERTEX
8

10
0
20
0
30
0
70
128
71
-1552
72
1556
73
1555
0
VERTEX
8

10
0
20
0
30
0
70
128
71
1553
72
1554
73
-1557
0
VERTEX
8

10
0
20
0
30
0
70
128
71
-1553
72
1557
73
1556
0
VERTEX
8

10
0
20
0
30
0
70
128
71
1554
72
1552
73
-1555
0
VERTEX
8

10
0
20
0
30
0
70
128
71
-1554
72
1555
73
1557
0
VERTEX
8

10
0
20
0
30
0
70
128
71
1555
72
1556
73
-1559
0
VERTEX
8

10
0
20
0
30
0
70
128
71
-1555
72
1559
73
1558
0
VERTEX
8

10
0
20
0
30
0
70
128
71
1556
72
1557
73
-1560
0
VERTEX
8

10
0
20
0
30
0
70
128
71
-1556
72
1560
73
1559
0
VERTEX
8

10
0
20
0
30
0
70
128
71
1557
72
1555
73
-1558
0
VERTEX
8

10
0
20
0
30
0
70
128
71
-1557
72
1558
73
1560
0
VERTEX
8

10
0
20
0
30
0
70
128
71
1558
72
1559
73
-1562
0
VERTEX
8

10
0
20
0
30
0
70
128
71
-1558
72
1562
73
1561
0
VERTEX
8

10
0
20
0
30
0
70
128
71
1559
72
1560
73
-1563
0
VERTEX
8

10
0
20
0
30
0
70
128
71
-1559
72
1563
73
1562
0
VERTEX
8

10
0
20
0
30
0
70
128
71
1560
72
1558
73
-1561
0
VERTEX
8

10
0
20
0
30
0
70
128
71
-1560
72
1561
73
1563
0
VERTEX
8

10
0
20
0
30
0
70
128
71
1561
72
1562
73
-1565
0
VERTEX
8

10
0
20
0
30
0
70
128
71
-1561
72
1565
73
1564
0
VERTEX
8

10
0
20
0
30
0
70
128
71
1562
72
1563
73
-1566
0
VERTEX
8

10
0
20
0
30
0
70
128
71
-1562
72
1566
73
1565
0
VERTEX
8

10
0
20
0
30
0
70
128
71
1563
72
1561
73
-1564
0
VERTEX
8

10
0
20
0
30
0
70
128
71
-1563
72
1564
73
1566
0
VERTEX
8

10
0
20
0
30
0
70
128
71
1564
72
1565
73
-1568
0
VERTEX
8

10
0
20
0
30
0
70
128
71
-1564
72
1568
73
1567
0
VERTEX
8

10
0
20
0
30
0
70
128
71
1565
72
1566
73
-1569
0
VERTEX
8

10
0
20
0
30
0
70
128
71
-1565
72
1569
73
1568
0
VERTEX
8

10
0
20
0
30
0
70
128
71
1566
72
1564
73
-1567
0
VERTEX
8

10
0
20
0
30
0
70
128
71
-1566
72
1567
73
1569
0
VERTEX
8

10
0
20
0
30
0
70
128
71
1571
72
1575
73
1570
0
VERTEX
8

10
0
20
0
30
0
70
128
71
1571
72
1572
73
1575
0
VERTEX
8

10
0
20
0
30
0
70
128
71
1572
72
1574
73
1575
0
VERTEX
8

10
0
20
0
30
0
70
128
71
1572
72
1573
73
1574
0
VERTEX
8

10
0
20
0
30
0
70
128
71
1577
72
1581
73
1576
0
VERTEX
8

10
0
20
0
30
0
70
128
71
1577
72
1578
73
1581
0
VERTEX
8

10
0
20
0
30
0
70
128
71
1578
72
1580
73
1581
0
VERTEX
8

10
0
20
0
30
0
70
128
71
1578
72
1579
73
1580
0
VERTEX
8

10
0
20
0
30
0
70
128
71
1583
72
1587
73
1582
0
VERTEX
8

10
0
20
0
30
0
70
128
71
1583
72
1584
73
1587
0
VERTEX
8

10
0
20
0
30
0
70
128
71
1584
72
1586
73
1587
0
VERTEX
8

10
0
20
0
30
0
70
128
71
1584
72
1585
73
1586
0
VERTEX
8

10
0
20
0
30
0
70
128
71
1589
72
1593
73
1588
0
VERTEX
8

10
0
20
0
30
0
70
128
71
1589
72
1590
73
1593
0
VERTEX
8

10
0
20
0
30
0
70
128
71
1590
72
1592
73
1593
0
VERTEX
8

10
0
20
0
30
0
70
128
71
1590
72
1591
73
1592
0
VERTEX
8

10
0
20
0
30
0
70
128
71
1595
72
1599
73
1594
0
VERTEX
8

10
0
20
0
30
0
70
128
71
1595
72
1596
73
1599
0
VERTEX
8

10
0
20
0
30
0
70
128
71
1596
72
1598
73
1599
0
VERTEX
8

10
0
20
0
30
0
70
128
71
1596
72
1597
73
1598
0
SEQEND
8

0
ENDSEC
0
EOF
