# Wavefront OBJ exported by MilkShape 3D

mtllib wall.mtl

v -0.492289 0.007912 0.004260
v 0.484863 0.016770 0.002989
v -0.494831 0.016734 0.492823
v 0.482321 0.994829 0.004260
v 0.482321 0.007868 0.491552
v 0.484863 0.979128 0.492823
v -0.494831 0.985990 0.002989
v -0.492289 0.988013 0.491552
v 0.175889 0.686814 0.743888
v 0.176525 0.684609 0.499607
v 0.420177 0.684598 0.743253
v 0.420813 0.686823 0.498972
v 0.420177 0.931337 0.499607
v 0.175889 0.929127 0.498972
v 0.176525 0.929633 0.743253
v 0.420813 0.927412 0.743888
v -0.432612 0.686814 0.741621
v -0.431977 0.684609 0.497340
v -0.188324 0.684598 0.740985
v -0.187689 0.686823 0.496704
v -0.188324 0.931337 0.497340
v -0.432612 0.929127 0.496704
v -0.431977 0.929633 0.740985
v -0.187689 0.927412 0.741621
v -0.431977 0.058889 0.499597
v -0.188324 0.058878 0.743243
v -0.432612 0.061095 0.743878
v -0.187689 0.061104 0.498962
v -0.188324 0.305619 0.499597
v -0.432612 0.303409 0.498962
v -0.431977 0.303915 0.743243
v -0.187689 0.301693 0.743878
v 0.173851 0.058889 0.501864
v 0.417503 0.058878 0.745510
v 0.173215 0.061095 0.746146
v 0.418139 0.061104 0.501229
v 0.417503 0.305619 0.501864
v 0.173215 0.303409 0.501229
v 0.173851 0.303915 0.745510
v 0.418139 0.301693 0.746146
v -0.167419 0.013805 0.166691
v 0.483168 0.339822 0.166267
v 0.157451 0.986649 0.166691
v -0.493136 0.660638 0.166267
v -0.168266 0.337538 0.491976
v -0.168266 0.662910 0.003836
v 0.157451 0.013791 0.329121
v 0.483168 0.660608 0.329545
v -0.167419 0.984377 0.329121
v -0.493136 0.337553 0.329545
v 0.158298 0.658336 0.491976
v 0.158298 0.339837 0.003836
v 0.257530 0.685340 0.662249
v 0.420389 0.767586 0.580611
v 0.257530 0.930032 0.580611
v 0.176313 0.847790 0.580611
v 0.257530 0.767015 0.743465
v 0.257530 0.848358 0.499395
v 0.257530 0.685340 0.662249
v 0.420389 0.767586 0.580611
v 0.257530 0.930032 0.580611
v 0.176313 0.847790 0.580611
v 0.257530 0.767015 0.743465
v 0.257530 0.848358 0.499395
v 0.339172 0.685343 0.580611
v 0.339172 0.685343 0.580611
v 0.420389 0.847782 0.662249
v 0.420389 0.847782 0.662249
v 0.339172 0.929461 0.662249
v 0.339172 0.929461 0.662249
v 0.176313 0.767019 0.662249
v 0.176313 0.767019 0.662249
v 0.339172 0.847214 0.743465
v 0.339172 0.847214 0.743465
v 0.339172 0.767590 0.499395
v 0.339172 0.767590 0.499395
v -0.350971 0.685340 0.659982
v -0.188112 0.767586 0.578343
v -0.350971 0.930032 0.578343
v -0.432189 0.847790 0.578343
v -0.350971 0.767015 0.741197
v -0.350971 0.848358 0.497128
v -0.350971 0.685340 0.659982
v -0.188112 0.767586 0.578343
v -0.350971 0.930032 0.578343
v -0.432189 0.847790 0.578343
v -0.350971 0.767015 0.741197
v -0.350971 0.848358 0.497128
v -0.269330 0.685343 0.578343
v -0.269330 0.685343 0.578343
v -0.188112 0.847782 0.659982
v -0.188112 0.847782 0.659982
v -0.269330 0.929461 0.659982
v -0.269330 0.929461 0.659982
v -0.432189 0.767019 0.659982
v -0.432189 0.767019 0.659982
v -0.269330 0.847214 0.741197
v -0.269330 0.847214 0.741197
v -0.269330 0.767590 0.497128
v -0.269330 0.767590 0.497128
v -0.350971 0.059621 0.662239
v -0.188112 0.141867 0.580601
v -0.350971 0.304314 0.580601
v -0.432189 0.222071 0.580601
v -0.350971 0.141296 0.743455
v -0.350971 0.222639 0.499385
v -0.350971 0.059621 0.662239
v -0.188112 0.141867 0.580601
v -0.350971 0.304314 0.580601
v -0.432189 0.222071 0.580601
v -0.350971 0.141296 0.743455
v -0.350971 0.222639 0.499385
v -0.269330 0.059624 0.580601
v -0.269330 0.059624 0.580601
v -0.188112 0.222063 0.662239
v -0.188112 0.222063 0.662239
v -0.269330 0.303742 0.662239
v -0.269330 0.303742 0.662239
v -0.432189 0.141300 0.662239
v -0.432189 0.141300 0.662239
v -0.269330 0.221495 0.743455
v -0.269330 0.221495 0.743455
v -0.269330 0.141871 0.499385
v -0.269330 0.141871 0.499385
v 0.254856 0.059621 0.664507
v 0.417715 0.141867 0.582868
v 0.254856 0.304314 0.582868
v 0.173639 0.222071 0.582868
v 0.254856 0.141296 0.745722
v 0.254856 0.222639 0.501652
v 0.254856 0.059621 0.664507
v 0.417715 0.141867 0.582868
v 0.254856 0.304314 0.582868
v 0.173639 0.222071 0.582868
v 0.254856 0.141296 0.745722
v 0.254856 0.222639 0.501652
v 0.336498 0.059624 0.582868
v 0.336498 0.059624 0.582868
v 0.417715 0.222063 0.664507
v 0.417715 0.222063 0.664507
v 0.336498 0.303742 0.664507
v 0.336498 0.303742 0.664507
v 0.173639 0.141300 0.664507
v 0.173639 0.141300 0.664507
v 0.336498 0.221495 0.745722
v 0.336498 0.221495 0.745722
v 0.336498 0.141871 0.501652
v 0.336498 0.141871 0.501652
# 148 vertices

vt 0.000000 0.333333
vt 0.000000 0.000000
vt 0.000000 1.000000
vt 0.000000 0.666667
# 4 texture coordinates

vn -0.222569 -0.656301 -0.221594
vn 0.408726 -0.816786 -0.407191
vn -0.408757 -0.816824 0.407082
vn 0.582076 -0.271956 -0.134872
vn 0.669797 0.336238 -0.662054
vn 0.667705 -0.335320 0.664628
vn 0.222002 0.656581 -0.214324
vn -0.410651 0.820559 -0.397554
vn -0.581308 0.273194 -0.131663
vn -0.667674 -0.335292 -0.664674
vn -0.135551 -0.272609 0.579650
vn -0.665600 0.334316 0.667240
vn -0.136176 0.273835 -0.574761
vn 0.222558 -0.656310 0.221506
vn 0.581454 0.271288 0.139737
vn 0.406858 0.812945 0.416638
vn -0.223131 0.655940 0.228774
vn -0.580677 -0.272600 0.136549
vn 0.136321 0.270647 0.582835
vn 0.136950 -0.271946 -0.577973
vn -0.193196 -0.575831 0.193177
vn -0.577358 -0.577308 -0.577385
vn 0.577371 -0.577335 0.577344
vn 0.578555 -0.190511 -0.192309
vn 0.579575 -0.572851 -0.579599
vn 0.578717 0.578653 -0.574672
vn -0.192743 0.576277 -0.190507
vn -0.580926 0.574208 -0.576897
vn -0.576021 0.575971 0.580049
vn -0.578102 0.190957 -0.191411
vn -0.192750 -0.191405 0.578989
vn -0.193189 0.191851 -0.576318
vn 0.193196 -0.575831 -0.193213
vn 0.578116 0.190931 0.194979
vn 0.578260 0.571475 0.582265
vn 0.193652 0.575366 0.195881
vn -0.577660 -0.191396 0.194079
vn -0.579601 -0.572851 0.579572
vn 0.193203 0.190037 0.579886
vn 0.193645 -0.190502 -0.577218
# 40 normals

g duza
usemtl white
s 9
f 41/1/1 2/2/2 3/3/3
f 42/1/4 4/2/5 5/3/6
f 43/1/7 4/2/5 7/2/8
f 44/1/9 7/2/8 1/2/10
f 45/3/11 5/3/6 8/3/12
f 46/2/13 7/2/8 4/2/5
f 47/4/14 2/2/2 5/3/6
f 48/4/15 4/2/5 6/3/16
f 49/4/17 7/2/8 8/3/12
f 50/4/18 1/2/10 3/3/3
f 51/3/19 5/3/6 6/3/16
f 52/2/20 4/2/5 2/2/2
f 1/2/10 41/1/1 3/3/3
f 1/2/10 2/2/2 41/1/1
f 2/2/2 42/1/4 5/3/6
f 2/2/2 4/2/5 42/1/4
f 6/3/16 43/1/7 7/2/8
f 6/3/16 4/2/5 43/1/7
f 8/3/12 44/1/9 1/2/10
f 8/3/12 7/2/8 44/1/9
f 3/3/3 45/3/11 8/3/12
f 3/3/3 5/3/6 45/3/11
f 1/2/10 46/2/13 4/2/5
f 1/2/10 7/2/8 46/2/13
f 3/3/3 47/4/14 5/3/6
f 3/3/3 2/2/2 47/4/14
f 5/3/6 48/4/15 6/3/16
f 5/3/6 4/2/5 48/4/15
f 6/3/16 49/4/17 8/3/12
f 6/3/16 7/2/8 49/4/17
f 8/3/12 50/4/18 3/3/3
f 8/3/12 1/2/10 50/4/18
f 8/3/12 51/3/19 6/3/16
f 8/3/12 5/3/6 51/3/19
f 1/2/10 52/2/20 2/2/2
f 1/2/10 4/2/5 52/2/20
# 36 triangles in group

g mala
usemtl white
f 53/4/21 10/2/22 11/3/23
f 54/1/24 12/2/25 13/2/26
f 55/1/27 14/2/28 15/3/29
f 56/1/30 10/2/22 15/3/29
f 57/3/31 11/3/23 15/3/29
f 58/2/32 13/2/26 10/2/22
f 59/4/21 10/2/22 11/3/23
f 60/1/24 12/2/25 13/2/26
f 61/1/27 14/2/28 15/3/29
f 62/1/30 10/2/22 15/3/29
f 63/3/31 11/3/23 15/3/29
f 64/2/32 13/2/26 10/2/22
f 65/1/33 12/2/25 11/3/23
f 66/1/33 12/2/25 11/3/23
f 67/4/34 13/2/26 16/3/35
f 68/4/34 13/2/26 16/3/35
f 69/4/36 13/2/26 15/3/29
f 70/4/36 13/2/26 15/3/29
f 71/4/37 10/2/22 9/3/38
f 72/4/37 10/2/22 9/3/38
f 73/3/39 11/3/23 16/3/35
f 74/3/39 11/3/23 16/3/35
f 75/2/40 13/2/26 12/2/25
f 76/2/40 13/2/26 12/2/25
f 9/3/38 53/4/21 11/3/23
f 9/3/38 10/2/22 53/4/21
f 11/3/23 54/1/24 13/2/26
f 11/3/23 12/2/25 54/1/24
f 13/2/26 55/1/27 15/3/29
f 13/2/26 14/2/28 55/1/27
f 14/2/28 56/1/30 15/3/29
f 14/2/28 10/2/22 56/1/30
f 9/3/38 57/3/31 15/3/29
f 9/3/38 11/3/23 57/3/31
f 14/2/28 58/2/32 10/2/22
f 14/2/28 13/2/26 58/2/32
f 9/3/38 59/4/21 11/3/23
f 9/3/38 10/2/22 59/4/21
f 11/3/23 60/1/24 13/2/26
f 11/3/23 12/2/25 60/1/24
f 13/2/26 61/1/27 15/3/29
f 13/2/26 14/2/28 61/1/27
f 14/2/28 62/1/30 15/3/29
f 14/2/28 10/2/22 62/1/30
f 9/3/38 63/3/31 15/3/29
f 9/3/38 11/3/23 63/3/31
f 14/2/28 64/2/32 10/2/22
f 14/2/28 13/2/26 64/2/32
f 10/2/22 65/1/33 11/3/23
f 10/2/22 12/2/25 65/1/33
f 10/2/22 66/1/33 11/3/23
f 10/2/22 12/2/25 66/1/33
f 11/3/23 67/4/34 16/3/35
f 11/3/23 13/2/26 67/4/34
f 11/3/23 68/4/34 16/3/35
f 11/3/23 13/2/26 68/4/34
f 16/3/35 69/4/36 15/3/29
f 16/3/35 13/2/26 69/4/36
f 16/3/35 70/4/36 15/3/29
f 16/3/35 13/2/26 70/4/36
f 15/3/29 71/4/37 9/3/38
f 15/3/29 10/2/22 71/4/37
f 15/3/29 72/4/37 9/3/38
f 15/3/29 10/2/22 72/4/37
f 15/3/29 73/3/39 16/3/35
f 15/3/29 11/3/23 73/3/39
f 15/3/29 74/3/39 16/3/35
f 15/3/29 11/3/23 74/3/39
f 10/2/22 75/2/40 12/2/25
f 10/2/22 13/2/26 75/2/40
f 10/2/22 76/2/40 12/2/25
f 10/2/22 13/2/26 76/2/40
# 72 triangles in group

g Duplicate03
usemtl white
f 77/4/21 18/2/22 19/3/23
f 78/1/24 20/2/25 21/2/26
f 79/1/27 22/2/28 23/3/29
f 80/1/30 22/2/28 18/2/22
f 81/3/31 17/3/38 19/3/23
f 82/2/32 21/2/26 18/2/22
f 83/4/21 18/2/22 19/3/23
f 84/1/24 20/2/25 21/2/26
f 85/1/27 22/2/28 23/3/29
f 86/1/30 22/2/28 18/2/22
f 87/3/31 17/3/38 19/3/23
f 88/2/32 21/2/26 18/2/22
f 89/1/33 20/2/25 19/3/23
f 90/1/33 20/2/25 19/3/23
f 91/4/34 21/2/26 24/3/35
f 92/4/34 21/2/26 24/3/35
f 93/4/36 21/2/26 23/3/29
f 94/4/36 21/2/26 23/3/29
f 95/4/37 18/2/22 17/3/38
f 96/4/37 18/2/22 17/3/38
f 97/3/39 19/3/23 24/3/35
f 98/3/39 19/3/23 24/3/35
f 99/2/40 21/2/26 20/2/25
f 100/2/40 21/2/26 20/2/25
f 17/3/38 77/4/21 19/3/23
f 17/3/38 18/2/22 77/4/21
f 19/3/23 78/1/24 21/2/26
f 19/3/23 20/2/25 78/1/24
f 21/2/26 79/1/27 23/3/29
f 21/2/26 22/2/28 79/1/27
f 23/3/29 80/1/30 18/2/22
f 23/3/29 22/2/28 80/1/30
f 23/3/29 81/3/31 19/3/23
f 23/3/29 17/3/38 81/3/31
f 22/2/28 82/2/32 18/2/22
f 22/2/28 21/2/26 82/2/32
f 17/3/38 83/4/21 19/3/23
f 17/3/38 18/2/22 83/4/21
f 19/3/23 84/1/24 21/2/26
f 19/3/23 20/2/25 84/1/24
f 21/2/26 85/1/27 23/3/29
f 21/2/26 22/2/28 85/1/27
f 23/3/29 86/1/30 18/2/22
f 23/3/29 22/2/28 86/1/30
f 23/3/29 87/3/31 19/3/23
f 23/3/29 17/3/38 87/3/31
f 22/2/28 88/2/32 18/2/22
f 22/2/28 21/2/26 88/2/32
f 18/2/22 89/1/33 19/3/23
f 18/2/22 20/2/25 89/1/33
f 18/2/22 90/1/33 19/3/23
f 18/2/22 20/2/25 90/1/33
f 19/3/23 91/4/34 24/3/35
f 19/3/23 21/2/26 91/4/34
f 19/3/23 92/4/34 24/3/35
f 19/3/23 21/2/26 92/4/34
f 24/3/35 93/4/36 23/3/29
f 24/3/35 21/2/26 93/4/36
f 24/3/35 94/4/36 23/3/29
f 24/3/35 21/2/26 94/4/36
f 23/3/29 95/4/37 17/3/38
f 23/3/29 18/2/22 95/4/37
f 23/3/29 96/4/37 17/3/38
f 23/3/29 18/2/22 96/4/37
f 23/3/29 97/3/39 24/3/35
f 23/3/29 19/3/23 97/3/39
f 23/3/29 98/3/39 24/3/35
f 23/3/29 19/3/23 98/3/39
f 18/2/22 99/2/40 20/2/25
f 18/2/22 21/2/26 99/2/40
f 18/2/22 100/2/40 20/2/25
f 18/2/22 21/2/26 100/2/40
# 72 triangles in group

g Duplicate04
usemtl white
f 101/4/21 26/3/23 27/3/38
f 102/1/24 28/2/25 29/2/26
f 103/1/27 30/2/28 31/3/29
f 104/1/30 30/2/28 25/2/22
f 105/3/31 27/3/38 26/3/23
f 106/2/32 29/2/26 25/2/22
f 107/4/21 26/3/23 27/3/38
f 108/1/24 28/2/25 29/2/26
f 109/1/27 30/2/28 31/3/29
f 110/1/30 30/2/28 25/2/22
f 111/3/31 27/3/38 26/3/23
f 112/2/32 29/2/26 25/2/22
f 113/1/33 28/2/25 26/3/23
f 114/1/33 28/2/25 26/3/23
f 115/4/34 29/2/26 32/3/35
f 116/4/34 29/2/26 32/3/35
f 117/4/36 29/2/26 31/3/29
f 118/4/36 29/2/26 31/3/29
f 119/4/37 25/2/22 27/3/38
f 120/4/37 25/2/22 27/3/38
f 121/3/39 26/3/23 32/3/35
f 122/3/39 26/3/23 32/3/35
f 123/2/40 29/2/26 28/2/25
f 124/2/40 29/2/26 28/2/25
f 25/2/22 101/4/21 27/3/38
f 25/2/22 26/3/23 101/4/21
f 26/3/23 102/1/24 29/2/26
f 26/3/23 28/2/25 102/1/24
f 29/2/26 103/1/27 31/3/29
f 29/2/26 30/2/28 103/1/27
f 31/3/29 104/1/30 25/2/22
f 31/3/29 30/2/28 104/1/30
f 31/3/29 105/3/31 26/3/23
f 31/3/29 27/3/38 105/3/31
f 30/2/28 106/2/32 25/2/22
f 30/2/28 29/2/26 106/2/32
f 25/2/22 107/4/21 27/3/38
f 25/2/22 26/3/23 107/4/21
f 26/3/23 108/1/24 29/2/26
f 26/3/23 28/2/25 108/1/24
f 29/2/26 109/1/27 31/3/29
f 29/2/26 30/2/28 109/1/27
f 31/3/29 110/1/30 25/2/22
f 31/3/29 30/2/28 110/1/30
f 31/3/29 111/3/31 26/3/23
f 31/3/29 27/3/38 111/3/31
f 30/2/28 112/2/32 25/2/22
f 30/2/28 29/2/26 112/2/32
f 25/2/22 113/1/33 26/3/23
f 25/2/22 28/2/25 113/1/33
f 25/2/22 114/1/33 26/3/23
f 25/2/22 28/2/25 114/1/33
f 26/3/23 115/4/34 32/3/35
f 26/3/23 29/2/26 115/4/34
f 26/3/23 116/4/34 32/3/35
f 26/3/23 29/2/26 116/4/34
f 32/3/35 117/4/36 31/3/29
f 32/3/35 29/2/26 117/4/36
f 32/3/35 118/4/36 31/3/29
f 32/3/35 29/2/26 118/4/36
f 31/3/29 119/4/37 27/3/38
f 31/3/29 25/2/22 119/4/37
f 31/3/29 120/4/37 27/3/38
f 31/3/29 25/2/22 120/4/37
f 31/3/29 121/3/39 32/3/35
f 31/3/29 26/3/23 121/3/39
f 31/3/29 122/3/39 32/3/35
f 31/3/29 26/3/23 122/3/39
f 25/2/22 123/2/40 28/2/25
f 25/2/22 29/2/26 123/2/40
f 25/2/22 124/2/40 28/2/25
f 25/2/22 29/2/26 124/2/40
# 72 triangles in group

g Duplicate05
usemtl white
f 125/4/21 34/3/23 35/3/38
f 126/1/24 36/2/25 37/2/26
f 127/1/27 38/2/28 39/3/29
f 128/1/30 33/2/22 39/3/29
f 129/3/31 35/3/38 34/3/23
f 130/2/32 37/2/26 33/2/22
f 131/4/21 34/3/23 35/3/38
f 132/1/24 36/2/25 37/2/26
f 133/1/27 38/2/28 39/3/29
f 134/1/30 33/2/22 39/3/29
f 135/3/31 35/3/38 34/3/23
f 136/2/32 37/2/26 33/2/22
f 137/1/33 36/2/25 34/3/23
f 138/1/33 36/2/25 34/3/23
f 139/4/34 37/2/26 40/3/35
f 140/4/34 37/2/26 40/3/35
f 141/4/36 37/2/26 39/3/29
f 142/4/36 37/2/26 39/3/29
f 143/4/37 33/2/22 35/3/38
f 144/4/37 33/2/22 35/3/38
f 145/3/39 34/3/23 40/3/35
f 146/3/39 34/3/23 40/3/35
f 147/2/40 37/2/26 36/2/25
f 148/2/40 37/2/26 36/2/25
f 33/2/22 125/4/21 35/3/38
f 33/2/22 34/3/23 125/4/21
f 34/3/23 126/1/24 37/2/26
f 34/3/23 36/2/25 126/1/24
f 37/2/26 127/1/27 39/3/29
f 37/2/26 38/2/28 127/1/27
f 38/2/28 128/1/30 39/3/29
f 38/2/28 33/2/22 128/1/30
f 39/3/29 129/3/31 34/3/23
f 39/3/29 35/3/38 129/3/31
f 38/2/28 130/2/32 33/2/22
f 38/2/28 37/2/26 130/2/32
f 33/2/22 131/4/21 35/3/38
f 33/2/22 34/3/23 131/4/21
f 34/3/23 132/1/24 37/2/26
f 34/3/23 36/2/25 132/1/24
f 37/2/26 133/1/27 39/3/29
f 37/2/26 38/2/28 133/1/27
f 38/2/28 134/1/30 39/3/29
f 38/2/28 33/2/22 134/1/30
f 39/3/29 135/3/31 34/3/23
f 39/3/29 35/3/38 135/3/31
f 38/2/28 136/2/32 33/2/22
f 38/2/28 37/2/26 136/2/32
f 33/2/22 137/1/33 34/3/23
f 33/2/22 36/2/25 137/1/33
f 33/2/22 138/1/33 34/3/23
f 33/2/22 36/2/25 138/1/33
f 34/3/23 139/4/34 40/3/35
f 34/3/23 37/2/26 139/4/34
f 34/3/23 140/4/34 40/3/35
f 34/3/23 37/2/26 140/4/34
f 40/3/35 141/4/36 39/3/29
f 40/3/35 37/2/26 141/4/36
f 40/3/35 142/4/36 39/3/29
f 40/3/35 37/2/26 142/4/36
f 39/3/29 143/4/37 35/3/38
f 39/3/29 33/2/22 143/4/37
f 39/3/29 144/4/37 35/3/38
f 39/3/29 33/2/22 144/4/37
f 39/3/29 145/3/39 40/3/35
f 39/3/29 34/3/23 145/3/39
f 39/3/29 146/3/39 40/3/35
f 39/3/29 34/3/23 146/3/39
f 33/2/22 147/2/40 36/2/25
f 33/2/22 37/2/26 147/2/40
f 33/2/22 148/2/40 36/2/25
f 33/2/22 37/2/26 148/2/40
# 72 triangles in group

# 324 triangles total

